<svg xmlns="http://www.w3.org/2000/svg" xmlns:xlink="http://www.w3.org/1999/xlink" width="101.47" height="103.164" viewBox="0 0 101.47 103.164"><defs><style>.a{fill:none;}.b{fill:#f7f8fd;}.c{fill:#dfe3e3;}.d,.p{fill:#263238;}.e,.f,.k{fill:#fff;}.f{opacity:0.46;}.g{clip-path:url(#a);}.h{clip-path:url(#b);}.i{opacity:0.3;}.j{clip-path:url(#c);}.k,.m{opacity:0.5;}.l{clip-path:url(#d);}.n{clip-path:url(#e);}.o{clip-path:url(#f);}.p{opacity:0.9;}</style><clipPath id="a"><rect class="a" width="54.097" height="55.902"/></clipPath><clipPath id="b"><path class="a" d="M2.173,29.6,0,2.851,13.578.135,16.021,0,32.183,1.765,28.654,29.6ZM13.609.3.175,2.986,2.317,29.449h26.2L32.011,1.9,16.018.163Z"/></clipPath><clipPath id="c"><path class="a" d="M1.086,6.654C.948,5.3,0,0,0,0,5.294,3.668,8.815,1.225,8.815,1.225S8.8,6.516,8.541,7.74s-1.618,6.626-2.762,8.342a.33.33,0,0,1-.275.173C4.222,16.255,1.214,7.909,1.086,6.654Zm.144-.015C1.363,7.961,4.272,15.8,5.454,16.1a.205.205,0,0,0,.193-.1c1.12-1.685,2.477-7.059,2.762-8.287a56.406,56.406,0,0,0,.267-6.218C7.793,1.946,4.6,3.213.209.331.423,1.559,1.129,5.481,1.231,6.639Z"/></clipPath><clipPath id="d"><path class="a" d="M8.011,20.37c-1.9-.543-6.246-3.127-6.246-5.433,0-1.1-1.765-9.1-1.765-9.1C.951,1.086,6.918,0,8.962,0s5.159,1.225,5.7,3.124.411,11.405.138,12.491c-.257,1.021-4.352,4.8-6.421,4.8A1.347,1.347,0,0,1,8.011,20.37ZM.156,5.837v0c.138.629,1.762,8.026,1.762,9.1,0,2.2,4.263,4.748,6.138,5.285a3.373,3.373,0,0,0,2.293-.657c1.995-1.151,4.14-3.327,4.3-3.99.255-1.022.408-10.515-.135-12.412C13.986,1.326,10.871.153,8.956.153,6.976.153,1.111,1.2.156,5.837Z"/></clipPath><clipPath id="e"><path class="a" d="M0,27.837,3.529,0,7.068,27.975Zm.175-.15,6.718.132L3.517,1.221Z"/></clipPath><clipPath id="f"><path class="a" d="M0,20.83C-.064,18.354,7.845,0,7.845,0l4.327,1.633s-3.014,18.918-3.738,20.4a6.122,6.122,0,0,1-4.6,3.419q-.136.013-.269.013C1.517,25.469.062,23.2,0,20.83Zm.144,0a5.294,5.294,0,0,0,1.578,3.757,2.692,2.692,0,0,0,2.084.718A5.98,5.98,0,0,0,8.3,21.969C8.975,20.585,11.74,3.37,12,1.731L7.928.2C7.21,1.872.083,18.535.145,20.827Z"/></clipPath></defs><g transform="translate(-78.71 -80)"><g transform="translate(81.113 80)"><path class="b" d="M158.518,159.289s11.97-.746,20.207-15.466,6.752-37.174-3.493-49.647-26.2-16.718-41.412-12.725C126.4,83.4,121.46,88.44,117.188,94.52c-3.723,5.3-7.909,10.4-13.544,13.756-5.577,3.321-11.313,5.966-14.118,12.277-6.857,15.346-1.841,33.215,14.367,39.236C121.362,166.274,150.535,162.782,158.518,159.289Z" transform="translate(-86.539 -80)"/><path class="c" d="M158.518,159.289s11.97-.746,20.207-15.466,6.752-37.174-3.493-49.647-26.2-16.718-41.412-12.725C126.4,83.4,121.46,88.44,117.188,94.52c-3.723,5.3-7.909,10.4-13.544,13.756-5.577,3.321-11.313,5.966-14.118,12.277-6.857,15.346-1.841,33.215,14.367,39.236C121.362,166.274,150.535,162.782,158.518,159.289Z" transform="translate(-86.539 -80)"/></g><g transform="translate(81.847 107.196)"><path class="d" d="M126.21,169.11h71.763a1.97,1.97,0,0,1,1.97,1.97v49.9h-75.7v-49.9a1.97,1.97,0,0,1,1.97-1.973Z" transform="translate(-113.403 -168.957)"/><path class="d" d="M199.754,220.792H123.74V170.737a2.127,2.127,0,0,1,2.124-2.127h71.763a2.13,2.13,0,0,1,2.127,2.127Zm-75.707-.307h75.4V170.737a1.823,1.823,0,0,0-1.82-1.82H125.864a1.82,1.82,0,0,0-1.817,1.82Z" transform="translate(-113.057 -168.61)"/><path class="d" d="M184.924,363.85H91.007a1.835,1.835,0,0,1-1.452-2.418l10.558-20.511h75.707l10.613,20.441A1.923,1.923,0,0,1,184.924,363.85Z" transform="translate(-89.277 -288.035)"/><path class="d" d="M184.579,363.657H90.662a1.716,1.716,0,0,1-1.4-.9,1.841,1.841,0,0,1-.193-1.74l10.6-20.6h75.9l.043.08,10.613,20.444a1.875,1.875,0,0,1-.215,1.771A1.8,1.8,0,0,1,184.579,363.657Zm-84.709-22.93L89.345,361.161a1.535,1.535,0,0,0,.181,1.439,1.433,1.433,0,0,0,1.136.755h93.917a1.5,1.5,0,0,0,1.169-.8,1.584,1.584,0,0,0,.2-1.47l-10.57-20.361Z" transform="translate(-88.931 -287.689)"/><path class="e" d="M185.331,361.06H91.414a1.4,1.4,0,0,1-1.252-2.016l10.358-20.913h75.707l10.355,20.913a1.4,1.4,0,0,1-1.252,2.016Z" transform="translate(-89.684 -286.101)"/><path class="d" d="M184.956,360.867H91.039a1.55,1.55,0,0,1-1.4-2.237L100,337.716a.147.147,0,0,1,.138-.086h75.72a.144.144,0,0,1,.135.086l10.358,20.913a1.55,1.55,0,0,1-1.39,2.237Zm-84.709-22.93L89.925,358.764a1.243,1.243,0,0,0,1.114,1.8h93.917a1.243,1.243,0,0,0,1.114-1.8l-10.312-20.827Z" transform="translate(-89.309 -285.755)"/><rect class="e" width="66.537" height="43.659" transform="translate(15.422 4.26)"/><path class="d" d="M205.52,225.963H138.68V182h66.84Zm-66.533-.307h66.227V182.307H138.987Z" transform="translate(-123.411 -177.89)"/><rect class="b" width="63.323" height="22.19" transform="translate(17.15 24.157)"/><path class="f" d="M156.5,282.809v-.552a.307.307,0,0,0-.307-.307h-.424a2.59,2.59,0,0,0-.328-.795l.307-.307a.307.307,0,0,0,0-.42l-.4-.4a.307.307,0,0,0-.424,0l-.307.307a2.577,2.577,0,0,0-.8-.328v-.433a.307.307,0,0,0-.307-.307h-.559a.307.307,0,0,0-.307.307v.433a2.59,2.59,0,0,0-.795.328l-.307-.307a.307.307,0,0,0-.42,0l-.381.384a.307.307,0,0,0,0,.42l.307.307a2.591,2.591,0,0,0-.328.795h-.42a.307.307,0,0,0-.307.307v.559a.307.307,0,0,0,.307.307h.433a2.578,2.578,0,0,0,.328.8l-.307.307a.307.307,0,0,0,0,.42l.4.4a.307.307,0,0,0,.42,0l.307-.307a2.59,2.59,0,0,0,.795.328v.433a.307.307,0,0,0,.307.307h.559a.307.307,0,0,0,.307-.307v-.433a2.577,2.577,0,0,0,.8-.328l.307.307a.307.307,0,0,0,.424,0l.4-.4a.307.307,0,0,0,0-.42l-.307-.307a2.578,2.578,0,0,0,.328-.8h.433A.307.307,0,0,0,156.5,282.809Zm-3.124.982a1.277,1.277,0,1,1,1.142-1.142A1.277,1.277,0,0,1,153.376,283.791Z" transform="translate(-131.257 -245.307)"/><path class="f" d="M173.6,295.545v-.559a.307.307,0,0,0-.307-.307h-.414a2.584,2.584,0,0,0-.331-.8l.307-.307a.307.307,0,0,0,0-.424l-.4-.4a.307.307,0,0,0-.424,0l-.307.307a2.608,2.608,0,0,0-.8-.328v-.427a.307.307,0,0,0-.307-.307h-.562a.307.307,0,0,0-.307.307v.433a2.608,2.608,0,0,0-.8.328l-.307-.307a.307.307,0,0,0-.424,0l-.4.4a.307.307,0,0,0,0,.424l.307.307a2.51,2.51,0,0,0-.331.8h-.43a.307.307,0,0,0-.307.307v.559a.307.307,0,0,0,.307.307h.43a2.5,2.5,0,0,0,.331.795l-.307.307a.307.307,0,0,0,0,.424l.4.393a.307.307,0,0,0,.424,0l.307-.307a2.608,2.608,0,0,0,.8.328v.433a.307.307,0,0,0,.307.307h.562a.307.307,0,0,0,.307-.307V297.8a2.609,2.609,0,0,0,.8-.328l.307.307a.307.307,0,0,0,.424,0l.4-.393a.307.307,0,0,0,0-.424l-.307-.307a2.566,2.566,0,0,0,.331-.795h.43A.307.307,0,0,0,173.6,295.545Zm-3.124.994a1.28,1.28,0,1,1,1.142-1.142A1.28,1.28,0,0,1,170.477,296.539Z" transform="translate(-143.088 -254.13)"/><path class="d" d="M164.081,253.677H152.6a.132.132,0,0,1-.132-.132.135.135,0,0,1,.132-.135h11.479a.134.134,0,1,1,0,.267Z" transform="translate(-132.969 -227.383)"/><path class="d" d="M164.081,259.077H152.6a.135.135,0,0,1-.132-.135.132.132,0,0,1,.132-.132h11.479a.134.134,0,1,1,0,.267Z" transform="translate(-132.969 -231.126)"/><path class="d" d="M164.081,264.467H152.6a.132.132,0,0,1-.132-.132.135.135,0,0,1,.132-.135h11.479a.134.134,0,1,1,0,.267Z" transform="translate(-132.969 -234.862)"/><path class="d" d="M164.081,269.867H152.6a.135.135,0,0,1-.132-.135.132.132,0,0,1,.132-.132h11.479a.134.134,0,1,1,0,.267Z" transform="translate(-132.969 -238.604)"/><rect class="b" width="63.323" height="2.569" rx="1.284" transform="translate(17.15 6.319)"/><rect class="b" width="63.323" height="2.569" rx="1.284" transform="translate(17.15 14.79)"/><path class="d" d="M227.944,355.466l.132-2.8h-4l-.267,2.8Z" transform="translate(-182.413 -296.179)"/><path class="e" d="M227.71,355.273h-4.45l.307-3.1h4.3Zm-4.113-.307h3.818l.12-2.489h-3.7Z" transform="translate(-182.032 -295.832)"/><path class="d" d="M254.877,355.466l-.135-2.8h-4l0,2.8Z" transform="translate(-201.078 -296.179)"/><path class="e" d="M254.7,355.273h-4.45v-3.1h4.3Zm-4.143-.307h3.818l-.12-2.489h-3.7Z" transform="translate(-200.739 -295.832)"/><path class="d" d="M332.429,364.766h4.278l-1-2.986H331.57Z" transform="translate(-257.1 -302.493)"/><path class="e" d="M336.455,364.563h-4.6l-.951-3.293h4.45Zm-4.374-.307h3.947l-.9-2.679h-3.821Z" transform="translate(-256.636 -302.139)"/><path class="d" d="M214.474,355.466l.267-2.8h-4l-.4,2.8Z" transform="translate(-173.078 -296.179)"/><path class="e" d="M214.22,355.273h-4.45l.442-3.1h4.3Zm-4.1-.307h3.818l.236-2.489h-3.683Z" transform="translate(-172.683 -295.832)"/><path class="d" d="M187.534,355.466l.534-2.8h-4l-.666,2.8Z" transform="translate(-154.406 -296.179)"/><path class="e" d="M187.226,355.273H182.77l.74-3.1h4.3Zm-4.067-.307h3.812l.473-2.489h-3.683Z" transform="translate(-153.969 -295.832)"/><path class="d" d="M307.551,355.466l-.672-2.8h-4l.537,2.8Z" transform="translate(-237.215 -296.179)"/><path class="e" d="M307.322,355.273h-4.456l-.6-3.1h4.3Zm-4.2-.307h3.812l-.6-2.489h-3.683Z" transform="translate(-236.793 -295.832)"/><path class="d" d="M320.716,355.466l-.807-2.8h-4l.672,2.8Z" transform="translate(-246.246 -296.179)"/><path class="e" d="M320.482,355.273h-4.459l-.743-3.1h4.3Zm-4.217-.307h3.809l-.715-2.489h-3.683Z" transform="translate(-245.81 -295.832)"/><path class="d" d="M174.064,355.466l.666-2.8h-4l-.8,2.8Z" transform="translate(-145.07 -296.179)"/><path class="e" d="M173.73,355.273h-4.46l.887-3.1h4.312Zm-4.051-.307h3.806l.592-2.489h-3.683Z" transform="translate(-144.613 -295.832)"/><path class="d" d="M268.049,355.466l-.27-2.8h-4l.135,2.8Z" transform="translate(-210.116 -296.179)"/><path class="e" d="M267.851,355.273H263.4l-.15-3.1h4.3Zm-4.156-.307h3.818l-.239-2.489h-3.7Z" transform="translate(-209.749 -295.832)"/><path class="d" d="M333.881,355.466l-.939-2.8h-4l.807,2.8Z" transform="translate(-255.277 -296.179)"/><path class="e" d="M333.636,355.273h-4.463l-.893-3.1H332.6Zm-4.232-.307h3.806l-.835-2.489h-3.683Z" transform="translate(-254.82 -295.832)"/><path class="d" d="M294.379,355.466l-.537-2.8h-4l.405,2.8Z" transform="translate(-228.178 -296.179)"/><path class="e" d="M294.168,355.273h-4.45l-.448-3.1h4.3Zm-4.186-.307h3.809l-.479-2.489h-3.683Z" transform="translate(-227.783 -295.832)"/><path class="d" d="M281.214,355.466l-.405-2.8h-4l.27,2.8Z" transform="translate(-219.147 -296.179)"/><path class="e" d="M281,355.273h-4.45l-.307-3.1h4.3Zm-4.174-.307h3.818l-.359-2.489h-3.7Z" transform="translate(-218.752 -295.832)"/><path class="d" d="M241.414,355.466l0-2.8h-4l-.132,2.8Z" transform="translate(-191.749 -296.179)"/><path class="e" d="M241.207,355.273H236.76l.144-3.1h4.3Zm-4.125-.307H240.9v-2.489h-3.7Z" transform="translate(-191.389 -295.832)"/><path class="d" d="M144.556,361.78h-4.134l-1.142,2.986h4.275Z" transform="translate(-123.827 -302.493)"/><path class="e" d="M143.174,364.563h-4.6l1.258-3.293h4.453Zm-4.165-.307h3.944l.9-2.679h-3.815Z" transform="translate(-123.335 -302.139)"/><path class="d" d="M148.067,352.67h-4l-1.065,2.8h4.134Z" transform="translate(-126.405 -296.179)"/><path class="e" d="M146.736,355.273H142.27l1.185-3.1h4.318Zm-4.021-.307h3.8l.832-2.489h-3.683Z" transform="translate(-125.899 -295.832)"/><path class="d" d="M160.6,355.466l.8-2.8h-4l-.933,2.8Z" transform="translate(-135.741 -296.179)"/><path class="e" d="M160.233,355.273H155.77l1.037-3.1h4.3Zm-4.036-.307H160l.712-2.489h-3.683Z" transform="translate(-135.256 -295.832)"/><path class="d" d="M132.324,381.94l-1.314,3.441H135.6l1.151-3.441Z" transform="translate(-118.095 -316.465)"/><path class="e" d="M135.209,385.187H130.28l1.449-3.747h4.748Zm-4.484-.307h4.263l1.037-3.134h-4.1Z" transform="translate(-117.589 -316.119)"/><path class="d" d="M140.79,371.51h-4.275l-1.225,3.2h4.432Z" transform="translate(-121.062 -309.237)"/><path class="e" d="M139.326,374.511H134.56L135.9,371h4.6Zm-4.318-.307h4.1l.967-2.894h-3.959Z" transform="translate(-120.556 -308.883)"/><path class="d" d="M147.131,381.94l-1.151,3.441h4.595l.985-3.441Z" transform="translate(-128.471 -316.465)"/><path class="e" d="M150.241,385.187H145.33l1.252-3.747h4.742Zm-4.5-.307h4.266l.9-3.134h-4.116Z" transform="translate(-128.02 -316.119)"/><path class="d" d="M201,355.466l.4-2.8h-4l-.534,2.8Z" transform="translate(-163.742 -296.179)"/><path class="e" d="M200.723,355.273H196.27l.589-3.1h4.3Zm-4.082-.307h3.815l.353-2.489h-3.7Z" transform="translate(-163.326 -295.832)"/><path class="d" d="M199.3,364.766l.427-2.986h-4.134l-.568,2.986Z" transform="translate(-162.46 -302.493)"/><path class="e" d="M198.994,364.563h-4.6l.629-3.293h4.438Zm-4.226-.307h3.959l.384-2.679h-3.83Z" transform="translate(-162.023 -302.139)"/><path class="d" d="M185.358,364.766l.568-2.986h-4.134l-.712,2.986Z" transform="translate(-152.798 -302.493)"/><path class="e" d="M185.034,364.57h-4.6l.789-3.29h4.441Zm-4.208-.307h3.953l.513-2.679h-3.827Z" transform="translate(-152.347 -302.146)"/><path class="d" d="M213.228,364.766l.282-2.986h-4.134l-.427,2.986Z" transform="translate(-172.114 -302.493)"/><path class="e" d="M212.944,364.563h-4.6l.47-3.293h4.435Zm-4.239-.307h3.959l.255-2.679h-3.83Z" transform="translate(-171.691 -302.139)"/><path class="d" d="M158.342,361.78h-4.131l-1,2.986h4.278Z" transform="translate(-133.482 -302.493)"/><path class="e" d="M157.124,364.563h-4.6l1.1-3.293h4.45Zm-4.177-.307h3.947l.767-2.679H153.84Z" transform="translate(-133.004 -302.139)"/><path class="d" d="M335.294,374.711h4.429l-1.074-3.2H334.37Z" transform="translate(-259.041 -309.237)"/><path class="e" d="M339.48,374.511h-4.76L333.71,371h4.6Zm-4.53-.307h4.1l-.958-2.9h-3.99Z" transform="translate(-258.583 -308.883)"/><path class="d" d="M171.425,364.766l.712-2.986H168l-.853,2.986Z" transform="translate(-143.143 -302.493)"/><path class="e" d="M171.084,364.563h-4.6l.945-3.293h4.432Zm-4.2-.307h3.953l.638-2.679h-3.824Z" transform="translate(-142.679 -302.139)"/><path class="d" d="M150.8,371.51l-1.068,3.2h4.429l.918-3.2Z" transform="translate(-131.07 -309.237)"/><path class="e" d="M153.77,374.511H149L150.182,371h4.6Zm-4.334-.307h4.1l.829-2.894H150.4Z" transform="translate(-130.564 -308.883)"/><path class="d" d="M295.868,364.766l-.574-2.986H291.16l.433,2.986Z" transform="translate(-229.093 -302.493)"/><path class="e" d="M295.639,364.563h-4.6l-.476-3.293h4.432Zm-4.331-.307h3.959l-.519-2.679h-3.827Z" transform="translate(-228.677 -302.139)"/><path class="d" d="M282.257,364.766l-.433-2.986H277.69l.289,2.986Z" transform="translate(-219.757 -302.493)"/><path class="e" d="M282.051,364.563h-4.6l-.307-3.293h4.435Zm-4.315-.307H281.7l-.387-2.679h-3.836Z" transform="translate(-219.376 -302.139)"/><path class="d" d="M323.094,364.766l-.859-2.986H318.1l.718,2.986Z" transform="translate(-247.764 -302.493)"/><path class="e" d="M322.816,364.563h-4.6l-.792-3.293h4.444Zm-4.361-.307h3.953l-.773-2.679h-3.812Z" transform="translate(-247.293 -302.139)"/><path class="d" d="M241.1,364.766l0-2.986h-4.134l-.141,2.986Z" transform="translate(-191.43 -302.493)"/><path class="e" d="M240.864,364.563h-4.6l.153-3.293h4.435Zm-4.269-.307h3.962v-2.679H236.72Z" transform="translate(-191.042 -302.139)"/><path class="d" d="M268.643,364.766l-.288-2.986H264.22l.144,2.986Z" transform="translate(-210.421 -302.493)"/><path class="e" d="M268.416,364.563h-4.6l-.163-3.293h4.435Zm-4.3-.307h3.962l-.258-2.679h-3.836Z" transform="translate(-210.026 -302.139)"/><path class="d" d="M255.028,364.766l-.144-2.986H250.75l0,2.986Z" transform="translate(-201.085 -302.493)"/><path class="e" d="M254.824,364.57h-4.6v-3.29h4.444Zm-4.3-.307h3.962l-.132-2.679h-3.821Z" transform="translate(-200.718 -302.146)"/><path class="d" d="M227.165,364.766l.141-2.986h-4.134l-.282,2.986Z" transform="translate(-181.776 -302.493)"/><path class="e" d="M226.9,364.563h-4.6l.307-3.293h4.435Zm-4.254-.307h3.962l.126-2.679H222.9Z" transform="translate(-181.367 -302.139)"/><path class="d" d="M278.63,371.51l.31,3.2h4.429l-.46-3.2Z" transform="translate(-220.408 -309.237)"/><path class="e" d="M283.166,374.511h-4.748L278.08,371h4.579ZM278.7,374.2h4.116l-.42-2.9h-3.975Z" transform="translate(-220.027 -308.883)"/><path class="d" d="M292.57,371.51l.46,3.2h4.432l-.617-3.2Z" transform="translate(-230.07 -309.237)"/><path class="e" d="M297.251,374.511H292.5L292,371h4.579Zm-4.481-.307h4.11l-.556-2.9H292.35Z" transform="translate(-229.675 -308.883)"/><path class="d" d="M165.078,371.51l-.918,3.2h4.429l.764-3.2Z" transform="translate(-141.071 -309.237)"/><path class="e" d="M168.257,374.511H163.5l1-3.511h4.588Zm-4.349-.307h4.1l.691-2.894h-3.968Z" transform="translate(-140.614 -308.883)"/><path class="d" d="M306.5,371.51l.617,3.2h4.429l-.767-3.2Z" transform="translate(-239.724 -309.237)"/><path class="e" d="M311.326,374.511h-4.751L305.9,371h4.582Zm-4.5-.307h4.11l-.709-2.9h-3.956Z" transform="translate(-239.309 -308.883)"/><path class="d" d="M250.76,371.51l0,3.2h4.429l-.157-3.2Z" transform="translate(-201.092 -309.237)"/><path class="e" d="M255.015,374.511H250.27V371h4.576Zm-4.438-.307h4.116l-.141-2.894h-3.99Z" transform="translate(-200.752 -308.883)"/><path class="d" d="M320.44,371.51l.767,3.2h4.432l-.924-3.2Z" transform="translate(-249.386 -309.237)"/><path class="e" d="M325.386,374.511h-4.742L319.8,371h4.588Zm-4.512-.307h4.1l-.819-2.9H320.19Z" transform="translate(-248.942 -308.883)"/><path class="d" d="M264.69,371.51l.157,3.2h4.432l-.31-3.2Z" transform="translate(-210.747 -309.237)"/><path class="e" d="M269.087,374.511h-4.745L264.17,371h4.576Zm-4.453-.307h4.116l-.279-2.894h-3.99Z" transform="translate(-210.386 -308.883)"/><path class="d" d="M193.641,371.51l-.611,3.2h4.432l.454-3.2Z" transform="translate(-161.08 -309.237)"/><path class="e" d="M197.178,374.511H192.43L193.1,371h4.582Zm-4.38-.307h4.1l.414-2.894h-3.965Z" transform="translate(-160.664 -308.883)"/><path class="d" d="M179.354,371.51l-.764,3.2h4.432l.611-3.2Z" transform="translate(-151.072 -309.237)"/><path class="e" d="M182.739,374.511H178l.826-3.511h4.582Zm-4.361-.307h4.11l.549-2.894h-3.968Z" transform="translate(-150.663 -308.883)"/><path class="d" d="M236.487,371.51l-.147,3.2h4.429l0-3.2Z" transform="translate(-191.098 -309.237)"/><path class="e" d="M240.555,374.518H235.81l.166-3.508h4.576Zm-4.423-.307h4.116v-2.9h-3.99Z" transform="translate(-190.73 -308.89)"/><path class="d" d="M222.2,371.51l-.3,3.2h4.432l.147-3.2Z" transform="translate(-181.09 -309.237)"/><path class="e" d="M226.095,374.511H221.35l.331-3.511h4.579Zm-4.407-.307H225.8l.135-2.894h-3.99Z" transform="translate(-180.708 -308.883)"/><path class="d" d="M207.924,371.51l-.454,3.2H211.9l.3-3.2Z" transform="translate(-171.088 -309.237)"/><path class="e" d="M211.635,374.511H206.89l.5-3.511h4.579Zm-4.392-.307h4.113l.276-2.894h-3.99Z" transform="translate(-170.686 -308.883)"/><path class="d" d="M309.482,364.766l-.718-2.986H304.63l.574,2.986Z" transform="translate(-238.428 -302.493)"/><path class="e" d="M309.239,364.57h-4.6L304,361.28h4.441Zm-4.346-.307h3.956l-.645-2.679h-3.827Z" transform="translate(-237.992 -302.146)"/><path class="d" d="M150.472,346.21l.955-2.86h-3.864l-1.093,2.86Z" transform="translate(-128.81 -289.719)"/><path class="e" d="M150.084,346.017H145.75l1.209-3.167h4.183Zm-3.889-.307h3.683l.853-2.554h-3.56Z" transform="translate(-128.311 -289.373)"/><path class="d" d="M135.443,352.67h-3.692l-1.191,2.8h3.818Z" transform="translate(-117.783 -296.179)"/><path class="e" d="M133.963,355.273H129.81l1.32-3.1h4.018Zm-3.683-.307h3.477l.951-2.489h-3.376Z" transform="translate(-117.264 -295.832)"/><path class="d" d="M139.225,343.35h-3.566l-1.218,2.86h3.692Z" transform="translate(-120.473 -289.719)"/><path class="e" d="M137.72,346.017h-4.03l1.347-3.167h3.892Zm-3.566-.307h3.355l.976-2.554h-3.241Z" transform="translate(-119.953 -289.373)"/><path class="d" d="M131.5,361.78h-3.818l-1.274,2.986h3.95Z" transform="translate(-114.907 -302.493)"/><path class="e" d="M129.917,364.563h-4.3l1.4-3.293h4.14Zm-3.821-.307h3.609l1.025-2.679h-3.493Z" transform="translate(-114.36 -302.139)"/><path class="d" d="M127.283,371.51h-3.95l-1.363,3.2h4.088Z" transform="translate(-111.83 -309.237)"/><path class="e" d="M125.639,374.511H121.21L122.7,371h4.272Zm-3.965-.307h3.769l1.1-2.894h-3.64Z" transform="translate(-111.303 -308.883)"/><path class="d" d="M122.745,381.94h-4.088l-1.467,3.441h4.242Z" transform="translate(-108.517 -316.465)"/><path class="e" d="M121.009,385.187H116.43l1.6-3.747h4.407Zm-4.113-.307h3.9l1.2-3.134h-3.763Z" transform="translate(-107.99 -316.119)"/><path class="d" d="M358.51,361.78l1.145,2.986h3.784l-1.274-2.986Z" transform="translate(-275.772 -302.493)"/><path class="e" d="M363.166,364.563h-4.122l-1.264-3.293h3.99Zm-3.91-.307H362.7l-1.142-2.679h-3.333Z" transform="translate(-275.266 -302.139)"/><path class="d" d="M363.471,374.711h3.919l-1.366-3.2H362.24Z" transform="translate(-278.357 -309.237)"/><path class="e" d="M367.121,374.511h-4.257L361.52,371h4.107Zm-4.045-.307h3.582l-1.228-2.894h-3.456Z" transform="translate(-277.858 -308.883)"/><path class="d" d="M367.57,385.381h4.064l-1.464-3.441H366.25Z" transform="translate(-281.136 -316.465)"/><path class="e" d="M371.361,385.187h-4.4l-1.439-3.747h4.245Zm-4.193-.307h3.717l-1.335-3.134h-3.576Z" transform="translate(-280.63 -316.119)"/><path class="d" d="M254.735,346.21l-.141-2.86H250.73l0,2.86Z" transform="translate(-201.071 -289.719)"/><path class="e" d="M254.555,346.017H250.24V342.85H254.4Zm-4.008-.307h3.683l-.126-2.554h-3.56Z" transform="translate(-200.732 -289.373)"/><path class="d" d="M356.084,355.466h3.655l-1.191-2.8H355.01Z" transform="translate(-273.346 -296.179)"/><path class="e" d="M359.481,355.273h-3.99l-1.191-3.1h3.864Zm-3.784-.307h3.318l-1.059-2.489h-3.213Z" transform="translate(-272.854 -295.832)"/><path class="d" d="M349.384,374.711h4.432l-1.231-3.2H348.31Z" transform="translate(-268.702 -309.237)"/><path class="e" d="M353.561,374.511h-4.773L347.61,371h4.6Zm-4.545-.307h4.1l-1.117-2.9h-3.959Z" transform="translate(-268.217 -308.883)"/><path class="d" d="M163.509,346.21l.819-2.86h-3.864l-.955,2.86Z" transform="translate(-137.848 -289.719)"/><path class="e" d="M163.141,346.017H158.81l1.059-3.167h4.177Zm-3.9-.307h3.683l.734-2.554H160.1Z" transform="translate(-137.363 -289.373)"/><path class="d" d="M341.98,352.67l.939,2.8h4.134l-1.074-2.8Z" transform="translate(-264.315 -296.179)"/><path class="e" d="M346.789,355.273h-4.466l-1.044-3.1H345.6Zm-4.245-.307h3.8l-.954-2.489h-3.683Z" transform="translate(-263.83 -295.832)"/><path class="d" d="M356.068,346.21l-1.218-2.86H351.43l1.1,2.86Z" transform="translate(-270.865 -289.719)"/><path class="e" d="M355.774,346.017H351.9l-1.228-3.167h3.754Zm-3.668-.307h3.2l-1.086-2.554h-3.094Z" transform="translate(-270.338 -289.373)"/><path class="d" d="M343.81,346.21l-1.1-2.86H338.85l.961,2.86Z" transform="translate(-262.146 -289.719)"/><path class="e" d="M343.549,346.017h-4.334l-1.065-3.167h4.183Zm-4.113-.307H343.1l-.979-2.554h-3.545Z" transform="translate(-261.661 -289.373)"/><path class="d" d="M308.51,381.94l.663,3.441h4.595l-.829-3.441Z" transform="translate(-241.118 -316.465)"/><path class="e" d="M313.552,385.187h-4.911l-.721-3.747h4.739Zm-4.662-.307h4.272l-.752-3.134h-4.125Z" transform="translate(-240.709 -316.119)"/><path class="d" d="M352.967,385.381h4.595l-1.32-3.441H351.81Z" transform="translate(-271.128 -316.465)"/><path class="e" d="M357.307,385.187h-4.929l-1.258-3.747h4.748Zm-4.708-.307h4.26l-1.2-3.134h-4.11Z" transform="translate(-270.65 -316.119)"/><path class="d" d="M331.085,346.21l-.961-2.86H326.26l.823,2.86Z" transform="translate(-253.42 -289.719)"/><path class="e" d="M330.818,346.017h-4.328l-.921-3.167h4.18Zm-4.1-.307H330.4l-.856-2.554h-3.563Z" transform="translate(-252.942 -289.373)"/><path class="d" d="M337.38,381.94l.991,3.441h4.595l-1.157-3.441Z" transform="translate(-261.127 -316.465)"/><path class="e" d="M342.741,385.187H337.83l-1.08-3.747h4.745Zm-4.693-.307h4.266l-1.053-3.134h-4.128Z" transform="translate(-260.69 -316.119)"/><path class="d" d="M322.94,381.94l.829,3.441h4.595l-.991-3.441Z" transform="translate(-251.119 -316.465)"/><path class="e" d="M328.15,385.187h-4.911l-.9-3.747h4.739Zm-4.677-.307h4.269l-.9-3.134h-4.119Z" transform="translate(-250.703 -316.119)"/><path class="d" d="M346.044,364.766h4.275l-1.145-2.986H345.04Z" transform="translate(-266.436 -302.493)"/><path class="e" d="M350.1,364.563h-4.6l-1.108-3.293h4.453Zm-4.389-.307h3.944l-1.031-2.679H344.8Z" transform="translate(-265.985 -302.139)"/><path class="d" d="M215.642,346.21l.27-2.86h-3.864l-.408,2.86Z" transform="translate(-173.979 -289.719)"/><path class="e" d="M215.378,346.017H211.06l.454-3.167h4.165Zm-3.962-.307H215.1l.242-2.554h-3.56Z" transform="translate(-173.577 -289.373)"/><path class="d" d="M318.357,346.21l-.823-2.86H313.67l.688,2.86Z" transform="translate(-244.694 -289.719)"/><path class="e" d="M318.1,346.017h-4.324L313,342.85h4.171Zm-4.085-.307H317.7l-.737-2.554H313.4Z" transform="translate(-244.229 -289.373)"/><path class="d" d="M202.609,346.21l.408-2.86h-3.864l-.543,2.86Z" transform="translate(-164.948 -289.719)"/><path class="e" d="M202.321,346.017H198l.614-3.167h4.168Zm-3.95-.307h3.683l.365-2.554h-3.56Z" transform="translate(-164.525 -289.373)"/><path class="d" d="M241.709,346.21l0-2.86h-3.861l-.135,2.86Z" transform="translate(-192.047 -289.719)"/><path class="e" d="M241.5,346.017H237.19l.147-3.167H241.5Zm-3.99-.307H241.2v-2.554h-3.566Z" transform="translate(-191.687 -289.373)"/><path class="d" d="M189.572,346.21l.543-2.86h-3.861l-.684,2.86Z" transform="translate(-155.91 -289.719)"/><path class="e" d="M189.255,346.017H184.94l.755-3.167h4.174Zm-3.932-.307h3.683l.488-2.554h-3.557Z" transform="translate(-155.473 -289.373)"/><path class="d" d="M176.539,346.21l.684-2.86h-3.864l-.819,2.86Z" transform="translate(-146.879 -289.719)"/><path class="e" d="M176.214,346.017H171.88l.921-3.167h4.174Zm-3.919-.307h3.683l.614-2.554h-3.573Z" transform="translate(-146.422 -289.373)"/><path class="d" d="M228.679,346.21l.135-2.86H224.95l-.27,2.86Z" transform="translate(-183.016 -289.719)"/><path class="e" d="M228.445,346.017H224.13l.307-3.167H228.6Zm-3.99-.307h3.683l.12-2.554H224.7Z" transform="translate(-182.635 -289.373)"/><path class="d" d="M305.632,346.21l-.687-2.86H301.08l.552,2.86Z" transform="translate(-235.968 -289.719)"/><path class="e" d="M305.4,346.017h-4.321l-.614-3.167h4.171Zm-4.067-.307h3.683l-.614-2.554h-3.56Z" transform="translate(-235.538 -289.373)"/><path class="d" d="M292.913,346.21l-.552-2.86H288.5l.411,2.86Z" transform="translate(-227.249 -289.719)"/><path class="e" d="M292.7,346.017h-4.318l-.457-3.167h4.168Zm-4.051-.307h3.683l-.491-2.554h-3.56Z" transform="translate(-226.847 -289.373)"/><path class="d" d="M267.46,346.21l-.276-2.86H263.32l.141,2.86Z" transform="translate(-209.797 -289.719)"/><path class="e" d="M267.269,346.017h-4.315l-.153-3.167h4.162Zm-4.024-.307h3.683l-.249-2.554h-3.56Z" transform="translate(-209.437 -289.373)"/><path class="d" d="M206.239,381.94h-44.3l-.985,3.441H206.9Z" transform="translate(-138.846 -316.465)"/><path class="e" d="M206.614,385.187H160.27l1.071-3.747h44.552Zm-45.933-.307h45.562l-.614-3.134H161.581Z" transform="translate(-138.375 -316.119)"/><path class="d" d="M280.185,346.21l-.411-2.86H275.91l.276,2.86Z" transform="translate(-218.523 -289.719)"/><path class="e" d="M279.982,346.017h-4.315l-.307-3.167h4.165Zm-4.039-.307h3.683l-.371-2.554h-3.56Z" transform="translate(-218.142 -289.373)"/></g><g transform="translate(104.172 99.056)"><g class="g" transform="translate(0 0)"><ellipse class="d" cx="8.185" cy="10.42" rx="8.185" ry="10.42" transform="translate(24.179 16.632)"/><path class="d" d="M248.282,216.924c-4.6,0-8.342-4.742-8.342-10.57s3.741-10.573,8.342-10.573,8.339,4.742,8.339,10.573S252.88,216.924,248.282,216.924Zm0-20.837c-4.432,0-8.035,4.6-8.035,10.266s3.6,10.263,8.035,10.263,8.032-4.6,8.032-10.263-3.6-10.266-8.032-10.266Z" transform="translate(-215.918 -179.302)"/><path class="d" d="M199.418,262.335a3.676,3.676,0,0,1-2.059-1.077c-.638-.58-1.3-1.393-1.3-1.756,0-.519,6.138-19.029,6.847-21.131a.153.153,0,0,1,.107-.1.157.157,0,0,1,.141.034l2.323,2.121a.153.153,0,0,1,.049.132l-2.29,20.109a.153.153,0,0,1-.074.114,12.292,12.292,0,0,1-3.628,1.55Zm3.708-23.633c-1.934,5.831-6.706,20.257-6.752,20.818a4.144,4.144,0,0,0,1.2,1.519,3.072,3.072,0,0,0,1.943.994,11.617,11.617,0,0,0,3.434-1.467l2.274-19.95Z" transform="translate(-185.505 -208.747)"/><path class="b" d="M232.388,229.605l-13.578,2.716,2.173,26.751h26.481l3.53-27.837-16.162-1.765Z" transform="translate(-201.273 -202.652)"/><path class="d" d="M247.116,258.879H220.635a.15.15,0,0,1-.15-.141l-2.176-26.751a.153.153,0,0,1,.123-.163l13.593-2.716h0l2.455-.138,16.184,1.768a.16.16,0,0,1,.1.055.157.157,0,0,1,.031.117l-3.53,27.84A.153.153,0,0,1,247.116,258.879Zm-26.337-.307h26.2l3.493-27.546-15.993-1.74-2.409.135-13.434,2.689Z" transform="translate(-200.925 -202.305)"/><g class="h" transform="translate(17.537 26.819)"><path class="i" d="M225.731,290.171h26.481l.666-5.239-.049-.255-6.39,1.393,2.787-11.73-15.334,6.737-3.717,3.717H232.5l-6.838,4.5Z" transform="translate(-223.558 -260.569)"/></g><path class="b" d="M245.632,224.719s-2.2,1.206-2.762,2.29-2.87,9.131-2.87,9.131l3.8.816-3.665,1.765,5.546,15.886,8.827-.543,5.745-16.7-3.533-1.492,3.124-1.36s-2.986-5.7-4.6-8.146S245.632,224.719,245.632,224.719Z" transform="translate(-215.959 -199.272)"/><path class="d" d="M245.343,254.405a.153.153,0,0,1-.144-.1l-5.552-15.889a.153.153,0,0,1,.08-.187l3.263-1.571-3.376-.721a.16.16,0,0,1-.1-.071.156.156,0,0,1-.015-.123c.1-.328,2.339-8.069,2.882-9.155s2.719-2.3,2.811-2.357a.126.126,0,0,1,.058-.015c.328-.034,8.072-.783,9.732,1.71,1.617,2.422,4.6,8.106,4.625,8.161a.144.144,0,0,1,0,.123.141.141,0,0,1-.083.089l-2.8,1.228,3.2,1.354a.157.157,0,0,1,.086.193l-5.724,16.7a.153.153,0,0,1-.135.1l-8.827.543Zm-5.359-15.96L245.45,254.1l8.594-.528,5.644-16.472-3.4-1.436a.153.153,0,0,1-.1-.141.157.157,0,0,1,.092-.141l2.974-1.292c-.479-.921-3.069-5.795-4.533-7.98-1.51-2.265-8.873-1.627-9.416-1.578a7.909,7.909,0,0,0-2.658,2.21c-.485.982-2.483,7.814-2.814,8.947l3.643.78a.153.153,0,0,1,.12.132.16.16,0,0,1-.086.157Z" transform="translate(-215.606 -198.918)"/><path class="e" d="M256.974,262.1l-.114-27.972,7.332-.681,2.151,28.381Z" transform="translate(-227.645 -205.41)"/><path class="d" d="M256.627,261.942a.16.16,0,0,1-.107-.043.163.163,0,0,1-.046-.111l-.114-27.972a.15.15,0,0,1,.138-.153L263.83,233a.141.141,0,0,1,.114.034.16.16,0,0,1,.055.107l2.148,28.381a.157.157,0,0,1-.04.114.147.147,0,0,1-.111.049l-9.367.273Zm.04-27.988.114,27.675,9.051-.261L263.7,233.3Z" transform="translate(-227.298 -205.095)"/><path class="e" d="M253.32,211.77s.948,5.3,1.086,6.654,3.643,11,4.693,9.428c1.145-1.716,2.5-7.117,2.762-8.342s.273-6.516.273-6.516S258.614,215.438,253.32,211.77Z" transform="translate(-225.191 -190.384)"/><path class="d" d="M258.471,227.833a.531.531,0,0,1-.117-.015c-1.443-.359-4.321-8.416-4.453-9.726s-1.074-6.586-1.086-6.642a.153.153,0,0,1,.239-.153c5.15,3.566,8.618,1.246,8.652,1.228a.157.157,0,0,1,.16,0,.16.16,0,0,1,.083.138,60.585,60.585,0,0,1-.276,6.55c-.307,1.332-1.636,6.654-2.8,8.394A.482.482,0,0,1,258.471,227.833Zm-5.294-16.079c.215,1.228.921,5.15,1.022,6.307.132,1.323,3.042,9.165,4.223,9.459a.205.205,0,0,0,.193-.1c1.12-1.685,2.477-7.059,2.762-8.287a56.384,56.384,0,0,0,.267-6.218C260.76,213.368,257.568,214.636,253.176,211.754Z" transform="translate(-224.839 -190.036)"/><g class="j" transform="translate(28.129 21.386)"><path class="b" d="M262.092,216.508c.055-1.737.055-3.52.055-3.52s-3.533,2.455-8.827-1.228c0,0,.39,2.182.706,4.1a6.758,6.758,0,0,0,3.8,2.658A4.523,4.523,0,0,0,262.092,216.508Z" transform="translate(-253.32 -211.763)"/><path class="k" d="M262.092,216.508c.055-1.737.055-3.52.055-3.52s-3.533,2.455-8.827-1.228c0,0,.39,2.182.706,4.1a6.758,6.758,0,0,0,3.8,2.658A4.523,4.523,0,0,0,262.092,216.508Z" transform="translate(-253.32 -211.763)"/></g><path class="e" d="M291.37,192.779s1.492-1.9,1.492.27-1.492,2.455-1.492,2.455Z" transform="translate(-251.563 -176.687)"/><path class="d" d="M291.023,195.3a.144.144,0,0,1-.1-.037.141.141,0,0,1-.055-.117v-2.716a.154.154,0,0,1,.031-.1c.132-.166.807-.982,1.323-.8.307.1.445.488.445,1.169,0,2.274-1.6,2.593-1.617,2.6Zm.153-2.817v2.455c.371-.147,1.185-.654,1.185-2.237,0-.718-.166-.853-.236-.878C291.9,191.748,291.441,192.162,291.177,192.484Z" transform="translate(-251.216 -176.341)"/><path class="e" d="M243.14,166.731s1.765,8,1.765,9.1c0,2.3,4.346,4.889,6.246,5.432s6.519-3.668,6.792-4.754.405-10.592-.138-12.492-3.658-3.124-5.7-3.124S244.091,161.976,243.14,166.731Z" transform="translate(-218.135 -155.12)"/><path class="d" d="M251.18,181.116a1.47,1.47,0,0,1-.414-.055c-1.841-.528-6.359-3.137-6.359-5.58,0-1.065-1.743-8.983-1.762-9.063a.228.228,0,0,1,0-.064c.973-4.868,7.059-5.963,9.112-5.963s5.279,1.228,5.85,3.235.405,11.506.138,12.584c-.2.8-2.437,3.014-4.45,4.177A4.638,4.638,0,0,1,251.18,181.116Zm-8.228-14.732c.138.629,1.762,8.026,1.762,9.1,0,2.2,4.263,4.748,6.138,5.285a3.373,3.373,0,0,0,2.293-.657c1.995-1.151,4.14-3.327,4.3-3.99.255-1.022.408-10.515-.135-12.412-.525-1.842-3.64-3.014-5.555-3.014-1.98,0-7.845,1.047-8.8,5.684Z" transform="translate(-217.791 -154.773)"/><g class="l" transform="translate(25.005 5.77)"><path class="b" d="M252.1,160.89c-2.035,0-8.011,1.086-8.962,5.831,0,0,1.056,4.788,1.535,7.464,0-1.228.215-3.579,1.535-4.6,1.823-1.418,4.865-1.624,6.586-2.434a4.419,4.419,0,0,0,2.127-2.937s.1,3.747.921,4.662,1.624,1.535,1.725,3.14.405,3.241-.405,4.561a16.041,16.041,0,0,1-5.675,4.355c-.233.08-.46.147-.675.212.12.043.236.083.344.114,1.9.543,6.519-3.668,6.792-4.754s.405-10.592-.138-12.492S254.146,160.89,252.1,160.89Z" transform="translate(-243.14 -160.89)"/><path class="b" d="M253.225,213.682c-.74-.746-2.762-2.811-3.683-3.876a6.753,6.753,0,0,1-.712-.976v.224C248.848,210.757,251.218,212.611,253.225,213.682Z" transform="translate(-247.084 -194.117)"/><g class="m" transform="translate(0 0)"><path class="e" d="M252.1,160.89c-2.035,0-8.011,1.086-8.962,5.831,0,0,1.056,4.788,1.535,7.464,0-1.228.215-3.579,1.535-4.6,1.823-1.418,4.865-1.624,6.586-2.434a4.419,4.419,0,0,0,2.127-2.937s.1,3.747.921,4.662,1.624,1.535,1.725,3.14.405,3.241-.405,4.561a16.041,16.041,0,0,1-5.675,4.355c-.233.08-.46.147-.675.212.12.043.236.083.344.114,1.9.543,6.519-3.668,6.792-4.754s.405-10.592-.138-12.492S254.146,160.89,252.1,160.89Z" transform="translate(-243.14 -160.89)"/><path class="e" d="M253.225,213.682c-.74-.746-2.762-2.811-3.683-3.876a6.753,6.753,0,0,1-.712-.976v.224C248.848,210.757,251.218,212.611,253.225,213.682Z" transform="translate(-247.084 -194.116)"/></g></g><path class="d" d="M264.324,194.377c0,.381-.169.688-.381.688s-.384-.307-.384-.687.172-.687.384-.687S264.324,194,264.324,194.377Z" transform="translate(-232.288 -177.853)"/><path class="d" d="M278.887,194.377c0,.381-.172.688-.384.688s-.384-.307-.384-.687.172-.687.384-.687S278.887,194,278.887,194.377Z" transform="translate(-242.38 -177.853)"/><path class="d" d="M273.505,196.635a.147.147,0,0,1-.141-.1.153.153,0,0,1,.083-.2c.614-.239,1.479-.712,1.535-1.007.025-.114-.021-.153-.411-.239a1.534,1.534,0,0,1-.77-.338c-.457-.457-.083-1.74-.037-1.884a.16.16,0,1,1,.307.089c-.147.479-.289,1.332-.04,1.581a1.307,1.307,0,0,0,.614.252c.307.071.734.166.645.614-.111.565-1.455,1.126-1.722,1.228A.141.141,0,0,1,273.505,196.635Z" transform="translate(-239.076 -177.205)"/><path class="d" d="M265.7,209.744a1.841,1.841,0,0,1-1.621-.789.15.15,0,0,1,.043-.212.153.153,0,0,1,.212.043c.737,1.108,2.455.457,2.455.451a.154.154,0,1,1,.114.285A3.726,3.726,0,0,1,265.7,209.744Z" transform="translate(-232.631 -188.269)"/><path class="d" d="M259.891,189.805a.175.175,0,0,1-.055,0,.153.153,0,0,1-.089-.2,1.642,1.642,0,0,1,.823-.85,1.8,1.8,0,0,1,1.415.049.154.154,0,1,1-.114.285,1.5,1.5,0,0,0-1.179-.055,1.363,1.363,0,0,0-.66.681A.147.147,0,0,1,259.891,189.805Z" transform="translate(-229.638 -174.349)"/><path class="d" d="M277.264,188.721a.163.163,0,0,1-.123-.058c-.307-.384-.586-.571-.862-.559a.964.964,0,0,0-.654.436.156.156,0,0,1-.212.049.15.15,0,0,1-.049-.212,1.255,1.255,0,0,1,.9-.58,1.374,1.374,0,0,1,1.123.678.153.153,0,0,1-.028.215A.15.15,0,0,1,277.264,188.721Z" transform="translate(-240.453 -173.768)"/><path class="d" d="M251.684,156.393a3.114,3.114,0,0,0-3.609-1.111c-1.148-1.934-4.941-3.468-9.821-1.605-5.7,2.173-5.024,8.014-4.751,9.1s2.173,3.938,3.395,4.073a3.224,3.224,0,0,0,1.086-1.9c0-.948,2.581-2.851,5.159-3.668a10.11,10.11,0,0,0,4.438-2.658,4.22,4.22,0,0,0,.586,2.25c.816,1.228,2.038,1.9,2.038,2.311s.678,1.9,1.228,1.9.543-2.173.678-3.124S253.583,158.566,251.684,156.393Z" transform="translate(-211.333 -149.536)"/><path class="d" d="M236.533,166.646h-.018c-1.335-.15-3.25-3.1-3.526-4.189-.015-.068-1.516-6.853,4.849-9.278,4.7-1.792,8.594-.543,9.953,1.559a3.287,3.287,0,0,1,3.658,1.2h0c1.587,1.814.985,3.806.614,5a5.594,5.594,0,0,0-.181.691c-.034.23-.058.54-.086.866-.117,1.446-.233,2.391-.746,2.391-.675,0-1.375-1.621-1.375-2.053,0-.129-.307-.417-.614-.694a8.446,8.446,0,0,1-1.393-1.535,4.058,4.058,0,0,1-.614-1.958,10.636,10.636,0,0,1-4.254,2.428c-2.6.823-5.052,2.679-5.052,3.52a3.345,3.345,0,0,1-1.139,2.016A.154.154,0,0,1,236.533,166.646Zm5.629-14.011a11.878,11.878,0,0,0-4.217.829c-6.117,2.333-4.674,8.852-4.659,8.919.27,1.08,2.075,3.726,3.2,3.947a2.936,2.936,0,0,0,.982-1.737c0-1.065,2.658-2.989,5.267-3.815a9.837,9.837,0,0,0,4.367-2.612.157.157,0,0,1,.172-.043.153.153,0,0,1,.1.144,4.064,4.064,0,0,0,.562,2.167,8.1,8.1,0,0,0,1.347,1.473c.43.4.715.657.715.921,0,.4.663,1.746,1.068,1.746.27,0,.39-1.476.442-2.109.025-.331.052-.645.086-.884a5.715,5.715,0,0,1,.19-.737c.362-1.2.921-3.023-.562-4.708h0a2.947,2.947,0,0,0-3.437-1.068.153.153,0,0,1-.187-.068C246.873,153.793,244.912,152.636,242.162,152.636Z" transform="translate(-210.985 -149.18)"/><path class="e" d="M240.845,184.186h-.028a.153.153,0,0,1-.123-.178,1.929,1.929,0,0,1,1.025-1.246.153.153,0,1,1,.157.264,1.634,1.634,0,0,0-.881,1.04.15.15,0,0,1-.15.12Z" transform="translate(-216.439 -170.264)"/><path class="e" d="M247.173,171.409a.157.157,0,0,1-.144-.1.153.153,0,0,1,.089-.2,25.891,25.891,0,0,1,3.259-.921c.823-.19,1.6-.374,2.25-.58a7.829,7.829,0,0,0,3.809-2.91.15.15,0,0,1,.212-.049.153.153,0,0,1,.046.212,7.98,7.98,0,0,1-3.99,3.042c-.657.209-1.443.393-2.271.586a25.872,25.872,0,0,0-3.22.89.175.175,0,0,1-.04.025Z" transform="translate(-220.824 -159.098)"/><path class="e" d="M239.352,167.415a.144.144,0,0,1-.086-.028.153.153,0,0,1-.043-.212c.307-.476,1.136-.442,2.372-.393a24.269,24.269,0,0,0,3.011-.018,12.586,12.586,0,0,0,5.307-1.921.153.153,0,0,1,.212.043.15.15,0,0,1-.04.212,12.7,12.7,0,0,1-5.454,1.973,24.264,24.264,0,0,1-3.048.018c-1.093-.043-1.881-.077-2.105.258A.15.15,0,0,1,239.352,167.415Z" transform="translate(-215.403 -157.842)"/><path class="e" d="M292.892,175.166h0a.153.153,0,0,1-.147-.16,5.191,5.191,0,0,0-.083-1.133.15.15,0,0,1,.12-.181.153.153,0,0,1,.181.123,5.652,5.652,0,0,1,.089,1.2.153.153,0,0,1-.16.147Z" transform="translate(-252.456 -163.992)"/><path class="e" d="M286.614,166.459a.15.15,0,0,1-.144-.1A3.9,3.9,0,0,0,284.076,164a.157.157,0,0,1-.107-.19.153.153,0,0,1,.19-.1,4.134,4.134,0,0,1,2.6,2.547.153.153,0,0,1-.1.2A.138.138,0,0,1,286.614,166.459Z" transform="translate(-246.429 -157.067)"/><path class="d" d="M250.231,209.07a2.455,2.455,0,0,1-1.157-.239c-1.169-.614-3.247-3.376-3.333-3.5a.153.153,0,0,1,.246-.184c.021.028,2.121,2.833,3.232,3.419s3.2-.23,3.216-.239a.154.154,0,0,1,.11.289A7.519,7.519,0,0,1,250.231,209.07Z" transform="translate(-219.917 -185.747)"/><path class="d" d="M266.828,215.039c0,.279-.344.509-.764.509s-.764-.23-.764-.509.341-.509.764-.509S266.828,214.757,266.828,215.039Z" transform="translate(-233.494 -192.297)"/><path class="e" d="M238.076,169.4s-2.52-6.525,0-10.417c0,0-3.895,4.005-.457,11.334Z" transform="translate(-213.326 -153.796)"/><path class="e" d="M241.749,193.991c.23,1.535-.187,2.86-.936,2.974s-1.535-1.037-1.768-2.569.19-2.86.936-2.974S241.531,192.46,241.749,193.991Z" transform="translate(-215.253 -176.276)"/><path class="d" d="M240.391,196.762c-.8,0-1.584-1.145-1.817-2.7a4.76,4.76,0,0,1,.107-2.09c.193-.614.534-1,.958-1.059.841-.126,1.7,1.056,1.943,2.695a4.806,4.806,0,0,1-.107,2.09c-.2.614-.534,1-.958,1.059A.87.87,0,0,1,240.391,196.762Zm-.614-5.555a.378.378,0,0,0-.083,0c-.307.043-.552.353-.709.847a4.463,4.463,0,0,0-.1,1.952c.212,1.418.939,2.538,1.593,2.437.307-.043.556-.353.712-.847a4.509,4.509,0,0,0,.1-1.952c-.218-1.35-.9-2.431-1.525-2.431Z" transform="translate(-214.923 -175.919)"/><ellipse class="e" cx="1.215" cy="2.802" rx="1.215" ry="2.802" transform="matrix(0.989, -0.149, 0.149, 0.989, 23.107, 15.283)"/><path class="d" d="M239.333,196.646a1.336,1.336,0,0,1-1.019-.761,5.236,5.236,0,0,1-.669-1.964c-.249-1.642.157-3.014.921-3.127s1.535,1.08,1.8,2.719a5.3,5.3,0,0,1-.061,2.075c-.166.614-.47.994-.856,1.053Zm-.675-5.555h-.052c-.5.074-.89,1.228-.657,2.762a4.979,4.979,0,0,0,.614,1.842c.27.427.565.651.819.614s.476-.341.614-.829a4.963,4.963,0,0,0,.055-1.949C239.827,192.079,239.152,191.091,238.658,191.091Z" transform="translate(-214.276 -175.84)"/><path class="b" d="M315.7,235.22l3.539,27.975-7.068-.138Z" transform="translate(-265.979 -206.637)"/><path class="d" d="M318.923,263h0l-7.059-.138a.149.149,0,0,1-.147-.172l3.526-27.837a.154.154,0,0,1,.153-.135h0a.153.153,0,0,1,.15.135l3.539,27.972a.147.147,0,0,1-.037.123A.153.153,0,0,1,318.923,263Zm-6.893-.442,6.718.132-3.376-26.6Z" transform="translate(-265.664 -206.29)"/><g class="n" transform="translate(46.191 28.583)"><path class="i" d="M317.627,280.584l-3.68,2.21.061-4.134-1.838,14.5,7.068.138-.58-4.57-3.085.1,2.738-2.845-.021-.187-3.763,1.289,3.4-4.122Z" transform="translate(-312.17 -265.328)"/></g><path class="e" d="M241.2,208s1.044-.365,1.271.037a10.059,10.059,0,0,1,.485,2.4c-.006.249-.092.476-.565.307s-1.228-1.706-1.228-1.706Z" transform="translate(-216.763 -187.664)"/><path class="d" d="M242.361,210.647a.979.979,0,0,1-.331-.068c-.5-.187-1.179-1.516-1.307-1.783a.181.181,0,0,1,0-.071l.031-1.031a.153.153,0,0,1,.1-.141c.2-.068,1.179-.384,1.455.107a10.012,10.012,0,0,1,.506,2.477.537.537,0,0,1-.19.439A.445.445,0,0,1,242.361,210.647Zm-1.347-1.952a4.587,4.587,0,0,0,1.12,1.6c.212.077.285.043.307.031a.288.288,0,0,0,.058-.193,10.636,10.636,0,0,0-.467-2.317c-.1-.184-.614-.114-.985,0Z" transform="translate(-216.457 -187.349)"/><path class="e" d="M220.8,207.439s.967-6.215.988-6.89.921-1.228,1.35-1.393a19.328,19.328,0,0,1,3.146-.077c.261.009,1.311-.046,1.3.307s-.1.5-.979.645-2.977.252-2.977.252l-.549.829,2.606.5s.614.27.5.691-.414,2.265-.42,2.517-.276.414-.9.819a3.17,3.17,0,0,1-1.228.47s.049,1.268-.307,1.424l-.887.4-.123,7.252-4.005-.454Z" transform="translate(-200.933 -181.569)"/><path class="d" d="M222.018,214.931H222l-3.99-.454a.156.156,0,0,1-.114-.071.153.153,0,0,1,0-.132l2.48-7.256c.049-.307.964-6.215.982-6.857.021-.773,1.007-1.378,1.452-1.535a17.793,17.793,0,0,1,3.2-.086h.138a2,2,0,0,1,1.228.224.307.307,0,0,1,.089.224c0,.485-.252.654-1.108.795-.792.129-2.523.227-2.916.249l-.378.571,2.379.454h.034c.028,0,.718.328.589.866-.107.451-.411,2.265-.417,2.489,0,.307-.285.5-.887.89l-.08.052a3.419,3.419,0,0,1-1.163.47c0,.417-.031,1.271-.4,1.436l-.795.356-.123,7.154a.16.16,0,0,1-.052.114A.153.153,0,0,1,222.018,214.931Zm-3.794-.724,3.643.417.12-7.084a.153.153,0,0,1,.092-.135l.884-.4c.153-.071.236-.73.215-1.28a.153.153,0,0,1,.135-.16,3,3,0,0,0,1.169-.445l.083-.052c.525-.344.74-.488.746-.641,0-.282.335-2.148.427-2.55.061-.258-.307-.467-.4-.506l-2.587-.494a.157.157,0,0,1-.114-.092.16.16,0,0,1,0-.144l.546-.829a.163.163,0,0,1,.123-.068c.018,0,2.1-.107,2.959-.249s.844-.273.85-.5c-.028-.046-.193-.132-.988-.132h-.166a18.4,18.4,0,0,0-3.088.068c-.414.147-1.228.681-1.249,1.255-.021.675-.948,6.654-.988,6.909v.025Zm2.274-7.139Z" transform="translate(-200.629 -181.198)"/><path class="d" d="M235.789,209.249h-.028l-3.161-.568a.156.156,0,1,1,.055-.307l3.161.571a.154.154,0,0,1-.028.307Z" transform="translate(-210.742 -188.029)"/><path class="d" d="M235.88,213.72h-.034l-2.6-.632a.157.157,0,1,1,.071-.307l2.606.632a.147.147,0,0,1,.111.184A.15.15,0,0,1,235.88,213.72Z" transform="translate(-211.192 -191.082)"/><path class="d" d="M234.688,219.624a.147.147,0,0,1-.129-.071c-.111-.172-.359-.592-.276-.823a.246.246,0,0,1,.163-.153c.242-.074.807-.218.807-.218l.077.307s-.5.129-.758.2a1.7,1.7,0,0,0,.246.528.153.153,0,0,1-.046.212A.172.172,0,0,1,234.688,219.624Z" transform="translate(-211.985 -194.951)"/><path class="b" d="M201.774,237.87,206.1,239.5s-3.014,18.918-3.738,20.4a6.122,6.122,0,0,1-4.6,3.419c-2.185.209-3.766-2.148-3.83-4.625S201.774,237.87,201.774,237.87Z" transform="translate(-184.028 -208.473)"/><path class="d" d="M197.113,263.121a3.045,3.045,0,0,1-2.035-.807,5.63,5.63,0,0,1-1.679-3.99c-.068-2.471,7.544-20.146,7.866-20.9a.153.153,0,0,1,.2-.08l4.328,1.63a.15.15,0,0,1,.1.166c-.123.773-3.026,18.961-3.757,20.447A6.286,6.286,0,0,1,197.4,263.1,1.24,1.24,0,0,1,197.113,263.121Zm4.377-25.425c-.718,1.676-7.845,18.338-7.783,20.631a5.3,5.3,0,0,0,1.578,3.757,2.692,2.692,0,0,0,2.084.718,5.98,5.98,0,0,0,4.49-3.333c.678-1.384,3.444-18.6,3.708-20.238Z" transform="translate(-183.661 -208.103)"/><g class="o" transform="translate(9.901 29.397)"><path class="i" d="M198.214,279.812a19.645,19.645,0,0,1-3.293,1.32c-.39,1.133-.687,2.093-.847,2.781l2.047-.258a22.835,22.835,0,0,0,4.3-.921,18.85,18.85,0,0,1-6.387,2.44h-.071c.2,2.326,1.722,4.463,3.809,4.263a6.1,6.1,0,0,0,4.6-3.419,103.929,103.929,0,0,0,2.1-10.487,35.911,35.911,0,0,1-6.255,4.281Z" transform="translate(-193.95 -263.972)"/></g></g></g><g transform="translate(78.71 80.957)"><path class="d" d="M336.648,120.01v-.841a.448.448,0,0,0-.448-.448h-.648a3.933,3.933,0,0,0-.5-1.2l.457-.46a.451.451,0,0,0,0-.635l-.592-.592a.451.451,0,0,0-.635,0l-.46.457a3.935,3.935,0,0,0-1.2-.5v-.648a.448.448,0,0,0-.448-.448h-.841a.448.448,0,0,0-.448.448v.648a3.935,3.935,0,0,0-1.2.5l-.46-.457a.451.451,0,0,0-.635,0l-.592.592a.451.451,0,0,0,0,.635l.457.46a3.854,3.854,0,0,0-.494,1.2h-.651a.448.448,0,0,0-.448.448v.841a.448.448,0,0,0,.448.448h.651a3.855,3.855,0,0,0,.494,1.2l-.457.46a.451.451,0,0,0,0,.635l.592.592a.451.451,0,0,0,.635,0l.46-.457a3.855,3.855,0,0,0,1.206.5v.651a.448.448,0,0,0,.448.448h.841a.448.448,0,0,0,.448-.448v-.651a3.855,3.855,0,0,0,1.2-.494l.46.457a.451.451,0,0,0,.635,0l.574-.577a.451.451,0,0,0,0-.635l-.457-.46a3.933,3.933,0,0,0,.5-1.2h.648a.448.448,0,0,0,.457-.47Zm-4.693,1.492a1.711,1.711,0,1,1,0,.009Z" transform="translate(-250.706 -105.008)"/><path class="d" d="M86.082,242.422v-.632a.341.341,0,0,0-.341-.341h-.5a2.955,2.955,0,0,0-.374-.9l.347-.344a.338.338,0,0,0,0-.479l-.448-.448a.338.338,0,0,0-.479,0l-.347.344a2.889,2.889,0,0,0-.9-.371v-.491a.338.338,0,0,0-.338-.338H82.08a.341.341,0,0,0-.341.338v.491a2.888,2.888,0,0,0-.9.371l-.347-.344a.338.338,0,0,0-.479,0l-.445.448a.335.335,0,0,0,0,.479l.344.344a2.955,2.955,0,0,0-.374.9h-.488a.341.341,0,0,0-.338.341v.632a.338.338,0,0,0,.338.338h.488a2.894,2.894,0,0,0,.374.9l-.344.347a.335.335,0,0,0,0,.479l.46.448a.338.338,0,0,0,.479,0l.347-.347a2.894,2.894,0,0,0,.9.374v.488a.341.341,0,0,0,.341.341h.632a.341.341,0,0,0,.338-.341v-.488a2.894,2.894,0,0,0,.9-.374l.347.347a.338.338,0,0,0,.479,0l.448-.448a.338.338,0,0,0,0-.479l-.347-.347a2.894,2.894,0,0,0,.374-.9h.488A.341.341,0,0,0,86.082,242.422Zm-3.539,1.123a1.449,1.449,0,1,1,1.292-1.292A1.449,1.449,0,0,1,82.543,243.545Z" transform="translate(-78.71 -190.756)"/><path class="d" d="M392.672,214.921v-.632a.341.341,0,0,0-.341-.341h-.488a2.9,2.9,0,0,0-.374-.9l.347-.344a.338.338,0,0,0,0-.479l-.448-.448a.338.338,0,0,0-.479,0l-.347.344a2.968,2.968,0,0,0-.9-.374v-.506a.338.338,0,0,0-.338-.338h-.635a.338.338,0,0,0-.338.338v.488a2.968,2.968,0,0,0-.9.374l-.347-.344a.338.338,0,0,0-.479,0l-.445.448a.335.335,0,0,0,0,.479l.344.344a2.894,2.894,0,0,0-.374.9h-.488a.341.341,0,0,0-.338.341v.651a.338.338,0,0,0,.338.338h.491a2.894,2.894,0,0,0,.374.9l-.344.347a.335.335,0,0,0,0,.479l.445.448a.338.338,0,0,0,.479,0l.347-.347a2.894,2.894,0,0,0,.9.374v.488a.341.341,0,0,0,.338.341h.635a.341.341,0,0,0,.338-.341v-.488a2.894,2.894,0,0,0,.9-.374l.347.347a.338.338,0,0,0,.479,0l.448-.448a.338.338,0,0,0,0-.479l-.35-.359a2.894,2.894,0,0,0,.374-.9h.488a.341.341,0,0,0,.341-.325Zm-3.539,1.123a1.289,1.289,0,1,0,0-.006Z" transform="translate(-291.202 -171.682)"/><path class="d" d="M232.265,85.17v-.325a.172.172,0,0,0-.175-.172h-.249a1.534,1.534,0,0,0-.193-.463l.178-.175a.175.175,0,0,0,0-.246l-.23-.23a.172.172,0,0,0-.242,0l-.178.178a1.535,1.535,0,0,0-.463-.193v-.249a.175.175,0,0,0-.172-.175h-.325a.175.175,0,0,0-.172.175v.249a1.513,1.513,0,0,0-.463.193l-.178-.178a.175.175,0,0,0-.246,0l-.227.23a.175.175,0,0,0,0,.246l.175.175a1.535,1.535,0,0,0-.19.463h-.252a.172.172,0,0,0-.172.172v.325a.175.175,0,0,0,.172.175h.252a1.488,1.488,0,0,0,.19.46l-.175.178a.175.175,0,0,0,0,.246l.227.23a.175.175,0,0,0,.246,0l.178-.178a1.434,1.434,0,0,0,.463.19v.252a.172.172,0,0,0,.172.172h.325a.172.172,0,0,0,.172-.172v-.264a1.464,1.464,0,0,0,.463-.19l.178.178a.172.172,0,0,0,.242,0l.23-.23a.175.175,0,0,0,0-.246l-.178-.178a1.5,1.5,0,0,0,.193-.46h.249A.175.175,0,0,0,232.265,85.17Zm-1.811.577a.743.743,0,1,1,.648-.663A.743.743,0,0,1,230.454,85.747Z" transform="translate(-182.52 -83.12)"/><path class="d" d="M107.437,159.82H105.35v2.087h2.087Zm-1.663.424H107v1.243h-1.228Z" transform="translate(-97.174 -136.279)"/><path class="d" d="M382.1,292.71H380V294.8h2.087Zm-1.667.424h1.243v1.243H380.43Z" transform="translate(-287.529 -228.383)"/><path class="d" d="M280.09,97.92H278v2.087h2.087Zm-1.667.42h1.243v1.228h-1.243Z" transform="translate(-216.834 -93.378)"/><path class="d" d="M103.437,268.41H101.35v2.09h2.087Zm-1.667.424H103v1.228H101.77Z" transform="translate(-94.401 -211.541)"/><path class="p" d="M303.858,145a1.255,1.255,0,1,0,1.252,1.255A1.255,1.255,0,0,0,303.858,145Zm0,2.007a.746.746,0,1,0,0-.012Z" transform="translate(-233.884 -126.008)"/></g><g transform="translate(97.183 87.458)"><path class="d" d="M168.088,122.678l-2.811-3.892a1.952,1.952,0,0,0,1.946-1.946V106.246a1.955,1.955,0,0,0-1.946-1.946H140.846a1.952,1.952,0,0,0-1.946,1.946v10.595a1.949,1.949,0,0,0,1.946,1.946h21.125Z" transform="translate(-138.9 -104.3)"/><path class="b" d="M159.972,123.8a1.191,1.191,0,1,0-1.191,1.191A1.191,1.191,0,0,0,159.972,123.8Z" transform="translate(-151.854 -116.99)"/><path class="b" d="M182.862,123.8a1.188,1.188,0,1,0-.347.842,1.191,1.191,0,0,0,.347-.842Z" transform="translate(-167.718 -116.99)"/><path class="b" d="M205.762,123.8a1.191,1.191,0,1,0-1.191,1.191A1.191,1.191,0,0,0,205.762,123.8Z" transform="translate(-183.59 -116.99)"/></g></g></svg>