<svg xmlns="http://www.w3.org/2000/svg" width="568.13" height="393.57" viewBox="0 0 568.13 393.57"><defs><style>.a{fill:#ebebeb;}.b,.e{fill:#e0e0e0;}.c{fill:#f5f5f5;}.d{opacity:0.3;}.e{opacity:0.12;}.f{fill:#263238;}.g{fill:#f05234;}.h{fill:#fafafa;}.i{fill:#fff;}.j{fill:#455a64;}.k{fill:#fa6a18;}.l{fill:#ffbe9d;}.m{fill:#eb996e;}.n{opacity:0.2;}</style></defs><g transform="translate(-20.79 -79.56)"><path class="a" d="M65.89,396.12a21.73,21.73,0,0,1,13.46-1.64c2.44.41,5,1.14,6.65,3s2,5.06.07,6.64a6.34,6.34,0,0,1-4.19,1.06c-3.56,0-7.51-.67-10.35,1.47-1.62,1.23-2.7,3.26-4.64,3.86a4.59,4.59,0,0,1-5-2.25,7.85,7.85,0,0,1-.58-5.78,8.85,8.85,0,0,1,4.58-6.36Z"/><path class="a" d="M56.51,378c2.51,3.58,7.37,2.39,9.63.21s3.21-5.34,4.07-8.36c2-6.89,4-14.12,2.51-21.14A11.63,11.63,0,0,0,70,343a6.12,6.12,0,0,0-5.79-2c-2.45.65-4,3-5.08,5.34a50.43,50.43,0,0,0-5,21.62c0,3.48.4,7.14,2.36,10"/><path class="a" d="M49.64,383.14c2.72-3.22,3.23-7.93,2-12a23,23,0,0,0-7.09-10.28,38.37,38.37,0,0,0-12.69-7.5,13.731,13.731,0,0,0-5.71-1,6,6,0,0,0-4.8,2.9c-1.33,2.55-.05,5.64,1.34,8.17A97,97,0,0,0,31,376.18c2.5,3.23,5.37,6.41,9.18,7.86S48,385.33,50,382.69"/><path class="b" d="M56.34,431.94a6.9,6.9,0,0,0,.23-1.62c.12-1.18.26-2.67.43-4.43a64.616,64.616,0,0,1,1-6.51,50.359,50.359,0,0,1,2.36-7.67,28.561,28.561,0,0,1,3.92-6.95,14.7,14.7,0,0,1,5-4.12,13.89,13.89,0,0,1,4.17-1.3,7.169,7.169,0,0,0,1.62-.23,7.782,7.782,0,0,0-1.65,0A12.589,12.589,0,0,0,69,400.22a14.61,14.61,0,0,0-5.23,4.15,27.749,27.749,0,0,0-4.06,7.09,46.83,46.83,0,0,0-2.35,7.8,55.811,55.811,0,0,0-.86,6.58c-.14,1.88-.19,3.41-.22,4.46A8.67,8.67,0,0,0,56.34,431.94Z"/><path class="b" d="M56.65,428.53a3.13,3.13,0,0,0,0-.75v-2.16c0-1.87,0-4.58.09-7.92.17-6.68.74-13.88,1.86-24,1-9.54,2.46-20.64,4-27.86.32-1.64.65-3.12.95-4.41s.54-2.42.77-3.32.37-1.55.51-2.1a3.171,3.171,0,0,0,.13-.74,3.1,3.1,0,0,0-.26.7c-.17.55-.37,1.23-.63,2.07s-.56,2-.89,3.3-.69,2.76-1,4.4A242.812,242.812,0,0,0,58,391.57c-1.11,10.16-1.62,19.42-1.66,26.12,0,3.35,0,6.07.12,7.94,0,.87.09,1.59.13,2.15a3.63,3.63,0,0,0,.06.75Z"/><path class="b" d="M56.69,410.68a13.851,13.851,0,0,0,0-2.25,60.679,60.679,0,0,0-.69-6.1,81.743,81.743,0,0,0-2-8.89,74.189,74.189,0,0,0-3.72-10.52,56,56,0,0,0-10.92-17,25.766,25.766,0,0,0-2.57-2.38c-.39-.34-.74-.67-1.09-.93l-1-.69a14.571,14.571,0,0,0-1.89-1.21A67.209,67.209,0,0,1,39,366.25a59.291,59.291,0,0,1,10.64,16.94,81.607,81.607,0,0,1,3.74,10.42,88.765,88.765,0,0,1,2.11,8.8c.47,2.53.74,4.6.9,6a15.749,15.749,0,0,0,.3,2.27Z"/><path class="b" d="M39.44,442.17l1.79,24.51H72.71l1.79-24.51Z"/><rect class="b" width="41.86" height="9.66" transform="translate(36.4 432.51)"/><path class="a" d="M36.4,465.74v2.68H77.57v-2.68Z"/><path class="b" d="M40.29,473.13l-1.92-4.71h37.7l-2.25,4.71Z"/><path class="c" d="M73.92,450.18l-.15.23c-.13.16-.28.37-.47.62l-1.83,2.35-.09.1-.08-.11-4.5-6.23h.26l-4.44,6.28-.14.2-.15-.19c-1.64-1.94-3.42-4.06-5.26-6.26h.3l-.29.36-4.7,5.9-.16.2-.15-.21c-1.59-2.26-3.09-4.37-4.44-6.28h.26l-5.46,6.22-.1.11-.07-.12c-.73-1.21-1.3-2.18-1.72-2.88l-.44-.76a1.842,1.842,0,0,1-.13-.27,1.6,1.6,0,0,1,.18.24l.49.73,1.8,2.83h-.17l5.37-6.3.14-.16.12.17,4.48,6.25h-.3l4.69-5.91.29-.36.15-.19.16.18,5.24,6.27h-.29c1.62-2.26,3.12-4.37,4.48-6.25l.13-.19.13.19,4.41,6.3h-.16L73.22,451l.51-.59C73.85,450.24,73.91,450.17,73.92,450.18Z"/><path class="c" d="M74.94,442c0,.11-7.89.2-17.62.2s-17.62-.09-17.62-.2,7.89-.2,17.62-.2S74.94,441.9,74.94,442Z"/><path class="c" d="M76.53,468.68c0,.11-8.57.2-19.15.2s-19.15-.09-19.15-.2,8.57-.19,19.15-.19S76.53,468.57,76.53,468.68Z"/><rect class="c" width="88.44" height="85.57" transform="translate(348.95 386.12)"/><path class="b" d="M355.81,464.36l24.46-44.03,20.01,28.14,12.16-14.94,18.09,30.83Z"/><path class="b" d="M408.81,411.77a6.37,6.37,0,1,1-6.37-6.37,6.37,6.37,0,0,1,6.37,6.37Z"/><g class="d"><path class="b" d="M430.53,464.6v-5.2c0-3.39-.05-8.3-.09-14.53-.05-12.5-.11-30.3-.19-51.67l.36.37-74.72.06c-.1.08.79-.8.42-.41h0v71.37l-.36-.37,54,.19,15.24.09,4,.05h1.05a2.634,2.634,0,0,1,.36,0,1.7,1.7,0,0,1-.32,0h-5l-15.16.1-54.26.19h-.37V393.23h0l.43-.44,74.72.06h.37v.36c-.08,21.47-.14,39.34-.19,51.9,0,6.19-.07,11.07-.09,14.45,0,1.62,0,2.89-.05,3.78v1A1,1,0,0,1,430.53,464.6Z"/></g><rect class="e" width="554.15" height="272.77" transform="translate(34.77 79.56)"/><path class="f" d="M488.12,472.09c0,.15-104.38.26-233.11.26s-233.13-.11-233.13-.26,104.36-.26,233.13-.26S488.12,472,488.12,472.09Z"/><path class="g" d="M434.5,388.84a11.66,11.66,0,0,1,6.13,6.78,20.609,20.609,0,0,1,.91,9.27c-.61,6-4,12.15-7.58,17-5.13-4.36-6.39-12.07-6.78-16-.62-6.24,2.05-17.9,7.32-17"/><path class="g" d="M440,431.76a10,10,0,0,1,3.1-9.5,13.22,13.22,0,0,1,9.72-3.16c1.61.1,3.36.55,4.3,1.87a4.23,4.23,0,0,1,.12,4.31,8.56,8.56,0,0,1-3.16,3.19c-4.36,2.81-9.09,4.72-14.08,3.29"/><path class="g" d="M431.49,435.26a23.28,23.28,0,0,0-13.41-16.53c-1.73-.74-4-1.17-5.3.14s-.94,3.57-.18,5.3a19.91,19.91,0,0,0,18.79,11.59"/><path class="f" d="M433.05,450.67a7,7,0,0,1,.19-1.26c.14-.8.37-2,.69-3.39a43.938,43.938,0,0,1,3.71-10.79,21.65,21.65,0,0,1,7.62-8.43,14.513,14.513,0,0,1,3.15-1.45,7.921,7.921,0,0,1,.91-.25,1.342,1.342,0,0,1,.33-.06,22.446,22.446,0,0,0-4.24,2,22.2,22.2,0,0,0-7.41,8.38,47.581,47.581,0,0,0-3.8,10.67l-.81,3.35a11.378,11.378,0,0,1-.34,1.23Z"/><path class="f" d="M433.25,397.9a2.071,2.071,0,0,1,.07.54c0,.39.06.91.1,1.55.09,1.35.19,3.3.29,5.71.21,4.82.41,11.49.47,18.86s0,14-.18,18.86c-.07,2.42-.14,4.37-.2,5.72,0,.64-.06,1.16-.08,1.55a3.735,3.735,0,0,1-.06.54,3.846,3.846,0,0,1,0-.54c0-.4,0-.91,0-1.56,0-1.39.05-3.33.08-5.71.06-4.83.12-11.49.06-18.86s-.21-14-.35-18.85c-.07-2.38-.12-4.32-.16-5.71v-1.56A2.82,2.82,0,0,1,433.25,397.9Z"/><path class="f" d="M419.21,424.33a6.72,6.72,0,0,1,1.11.49,9.378,9.378,0,0,1,1.26.67,17.136,17.136,0,0,1,1.59,1l.89.64c.31.23.61.5.92.76.65.52,1.26,1.15,1.93,1.8a29.669,29.669,0,0,1,3.64,4.81A28.672,28.672,0,0,1,433,440a23.451,23.451,0,0,1,.66,2.55c.07.4.17.79.22,1.17s.09.74.14,1.09c.1.7.1,1.33.13,1.89a10.886,10.886,0,0,1,0,1.43,8.536,8.536,0,0,1-.1,1.21c-.1,0,.06-1.74-.29-4.49-.05-.35-.11-.71-.16-1.08s-.16-.75-.25-1.15c-.15-.8-.42-1.63-.68-2.51a27.08,27.08,0,0,0-6-10.17c-.65-.65-1.24-1.29-1.87-1.81-.31-.26-.6-.53-.9-.76l-.86-.66C420.76,425.1,419.16,424.41,419.21,424.33Z"/><path class="f" d="M443.43,472.09H425.06l-3.75-26.92h25.62Z"/><path class="h" d="M445.28,457.58c0,.14-5,.26-11.08.26s-11.08-.12-11.08-.26,5-.26,11.08-.26S445.28,457.44,445.28,457.58Z"/><path class="h" d="M445.28,459.18c0,.14-5,.26-11.08.26s-11.08-.12-11.08-.26,5-.26,11.08-.26S445.28,459,445.28,459.18Z"/><path class="f" d="M388.59,472l-140.08.06a2.13,2.13,0,0,1-2.14-2.13V385.32a2.13,2.13,0,0,1,2.14-2.13l140.08-.07a2.14,2.14,0,0,1,2.13,2.14v84.6a2.14,2.14,0,0,1-2.13,2.14Z"/><path class="i" d="M320.03,418.68l11.85,6.37-11.37,7.49-11.38,7.5-.47-13.87-.48-13.87Z"/><path class="i" d="M380.29,463.15c0,.15-27.65.28-61.75.29s-61.75-.09-61.75-.23,27.64-.27,61.75-.29S380.29,463,380.29,463.15Z"/><path class="i" d="M259,463.21a1.56,1.56,0,1,1-1.56-1.56,1.56,1.56,0,0,1,1.56,1.56Z"/><path class="j" d="M366.7,471.78l-148.76.07a2.14,2.14,0,0,1-2.14-2.14V379.76a2.13,2.13,0,0,1,2.14-2.13l148.76-.07a2.14,2.14,0,0,1,2.14,2.13v90a2.13,2.13,0,0,1-2.14,2.09Z"/><path class="i" d="M293.89,415.22l12.57,6.75-12.06,7.95-12.06,7.95-.5-14.7-.51-14.71Z"/><path class="i" d="M357.78,462.37c0,.15-29.31.28-65.46.29s-65.47-.08-65.47-.23,29.31-.27,65.47-.29S357.78,462.23,357.78,462.37Z"/><path class="i" d="M229.13,462.43a1.65,1.65,0,1,1-1.65-1.65,1.65,1.65,0,0,1,1.65,1.65Z"/><rect class="g" width="87.81" height="54.06" rx="2.14" transform="translate(223.96 418.01)"/><path class="i" d="M268.78,439.6l7.21,3.87-6.92,4.56-6.92,4.57-.29-8.44-.29-8.44Z"/><path class="i" d="M305.44,466.66c0,.14-16.82.26-37.56.27s-37.57-.1-37.57-.24,16.82-.27,37.57-.28S305.44,466.51,305.44,466.66Z"/><path class="i" d="M231.62,466.69a.95.95,0,1,1-.94-.95.95.95,0,0,1,.94.95Z"/><path class="f" d="M453.49,353.91c0-1.93-.08-96.77-.21-250.5l.21.24-393.19.07h0l.28-.31v250.5l-.26-.29,393.22.29-393.22.29H60V103.1h.32l393.19.07h.22v.24C453.58,257.14,453.5,352,453.49,353.91Z"/><path class="f" d="M453.72,118.43c0,.15-88.14.28-196.83.28S60,118.58,60,118.43s88.12-.29,196.85-.29S453.72,118.27,453.72,118.43Z"/><path class="f" d="M73,109.15a2.54,2.54,0,1,1-2.54-2.54A2.54,2.54,0,0,1,73,109.15Z"/><path class="f" d="M80.79,109.15a2.54,2.54,0,1,1-2.54-2.54,2.54,2.54,0,0,1,2.54,2.54Z"/><path class="f" d="M88.54,109.15A2.54,2.54,0,1,1,86,106.61a2.54,2.54,0,0,1,2.54,2.54Z"/><rect class="g" width="81.09" height="78.46" transform="translate(86.37 253.4)"/><g class="d"><path d="M92.66,325.15l22.43-40.38,18.35,25.81,11.15-13.71,16.59,28.28Z"/></g><g class="d"><path d="M141.26,276.92a5.84,5.84,0,1,1-5.84-5.83A5.84,5.84,0,0,1,141.26,276.92Z"/></g><g class="d"><path d="M161.18,325.36a1.14,1.14,0,0,1,0-.32c0-.23,0-.53,0-.91V320.6c0-3.11,0-7.61-.09-13.33,0-11.46-.1-27.78-.17-47.37l.34.33-68.52.06.38-.38v65.45l-.33-.33,49.54.17,14,.09h5.05a1,1,0,0,1-.3,0h-4.57l-13.9.09-49.75.17h-.34V259.91l.39-.39,68.52.05h.33v.33c-.07,19.68-.13,36.07-.17,47.58,0,5.69-.07,10.16-.09,13.25v4.35a2.621,2.621,0,0,1-.32.28Z"/></g><rect class="k" width="54.89" height="2.76" transform="translate(178.71 268.33)"/><path class="f" d="M252.68,280.17c0,.16-16.49.29-36.82.29s-36.82-.13-36.82-.29,16.48-.28,36.82-.28S252.68,280,252.68,280.17Z"/><path class="f" d="M252.68,287.87c0,.16-16.49.29-36.82.29S179,288,179,287.87s16.48-.28,36.82-.28S252.68,287.72,252.68,287.87Z"/><path class="f" d="M252.68,295.57c0,.16-16.49.28-36.82.28s-36.82-.12-36.82-.28,16.48-.28,36.82-.28S252.68,295.41,252.68,295.57Z"/><path class="f" d="M252.68,303.27c0,.15-16.49.28-36.82.28s-36.82-.13-36.82-.28,16.48-.28,36.82-.28S252.68,303.11,252.68,303.27Z"/><path class="f" d="M252.68,311c0,.15-16.49.28-36.82.28S179,311.12,179,311s16.48-.29,36.82-.29S252.68,310.81,252.68,311Z"/><path class="f" d="M216.86,318c0,.15-8.47.28-18.91.28S179,318.19,179,318s8.47-.29,18.91-.29S216.86,317.88,216.86,318Z"/><rect class="g" width="54.89" height="2.76" transform="translate(356.02 263.68)"/><path class="f" d="M430,275.53c0,.16-16.49.28-36.82.28s-36.82-.12-36.82-.28,16.48-.28,36.82-.28S430,275.37,430,275.53Z"/><path class="f" d="M430,283.23c0,.16-16.49.28-36.82.28s-36.82-.12-36.82-.28,16.48-.28,36.82-.28S430,283.07,430,283.23Z"/><path class="f" d="M430,290.93c0,.15-16.49.28-36.82.28s-36.82-.13-36.82-.28,16.48-.29,36.82-.29S430,290.77,430,290.93Z"/><path class="f" d="M430,298.63c0,.15-16.49.28-36.82.28s-36.82-.13-36.82-.28,16.48-.29,36.82-.29S430,298.47,430,298.63Z"/><path class="f" d="M430,306.32c0,.16-16.49.29-36.82.29s-36.82-.13-36.82-.29,16.48-.28,36.82-.28S430,306.17,430,306.32Z"/><path class="f" d="M394.17,313.4c0,.15-8.47.28-18.91.28s-18.91-.13-18.91-.28,8.47-.29,18.91-.29S394.17,313.24,394.17,313.4Z"/><path class="f" d="M344.68,334.51a6.92,6.92,0,0,1,2.72-.28c-.57.57-.16.16-.29.28h0v-1.02a5.626,5.626,0,0,1,.06-.87c.05-.49.12-.79.2-.79s.15.3.2.79a7.246,7.246,0,0,0,.06.87v1h0l-.28.29a6.6,6.6,0,0,1-2.67-.27Z"/><path class="f" d="M333,334.51a15.26,15.26,0,0,1,5.82,0A14.75,14.75,0,0,1,333,334.51Z"/><path class="f" d="M321.4,334.51a15.26,15.26,0,0,1,5.82,0A14.75,14.75,0,0,1,321.4,334.51Z"/><path class="f" d="M309.76,334.51a15.26,15.26,0,0,1,5.82,0A14.75,14.75,0,0,1,309.76,334.51Z"/><path class="f" d="M298.12,334.51a15.26,15.26,0,0,1,5.82,0A14.75,14.75,0,0,1,298.12,334.51Z"/><path class="f" d="M286.48,334.51a15.26,15.26,0,0,1,5.82,0A14.75,14.75,0,0,1,286.48,334.51Z"/><path class="f" d="M274.84,334.51a15.26,15.26,0,0,1,5.82,0A14.75,14.75,0,0,1,274.84,334.51Z"/><path class="f" d="M266.3,331.8a6.57,6.57,0,0,1,.29,2.71l-.29-.28h1.06l.87.06c.49.06.79.13.79.2s-.3.15-.79.21l-.87.06H266.3c-.12-.13.29.28-.28-.29a6.89,6.89,0,0,1,.28-2.67Z"/><path class="f" d="M266.3,320.56a13.76,13.76,0,0,1,0,5.62,14.24,14.24,0,0,1,0-5.62Z"/><path class="f" d="M266.3,309.33a13.76,13.76,0,0,1,0,5.62,14.24,14.24,0,0,1,0-5.62Z"/><path class="f" d="M266.3,298.1a13.71,13.71,0,0,1,0,5.61,14.192,14.192,0,0,1,0-5.61Z"/><path class="f" d="M266.3,286.86a13.76,13.76,0,0,1,0,5.62,14.24,14.24,0,0,1,0-5.62Z"/><path class="f" d="M266.3,275.63a13.71,13.71,0,0,1,0,5.61,14.189,14.189,0,0,1,0-5.61Z"/><path class="f" d="M266.3,264.39a13.76,13.76,0,0,1,0,5.62A14.239,14.239,0,0,1,266.3,264.39Z"/><path class="f" d="M269,256.06a6.74,6.74,0,0,1-2.72.28l.29-.28h0v1.03a3.783,3.783,0,0,1-.06.86c-.05.49-.12.8-.2.8s-.15-.31-.2-.8a4.549,4.549,0,0,0-.06-.86,1.378,1.378,0,0,1,0-.51v-.52h0l.28-.28a6.74,6.74,0,0,1,2.67.28Z"/><path class="f" d="M280.66,256.06a15.261,15.261,0,0,1-5.82,0,15.26,15.26,0,0,1,5.82,0Z"/><path class="f" d="M292.3,256.06a15.261,15.261,0,0,1-5.82,0,15.26,15.26,0,0,1,5.82,0Z"/><path class="f" d="M303.94,256.06a15.261,15.261,0,0,1-5.82,0,15.26,15.26,0,0,1,5.82,0Z"/><path class="f" d="M315.58,256.06a15.261,15.261,0,0,1-5.82,0,15.26,15.26,0,0,1,5.82,0Z"/><path class="f" d="M327.22,256.06a15.261,15.261,0,0,1-5.82,0,15.26,15.26,0,0,1,5.82,0Z"/><path class="f" d="M338.86,256.06a15.261,15.261,0,0,1-5.82,0,15.26,15.26,0,0,1,5.82,0Z"/><path class="f" d="M347.4,258.78a6.64,6.64,0,0,1-.29-2.72l.29.28h-1.06a3.874,3.874,0,0,1-.87-.06c-.49-.05-.79-.12-.79-.2s.3-.15.79-.2a7.249,7.249,0,0,0,.87-.06h1.06l.28.28a7,7,0,0,1-.28,2.68Z"/><path class="f" d="M347.4,270a13.76,13.76,0,0,1,0-5.62,14.241,14.241,0,0,1,0,5.62Z"/><path class="f" d="M347.4,281.24a13.71,13.71,0,0,1,0-5.61,14.191,14.191,0,0,1,0,5.61Z"/><path class="f" d="M347.4,292.48a13.76,13.76,0,0,1,0-5.62,14.24,14.24,0,0,1,0,5.62Z"/><path class="f" d="M347.4,303.71a13.71,13.71,0,0,1,0-5.61,14.189,14.189,0,0,1,0,5.61Z"/><path class="f" d="M347.4,315a13.76,13.76,0,0,1,0-5.62,14.24,14.24,0,0,1,0,5.62Z"/><path class="f" d="M347.4,326.18a13.76,13.76,0,0,1,0-5.62,14.24,14.24,0,0,1,0,5.62Z"/><path class="g" d="M322.51,181.36v-2.25c0-1.47,0-3.59-.05-6.3,0-5.45-.07-13.27-.11-22.82l.2.2-50.94.06c-.06.05.49-.49.25-.26h0v31.35l-.25-.24,36.62.12,10.53.07h3.54a1.329,1.329,0,0,1,.26,0h-3.7l-10.47.07-36.78.12h-.24V150h0c-.23.23.32-.32.27-.26l50.94.05h.21V150c-.05,9.61-.09,17.46-.11,22.95,0,2.69,0,4.79-.05,6.25v1.63A.856.856,0,0,1,322.51,181.36Z"/><path class="g" d="M297.35,163.07l4.18,2.25-4.01,2.64-4.02,2.64-.16-4.89-.17-4.89Z"/><path class="g" d="M318.83,178.22c0,.15-9.76.26-21.79.26s-21.8-.11-21.8-.26S285,178,297,178,318.83,178.08,318.83,178.22Z"/><circle class="g" cx="0.55" cy="0.55" r="0.55" transform="translate(274.9 177.67)"/><path class="g" d="M0,0H54.89V2.76H0Z" transform="translate(333.96 153.66)"/><path class="f" d="M407.93,165.51c0,.15-16.48.28-36.81.28s-36.82-.13-36.82-.28,16.48-.29,36.82-.29S407.93,165.35,407.93,165.51Z"/><path class="f" d="M407.93,173.2c0,.16-16.48.29-36.81.29s-36.82-.13-36.82-.29,16.48-.28,36.82-.28S407.93,173.05,407.93,173.2Z"/><path class="g" d="M322.51,227.43v-2.24c0-1.47,0-3.59-.05-6.3,0-5.45-.07-13.27-.11-22.82l.2.2-50.94.06c-.06,0,.49-.5.25-.26h0v31.36l-.25-.24,36.62.12,10.53.07h.1l-10.47.07-36.78.11h-.24V195.97h0c-.23.23.32-.32.27-.26l50.94.05h.21v.21c-.05,9.61-.09,17.46-.11,22.94,0,2.69,0,4.8-.05,6.26v1.62A5.237,5.237,0,0,1,322.51,227.43Z"/><path class="g" d="M297.35,209.14l4.18,2.25-4.01,2.65-4.02,2.64-.16-4.89-.17-4.9Z"/><path class="g" d="M318.83,224.3c0,.14-9.76.26-21.79.26s-21.8-.12-21.8-.26S285,224,297,224,318.83,224.16,318.83,224.3Z"/><circle class="g" cx="0.55" cy="0.55" r="0.55" transform="translate(274.9 223.75)"/><path class="g" d="M0,0H54.89V2.76H0Z" transform="translate(333.96 199.74)"/><path class="f" d="M407.93,211.58c0,.16-16.48.29-36.81.29s-36.82-.13-36.82-.29,16.48-.28,36.82-.28S407.93,211.43,407.93,211.58Z"/><path class="f" d="M407.93,219.28c0,.16-16.48.29-36.81.29s-36.82-.13-36.82-.29,16.48-.28,36.82-.28S407.93,219.13,407.93,219.28Z"/><path class="b" d="M244.77,238.48a6.31,6.31,0,0,1,2.5-.26l-.26.26h0v-.95a3.941,3.941,0,0,1,.05-.8c0-.45.11-.73.19-.73s.13.28.18.73a3.921,3.921,0,0,0,.06.8v1h0l-.26.26a6.11,6.11,0,0,1-2.46-.31Z"/><path class="b" d="M234.79,238.48a12.1,12.1,0,0,1,5,0A12.1,12.1,0,0,1,234.79,238.48Z"/><path class="b" d="M224.82,238.48a12.05,12.05,0,0,1,5,0,12.05,12.05,0,0,1-5,0Z"/><path class="b" d="M214.84,238.48a12.1,12.1,0,0,1,5,0A12.1,12.1,0,0,1,214.84,238.48Z"/><path class="b" d="M204.87,238.48a6.24,6.24,0,0,1,2.49-.26,6.31,6.31,0,0,1,2.5.26,6.11,6.11,0,0,1-2.5.26,6,6,0,0,1-2.49-.26Z"/><path class="b" d="M194.89,238.48a12.1,12.1,0,0,1,5,0A12.1,12.1,0,0,1,194.89,238.48Z"/><path class="b" d="M184.92,238.48a12.1,12.1,0,0,1,5,0A12.1,12.1,0,0,1,184.92,238.48Z"/><path class="b" d="M174.94,238.48a6.31,6.31,0,0,1,2.5-.26,6.24,6.24,0,0,1,2.49.26,6,6,0,0,1-2.49.26A6.11,6.11,0,0,1,174.94,238.48Z"/><path class="b" d="M165,238.48a12.1,12.1,0,0,1,5,0A12.1,12.1,0,0,1,165,238.48Z"/><path class="b" d="M155,238.48a12.05,12.05,0,0,1,5,0,12.05,12.05,0,0,1-5,0Z"/><path class="b" d="M145,238.48a12.1,12.1,0,0,1,5,0A12.1,12.1,0,0,1,145,238.48Z"/><path class="b" d="M135.05,238.48a12.05,12.05,0,0,1,5,0,12.05,12.05,0,0,1-5,0Z"/><path class="b" d="M125.07,238.48a12.1,12.1,0,0,1,5,0,12.1,12.1,0,0,1-5,0Z"/><path class="b" d="M115.1,238.48a6.24,6.24,0,0,1,2.49-.26,6.24,6.24,0,0,1,2.49.26,6,6,0,0,1-2.49.26,6,6,0,0,1-2.49-.26Z"/><path class="b" d="M105.12,238.48a6.31,6.31,0,0,1,2.5-.26,6.28,6.28,0,0,1,2.49.26,6.08,6.08,0,0,1-2.49.26,6.111,6.111,0,0,1-2.5-.26Z"/><path class="b" d="M95.15,238.48a6.24,6.24,0,0,1,2.49-.26,6.31,6.31,0,0,1,2.5.26,6.11,6.11,0,0,1-2.5.26,6,6,0,0,1-2.49-.26Z"/><path class="b" d="M87.66,236a6.31,6.31,0,0,1,.26,2.5l-.26-.26h1a3.3,3.3,0,0,1,.8.06c.45,0,.73.11.73.18s-.28.14-.73.19l-.8.05h-.97l-.26-.26A6.31,6.31,0,0,1,87.66,236Z"/><path class="b" d="M87.66,226.16a11.72,11.72,0,0,1,0,4.91A11.72,11.72,0,0,1,87.66,226.16Z"/><path class="b" d="M87.66,216.35a11.72,11.72,0,0,1,0,4.91A11.72,11.72,0,0,1,87.66,216.35Z"/><path class="b" d="M87.66,206.53a11.72,11.72,0,0,1,0,4.91A11.72,11.72,0,0,1,87.66,206.53Z"/><path class="b" d="M87.66,196.71a11.72,11.72,0,0,1,0,4.91A11.72,11.72,0,0,1,87.66,196.71Z"/><path class="b" d="M87.66,186.89a11.72,11.72,0,0,1,0,4.91A11.72,11.72,0,0,1,87.66,186.89Z"/><path class="b" d="M87.66,177.08a11.67,11.67,0,0,1,0,4.9,11.67,11.67,0,0,1,0-4.9Z"/><path class="b" d="M87.66,167.26a11.72,11.72,0,0,1,0,4.91,11.72,11.72,0,0,1,0-4.91Z"/><path class="b" d="M87.66,157.44a11.72,11.72,0,0,1,0,4.91A11.72,11.72,0,0,1,87.66,157.44Z"/><path class="b" d="M87.66,147.62a11.72,11.72,0,0,1,0,4.91,11.72,11.72,0,0,1,0-4.91Z"/><path class="b" d="M90.16,140.21a6,6,0,0,1-2.5.27c.52-.53.14-.15.26-.26h0v.96a3.734,3.734,0,0,1-.06.79c0,.45-.11.73-.18.73s-.14-.28-.18-.73a3.877,3.877,0,0,0-.06-.79v-1h0c.12-.12-.26.25.26-.27a6.309,6.309,0,0,1,2.46.3Z"/><path class="b" d="M100.14,140.21a6,6,0,0,1-2.5.27,5.94,5.94,0,0,1-2.49-.27,6.24,6.24,0,0,1,2.49-.26,6.31,6.31,0,0,1,2.5.26Z"/><path class="b" d="M110.11,140.21a6,6,0,0,1-2.49.27,6,6,0,0,1-2.5-.27,6.31,6.31,0,0,1,2.5-.26,6.28,6.28,0,0,1,2.49.26Z"/><path class="b" d="M120.08,140.21a5.94,5.94,0,0,1-2.49.27,5.94,5.94,0,0,1-2.49-.27,6.24,6.24,0,0,1,2.49-.26A6.24,6.24,0,0,1,120.08,140.21Z"/><path class="b" d="M130.06,140.21a11.66,11.66,0,0,1-5,0,12.1,12.1,0,0,1,5,0Z"/><path class="b" d="M140,140.21a11.62,11.62,0,0,1-5,0A12.05,12.05,0,0,1,140,140.21Z"/><path class="b" d="M150,140.21a11.66,11.66,0,0,1-5,0,12.1,12.1,0,0,1,5,0Z"/><path class="b" d="M160,140.21a11.62,11.62,0,0,1-5,0A12.05,12.05,0,0,1,160,140.21Z"/><path class="b" d="M170,140.21a11.66,11.66,0,0,1-5,0A12.1,12.1,0,0,1,170,140.21Z"/><path class="b" d="M179.93,140.21a5.94,5.94,0,0,1-2.49.27,6,6,0,0,1-2.5-.27,6.31,6.31,0,0,1,2.5-.26,6.24,6.24,0,0,1,2.49.26Z"/><path class="b" d="M189.91,140.21a11.66,11.66,0,0,1-5,0,12.1,12.1,0,0,1,5,0Z"/><path class="b" d="M199.88,140.21a11.66,11.66,0,0,1-5,0,12.1,12.1,0,0,1,5,0Z"/><path class="b" d="M209.86,140.21a6,6,0,0,1-2.5.27,5.94,5.94,0,0,1-2.49-.27,6.24,6.24,0,0,1,2.49-.26A6.31,6.31,0,0,1,209.86,140.21Z"/><path class="b" d="M219.83,140.21a11.66,11.66,0,0,1-5,0,12.1,12.1,0,0,1,5,0Z"/><path class="b" d="M229.8,140.21a11.62,11.62,0,0,1-5,0A12.05,12.05,0,0,1,229.8,140.21Z"/><path class="b" d="M239.78,140.21a11.66,11.66,0,0,1-5,0,12.1,12.1,0,0,1,5,0Z"/><path class="b" d="M247.27,142.71a6.07,6.07,0,0,1-.26-2.5c.52.52.14.15.26.27H245.5c-.45-.05-.73-.11-.73-.19s.28-.13.73-.18l.79-.06h1c.11.12-.26-.26.26.26a6.27,6.27,0,0,1-.28,2.4Z"/><path class="b" d="M247.27,152.53a11.72,11.72,0,0,1,0-4.91,11.72,11.72,0,0,1,0,4.91Z"/><path class="b" d="M247.27,162.35a11.72,11.72,0,0,1,0-4.91,11.72,11.72,0,0,1,0,4.91Z"/><path class="b" d="M247.27,172.17a11.72,11.72,0,0,1,0-4.91,11.72,11.72,0,0,1,0,4.91Z"/><path class="b" d="M247.27,182a11.67,11.67,0,0,1,0-4.9A11.67,11.67,0,0,1,247.27,182Z"/><path class="b" d="M247.27,191.8a11.72,11.72,0,0,1,0-4.91,11.72,11.72,0,0,1,0,4.91Z"/><path class="b" d="M247.27,201.62a11.72,11.72,0,0,1,0-4.91,11.72,11.72,0,0,1,0,4.91Z"/><path class="b" d="M247.27,211.44a11.72,11.72,0,0,1,0-4.91,11.72,11.72,0,0,1,0,4.91Z"/><path class="b" d="M247.27,221.26a5.91,5.91,0,0,1-.26-2.46,5.85,5.85,0,0,1,.26-2.45,6,6,0,0,1,.26,2.45,6.11,6.11,0,0,1-.26,2.46Z"/><path class="b" d="M247.27,231.07a11.72,11.72,0,0,1,0-4.91,11.72,11.72,0,0,1,0,4.91Z"/><path class="g" d="M235.75,237.71,80.64,246.22a2.14,2.14,0,0,1-2.25-2l-5.14-93.86a2.13,2.13,0,0,1,2-2.25l155.1-8.51a2.14,2.14,0,0,1,2.25,2l5.15,93.85a2.13,2.13,0,0,1-2,2.26Z"/><path class="i" d="M156.63,182.94l13.46,6.32-12.1,8.96-12.11,8.96-1.36-15.28-1.36-15.28Z"/><path class="i" d="M225.83,228.43c0,.14-30.51,1.93-68.16,4s-68.18,3.62-68.19,3.48,30.51-1.94,68.17-4S225.82,228.28,225.83,228.43Z"/><path class="i" d="M91.86,235.78a1.72,1.72,0,1,1-.567-1.191,1.72,1.72,0,0,1,.567,1.191Z"/><g class="d"><path d="M222.08,140.19c-2.48,4.76-5,10.19-3.32,15.28.79,2.33,2.39,4.29,3.6,6.43,3.72,6.57,3.59,14.54,3.37,22.08-.07,2.14-.25,4.54-1.86,5.94-1.33,1.14-3.22,1.27-5,1.33l-21.1.81v37.15l39.14-8.66L235.08,165l-1-9.37-3.95-16Z"/></g><path class="g" d="M188.53,440.58l1.34,31.34,16.92-.38-1.27-31.4Z"/><path class="f" d="M198.18,470.55c.14,0-.13-6.87-.59-15.33s-1-15.31-1.1-15.3.12,6.87.59,15.33S198,470.56,198.18,470.55Z"/><path class="b" d="M189.77,469.76l16.93-.43.09,2.21-16.92.38Z"/><path class="f" d="M206.38,461.51a3.742,3.742,0,0,0-.46-.67,12.13,12.13,0,0,0-4.4-3.25,8.79,8.79,0,0,0-4-.72,8.92,8.92,0,0,0-6.46,3.17,7.59,7.59,0,0,0-1.15,1.89,2.19,2.19,0,0,0-.24.78,18.507,18.507,0,0,1,1.66-2.44,9,9,0,0,1,6.22-2.89,10.31,10.31,0,0,1,6.55,2.21C205.58,460.67,206.32,461.57,206.38,461.51Z"/><g class="d"><path d="M205.88,449.08l.14,3.45-16.96.3-.12-2.6Z"/></g><path class="g" d="M147.6,441.4l.85,19.6s-19.65,7.45-19.85,11.09l38.08-.28-.07-30.61Z"/><path class="b" d="M160,459.34a1.57,1.57,0,0,1,1.09,1.78,1.5,1.5,0,0,1-1.75,1.1,1.64,1.64,0,0,1-1.15-1.89,1.55,1.55,0,0,1,1.95-.94"/><path class="b" d="M166.68,471.81v-3.07l-36.85,1.4s-1.7.75-1.5,1.95Z"/><path class="f" d="M148.1,461.13c0,.19,1,.27,1.87.86s1.42,1.38,1.6,1.31-.12-1.16-1.25-1.86A2.251,2.251,0,0,0,148.1,461.13Z"/><path class="f" d="M144.09,462.82c0,.19.77.5,1.41,1.29s.84,1.62,1,1.61.3-1.07-.52-2S144.09,462.65,144.09,462.82Z"/><path class="f" d="M141.84,467.66c.17,0,.43-.9-.06-1.93s-1.37-1.42-1.45-1.26.47.7.86,1.54S141.66,467.64,141.84,467.66Z"/><path class="f" d="M148.41,456.61c.08.17.93-.1,2,0s1.89.39,2,.23-.7-.82-1.95-.88S148.31,456.46,148.41,456.61Z"/><path class="f" d="M147.69,452.39a3.51,3.51,0,0,0,1.92,0,8.32,8.32,0,0,0,2-.63,9.122,9.122,0,0,0,1.1-.59,2.44,2.44,0,0,0,.57-.46.8.8,0,0,0,.08-1,1,1,0,0,0-.82-.43,2.871,2.871,0,0,0-.72.11,6.656,6.656,0,0,0-1.19.42,6.879,6.879,0,0,0-1.77,1.17c-.88.83-1.18,1.54-1.11,1.57s.51-.53,1.41-1.21a7.19,7.19,0,0,1,1.71-1A7.079,7.079,0,0,1,152,450c.4-.11.75-.12.85.06s0,.1,0,.22a1.7,1.7,0,0,1-.42.33,9.759,9.759,0,0,1-1,.59,11,11,0,0,1-1.85.73,13.184,13.184,0,0,0-1.89.46Z"/><path class="f" d="M147.94,452.66a3.18,3.18,0,0,0,.49-1.86,6.09,6.09,0,0,0-.28-2.1,5.879,5.879,0,0,0-.5-1.17,1.58,1.58,0,0,0-1.23-1,.91.91,0,0,0-.8.54,3.139,3.139,0,0,0-.19.71,4.63,4.63,0,0,0,0,1.29,4.4,4.4,0,0,0,.84,2c.75,1,1.54,1.21,1.55,1.14a8.109,8.109,0,0,1-1.17-1.4A4.26,4.26,0,0,1,146,449a4.15,4.15,0,0,1,0-1.11c.06-.41.21-.74.36-.7a1.393,1.393,0,0,1,.68.63,5.711,5.711,0,0,1,.48,1,6.691,6.691,0,0,1,.39,1.91C148,451.93,147.84,452.63,147.94,452.66Z"/><g class="d"><path d="M166.69,452.96l-.04,4.35H148.29v-2.39Z"/></g><path class="l" d="M223.7,143.24c-.43,0-1.54,4.34-2.09,6.52a3.23,3.23,0,0,0,.32,2.36l4.41,7.81a9.37,9.37,0,0,0,3.46,3.47l2.21,1.25.29,4.64,12.41.2L240.93,155l-1.58-8.83a3,3,0,0,0-2.22-1.65l-1.17-.17-.44-1.12A2,2,0,0,0,234,142l-.73-.09-1-2.51a2.19,2.19,0,0,0-2-1.36l-6,.08s-1.32,1.78,1.71,2.62a8.54,8.54,0,0,0,2.58.32l1.4,5.41s1,5.68-1.67,5.68c-2.34,0-2.56-3.06-2.56-3.06S226.76,142.9,223.7,143.24Z"/><path class="m" d="M236,148.66a8.623,8.623,0,0,0-.23-1.13,4.32,4.32,0,0,0-1.69-2.15,12,12,0,0,1-.93-2.69,3.319,3.319,0,0,1-.13-1.17s.08.44.27,1.13a17.43,17.43,0,0,0,.95,2.6l.61.5a3.849,3.849,0,0,1,.5.58,3.71,3.71,0,0,1,.56,1.16,3.1,3.1,0,0,1,.12.85.9.9,0,0,1-.03.32Z"/><path class="m" d="M237.91,147.61a1.7,1.7,0,0,0-.18-.56,1.47,1.47,0,0,0-1.15-.75h-.07v-.06l-.07-.19a14.561,14.561,0,0,1-.71-2.25,12.81,12.81,0,0,1,.91,2.17l.07.2-.09-.07a1.54,1.54,0,0,1,1.26.9C238,147.36,237.94,147.63,237.91,147.61Z"/><path class="m" d="M228.43,141.08a.7.7,0,0,1-.22-.69c.06-.42.26-.68.31-.65s-.06.31-.1.67S228.48,141.05,228.43,141.08Z"/><path class="l" d="M164.86,197.34l22.5-.28-2.51-19.17s1.54-.33,1.64-8.66.49-22.51.49-22.51h0a29,29,0,0,0-29.12,3.66l-1.23,1Z"/><path class="l" d="M159.24,161.59c-.14-.06-5.73-1.7-5.55,4s5.87,4.34,5.87,4.18S159.24,161.59,159.24,161.59Z"/><path class="l" d="M186,160.4c.14-.06,5.22-1.43,5,4.27s-5.87,4.34-5.87,4.17S186,160.4,186,160.4Z"/><path class="f" d="M192.41,143.93a3.09,3.09,0,0,0-1.14-2.75,2.18,2.18,0,0,0-2.83.21,2.55,2.55,0,0,0-2.19-3.09c-1.36-.08-2.52.94-3.83,1.3a6.1,6.1,0,0,1-3.89-.45c-1.24-.49-2.39-1.18-3.64-1.63a10.65,10.65,0,0,0-13.64,6.26,4.73,4.73,0,0,0-5,1.9,7.8,7.8,0,0,0-1.19,5.47,18,18,0,0,0,1,3.74v.32c.08,4.58,2.47,19.07,4.43,19.1,3.41.05.73-15.47.73-15.47,4.18-1.62,2.62-7.89,3.67-8.84s3.23-3.16,12,1.32a17,17,0,0,0,10.39,1.12h.35a7.9,7.9,0,0,0,2.24-1,4.42,4.42,0,0,0,1.85-2.05,2.42,2.42,0,0,0-.48-2.61,5.39,5.39,0,0,0,1.17-2.85Z"/><path class="f" d="M157.39,161c.85,4.78.68,7.29,1.47,10.48,1.25,5,3.76,8.92,8.3,11.44s10.7,2.47,14.61-1c2.71-2.38,4.63-5.07,5-8.66s.81-9.93.84-13.54c0-6.51.48-12.73.48-12.73l-18.6-3.37-10.58,6.29Z"/><path class="f" d="M176.57,185.75a6.07,6.07,0,0,1-3.26.28,6,6,0,0,1-3.12-1c.06-.14,1.43.29,3.18.48A28.908,28.908,0,0,1,176.57,185.75Z"/><path class="j" d="M181.4,142.78a2.68,2.68,0,0,1-.88.16,5.15,5.15,0,0,1-2.38-.56,16.841,16.841,0,0,1-3-2,8.26,8.26,0,0,0-3.93-1.81,7.07,7.07,0,0,0-4.23.74,6.9,6.9,0,0,0-2.58,2.42,8,8,0,0,0-1.11,3.09,4.861,4.861,0,0,1,.09-.89,7.18,7.18,0,0,1,.89-2.28,7,7,0,0,1,2.62-2.51,7.15,7.15,0,0,1,4.35-.77,8.12,8.12,0,0,1,4,1.86,18.689,18.689,0,0,0,3,2,5.28,5.28,0,0,0,2.31.61A6.693,6.693,0,0,0,181.4,142.78Z"/><path class="j" d="M163.54,145.12a7.5,7.5,0,0,0-1.33-.5,4.52,4.52,0,0,0-3.29.52,4.44,4.44,0,0,0-1.92,2.71,7.83,7.83,0,0,0-.15,1.42,1.21,1.21,0,0,1-.06-.38,3.54,3.54,0,0,1,.07-1.07,4.28,4.28,0,0,1,5.38-3.34,4,4,0,0,1,1,.41,1.11,1.11,0,0,1,.3.23Z"/><path class="j" d="M163,165.45a20.92,20.92,0,0,1-2.64-6,20.92,20.92,0,0,1,2.64,6Z"/><path class="j" d="M167.87,168.72a6.8,6.8,0,0,1-2.64-2.62,6.89,6.89,0,0,1-1.35-3.47c.15,0,.69,1.51,1.79,3.18S168,168.61,167.87,168.72Z"/><path class="j" d="M172.67,169.78a5.13,5.13,0,0,1-2.22-1.37c-1.1-1-1.77-1.93-1.66-2a10.9,10.9,0,0,1,2,1.62C171.85,168.95,172.75,169.65,172.67,169.78Z"/><path class="j" d="M181.16,162.05a4.8,4.8,0,0,1-.5,2.84,4.9,4.9,0,0,1-1.65,2.37,23.5,23.5,0,0,1,1.17-2.57A26.153,26.153,0,0,1,181.16,162.05Z"/><path class="j" d="M184,157.55a6.31,6.31,0,0,1-.33,3.49A6.23,6.23,0,0,1,182,164.1c-.12-.09.68-1.41,1.24-3.21S183.89,157.55,184,157.55Z"/><path class="j" d="M186.25,146a3.131,3.131,0,0,1-.74.57,5.75,5.75,0,0,1-2.45.76,8.63,8.63,0,0,1-3.76-.58,29.87,29.87,0,0,1-4.16-2.08,18,18,0,0,0-4.23-1.82,7,7,0,0,0-3.71,0,5.16,5.16,0,0,0-2.17,1.24c-.42.43-.58.73-.6.71a3,3,0,0,1,.54-.76,4.93,4.93,0,0,1,2.19-1.33,7,7,0,0,1,3.79-.07,17.3,17.3,0,0,1,4.29,1.83,31.34,31.34,0,0,0,4.13,2.08,8.48,8.48,0,0,0,3.68.61A5.74,5.74,0,0,0,186.25,146Z"/><path class="j" d="M187.9,148.73a1.33,1.33,0,0,1-.3.2,8.169,8.169,0,0,1-.89.44,10.57,10.57,0,0,1-6.41.58,8.387,8.387,0,0,1-1-.26c-.22-.08-.34-.13-.33-.15s.5.12,1.31.27a12.24,12.24,0,0,0,3.21.14,12.42,12.42,0,0,0,3.12-.72C187.43,148.94,187.89,148.7,187.9,148.73Z"/><path class="f" d="M177.54,321.02l5.47,52.76,3.93,79.46h20.97l.57-169.11-60.04,4.28L136,377.14l10.78,77.66h23.01l-5.39-73.85,13.14-59.93"/><path class="j" d="M177.54,321a30.858,30.858,0,0,1-4.08,4,31.8,31.8,0,0,1-4.43,3.64,32.059,32.059,0,0,1,4.08-4,31.262,31.262,0,0,1,4.43-3.64Z"/><path class="j" d="M177.48,320a60.583,60.583,0,0,1,.11-6.77,59.087,59.087,0,0,1,.39-6.76,34.2,34.2,0,0,1,.13,6.78,35.42,35.42,0,0,1-.63,6.75Z"/><path class="j" d="M184.41,300.27a1.567,1.567,0,0,1,.34,0l1-.06,4-.19,14.22-.6h.24v15.47l-.17.06-9.24,3.71h-.18l-8.17-2.84h-.13v-.13c-.6-4.61-1.09-8.45-1.45-11.2-.16-1.28-.28-2.31-.38-3.08a7.178,7.178,0,0,1-.1-1.05,2.177,2.177,0,0,1,.07.3,5.511,5.511,0,0,0,.14.83c.12.78.29,1.82.49,3.12.41,2.71,1,6.48,1.66,11l-.14-.18,8.19,2.78h-.17l9.24-3.73-.16.24V299.68l.24.23-14.06.35-4,.07h-1.48Z"/><path class="j" d="M154.14,300.53a1.2,1.2,0,0,1,.31,0h.93l3.6-.12,13-.3h.24v.24c-.14,4.38-.3,9.43-.47,14.8v.14l-.11.07-1.5,1-7.6,5-.13.09-.14-.09L153.65,316l-.11-.07v-.12c.16-4.6.3-8.43.39-11.18.06-1.28.11-2.31.14-3.07a9.417,9.417,0,0,1,.07-1.05,1,1,0,0,1,0,.3v3.96c0,2.71-.1,6.5-.16,11l-.11-.19,8.6,5.15h-.27l7.6-5,1.5-1-.12.21c.2-5.38.38-10.43.54-14.81l.23.24-12.83.07H154.5Z"/><path class="j" d="M202,324.43a14.681,14.681,0,0,1-2.84-.09c-1.75-.13-4.16-.37-6.82-.71s-5.05-.73-6.77-1.05a14.091,14.091,0,0,1-2.77-.64,16.93,16.93,0,0,1,2.82.27l6.79.9,6.79.86A17.059,17.059,0,0,1,202,324.43Z"/><path class="j" d="M201.51,383.24a1.526,1.526,0,0,1-.49.67,3.35,3.35,0,0,1-2.15.73,5.12,5.12,0,0,1-3.13-1.2,21.687,21.687,0,0,1-2.85-2.89,39,39,0,0,1-4.25-6,13.19,13.19,0,0,1-1.33-2.72,26.605,26.605,0,0,1,1.64,2.53,53,53,0,0,0,4.33,5.83,24.33,24.33,0,0,0,2.76,2.85,4.85,4.85,0,0,0,2.84,1.21,3.34,3.34,0,0,0,2-.52C201.31,383.46,201.48,383.22,201.51,383.24Z"/><path class="j" d="M160.1,385.1a1.31,1.31,0,0,1-.28.67,4.39,4.39,0,0,1-1.45,1.38,5.55,5.55,0,0,1-2.88.75,6.74,6.74,0,0,1-3.46-1.1,12.27,12.27,0,0,1-4.17-5,10.848,10.848,0,0,1-1-2.47,17.743,17.743,0,0,1,1.36,2.3,13.28,13.28,0,0,0,4.12,4.7,6.5,6.5,0,0,0,3.21,1.06,5.48,5.48,0,0,0,2.68-.59,6.12,6.12,0,0,0,1.87-1.7Z"/><path class="j" d="M161.44,377.14a5.179,5.179,0,0,1-1.72,1,13.65,13.65,0,0,1-4.7,1,13.48,13.48,0,0,1-4.78-.65,4.9,4.9,0,0,1-1.79-.86,21.241,21.241,0,0,0,6.54,1,21.84,21.84,0,0,0,6.45-1.49Z"/><path class="j" d="M229.68,190.92H199.11s-4.16-2.39-6.16-2a8,8,0,0,0-3.76,2.55l4.05,33.68,9.9-7.32L240,214a11.74,11.74,0,0,0,8.42-3.69h0a11.74,11.74,0,0,0,3.11-9.43l-6.82-36.23-14,.47-.56,9.19Z"/><path class="j" d="M145.52,199.41a18.77,18.77,0,0,0-7.38,8.58c-1.78,4.28-14,25.66-20.38,36.84a10.58,10.58,0,0,0,1.53,12.57h0c3.9,4.07,10.44,5.19,16.13,3.34,2.55-.83,12.76-9.12,12.76-9.12Z"/><path class="j" d="M150.84,275.8l-7.01-60.31,1.69-16.08,17.85-7.6,23.11-1.52,22.01,2.43-5.15,61.86,5.63,34.89-61.64,2.78Z"/><path class="f" d="M150.81,275.54c-.14,0-1.82-13.41-3.75-30s-3.37-30-3.23-30.06,1.82,13.42,3.75,30S151,275.52,150.81,275.54Z"/><path class="f" d="M208,206.25a1.77,1.77,0,0,1,0,.55c0,.41-.08.92-.14,1.55-.15,1.41-.34,3.34-.58,5.68-.49,4.87-1.15,11.47-1.88,18.77s-1.27,14-1.63,18.78c-.17,2.35-.31,4.28-.41,5.7,0,.63-.09,1.14-.12,1.55a2.289,2.289,0,0,1-.08.54,1.91,1.91,0,0,1,0-.54c0-.42,0-.93,0-1.56,0-1.35.12-3.3.24-5.71.27-4.82.78-11.48,1.48-18.81s1.45-14,2-18.76c.3-2.39.55-4.33.75-5.67.09-.62.17-1.13.23-1.54A2,2,0,0,1,208,206.25Z"/><path class="f" d="M197.43,266.3a10,10,0,0,1-1,1.19,14.347,14.347,0,0,1-1.25,1.31c-.52.48-1.08,1.06-1.78,1.6a24.6,24.6,0,0,1-2.32,1.76,32.143,32.143,0,0,1-2.83,1.78,35.259,35.259,0,0,1-14.58,4.35c-1.18,0-2.29.13-3.34.07a25.247,25.247,0,0,1-2.9-.2,23.834,23.834,0,0,1-2.37-.37,13.861,13.861,0,0,1-1.77-.41,9.082,9.082,0,0,1-1.47-.46c0-.12,2.14.54,5.64.87a28.346,28.346,0,0,0,2.88.14c1,0,2.13-.06,3.29-.12A36.61,36.61,0,0,0,188,273.52c1-.59,2-1.11,2.82-1.71s1.63-1.15,2.33-1.69C195.94,267.92,197.34,266.22,197.43,266.3Z"/><g class="d"><path d="M164.84,277.56c-3-.86-3.17-3.69-2-4.9s3-1.37,4.71-1.13a23.481,23.481,0,0,0,5,.67c2.74-.18,5-2.09,6.94-4.07s3.71-4.2,6.21-5.34,6-.73,7.3,1.68a5.19,5.19,0,0,1-.3,5,11.52,11.52,0,0,1-3.71,3.64,30.33,30.33,0,0,1-24.12,4.45"/></g><g class="n"><path d="M146.36,237.63c-.54.76-5.75,7.88-5.75,7.88-.14.72-5.19,7.23-5.19,7.23s4.49-2.49,7.94-4.27a29.811,29.811,0,0,0,4.13-2.95s-.78-4.9-1.12-6.73c-.77-4.1-1.29-13.35-1.29-13.35"/></g><path class="f" d="M201.29,192.15a9.514,9.514,0,0,1,5.77,8,14.58,14.58,0,0,0-5.78-8Z"/><path class="f" d="M146.36,237.63a14.9,14.9,0,0,1-1.51,2.44c-1,1.46-2.38,3.46-3.95,5.65-3.15,4.36-5.84,7.85-6,7.65l1.61-2.33,4-5.62c1.57-2.19,3-4.16,4.07-5.56a15.849,15.849,0,0,1,1.78-2.23Z"/></g></svg>