<svg xmlns="http://www.w3.org/2000/svg" width="173.016" height="53.23" viewBox="0 0 173.016 53.23"><defs><style>.a{fill:#fff;}</style></defs><g transform="translate(-142.019 -37)"><g transform="translate(142.019 37)"><path class="a" d="M-2254.159-3142.331a37.407,37.407,0,0,0,6.542,7.771c3.485,2.854,1.656,1.717,4.212,2.975a32.907,32.907,0,0,0,6.011,2.058,49.568,49.568,0,0,1,6.951,2.94c2.914,1.6,3.067,1.227,4.7,3.476s1.636,2.812,1.839,5.521-.2,3.27-1.839,5.315a10.216,10.216,0,0,1-4.7,2.862h14.312a10.745,10.745,0,0,0,4.7-2.862c1.738-2.045,1.482-2.607,2.248-5.315a24.738,24.738,0,0,0,.818-5.521l.027-.667-.844-4.446-3.475-7.156a68.44,68.44,0,0,0-6.134-3.475,55.372,55.372,0,0,0-7.77-3.476c-3.492-1.267-3.8-.833-6.2-1.594s-1.875-.514-3.387-1.45-1.844-.939-2.661-2.3-.958-1.27-.6-3.145.719-2.329,2.019-4.355a14.772,14.772,0,0,1,3.183-3.75,28.669,28.669,0,0,1,3.769-3.024l-11.632-.6a13.575,13.575,0,0,0-4.477,1.209,12.306,12.306,0,0,0-4.234,3.025,18.88,18.88,0,0,0-3.374,4.6l-.74,3.993a45.245,45.245,0,0,0,0,5.2C-2254.715-3142.679-2254.159-3142.331-2254.159-3142.331Z" transform="translate(2254.981 3162.555)"/><path class="a" d="M-2175.736-3144.181c-.484-1.754-1.209-2.631-.968-4.718a6.586,6.586,0,0,1,1.936-3.629,13.228,13.228,0,0,1,4.113-3.267c2.056-.816,2.269-.6,4.719-.6a26.426,26.426,0,0,1,5.081.6,11.6,11.6,0,0,1,3.509,1.453,6.022,6.022,0,0,1,1.934,2.418v18.51s-4.355-2.178-8.346-4.233a26.387,26.387,0,0,0-5.2-2.3l-3.992-1.693S-2175.253-3142.427-2175.736-3144.181Z" transform="translate(2196.506 3157.973)"/><path class="a" d="M-2246.99-3060.506l14.034,9.314s4.537,2,7.379,3.629,2.722,1.3,3.992,2.9a5.352,5.352,0,0,1,1.089,3.507,9.492,9.492,0,0,1-1.089,4.235,7.43,7.43,0,0,1-2.662,2.662,6.728,6.728,0,0,1-2.418,1.21l-19.6-.484Z" transform="translate(2249.008 3086.275)"/></g><g transform="translate(198.658 55.693)"><path class="a" d="M6.786,6.676a8.734,8.734,0,0,1-3.4-.6A5.053,5.053,0,0,1,1.241,4.511,3.706,3.706,0,0,1,.468,2.39.461.461,0,0,1,.6,2.07a.432.432,0,0,1,.331-.144h2.01a.668.668,0,0,1,.4.11,1.173,1.173,0,0,1,.287.309A2.262,2.262,0,0,0,4.632,3.605a3.933,3.933,0,0,0,2.154.508,4.252,4.252,0,0,0,2.331-.519A1.623,1.623,0,0,0,9.9,2.169a1.349,1.349,0,0,0-.4-.994,3.325,3.325,0,0,0-1.2-.7q-.806-.3-2.4-.718A9.409,9.409,0,0,1,2.081-1.874,3.588,3.588,0,0,1,.866-4.79a3.878,3.878,0,0,1,.707-2.286,4.693,4.693,0,0,1,2.021-1.58,7.586,7.586,0,0,1,3.06-.574,7.269,7.269,0,0,1,3.17.641,5.229,5.229,0,0,1,2.032,1.6,3.541,3.541,0,0,1,.74,1.911.461.461,0,0,1-.133.32.432.432,0,0,1-.331.144h-2.1a.659.659,0,0,1-.663-.4,1.71,1.71,0,0,0-.862-1.182,3.407,3.407,0,0,0-1.856-.475A3.411,3.411,0,0,0,4.743-6.2a1.519,1.519,0,0,0-.7,1.348,1.441,1.441,0,0,0,.353.994,2.882,2.882,0,0,0,1.1.7,20.067,20.067,0,0,0,2.187.674,15.239,15.239,0,0,1,3.126.994A4.075,4.075,0,0,1,12.53-.106a3.827,3.827,0,0,1,.552,2.143A4.035,4.035,0,0,1,12.3,4.522a4.872,4.872,0,0,1-2.209,1.6A9.1,9.1,0,0,1,6.786,6.676Zm9.345-.221a.528.528,0,0,1-.53-.53V-8.457a.561.561,0,0,1,.144-.4.5.5,0,0,1,.387-.155h2.032a.538.538,0,0,1,.4.155.538.538,0,0,1,.155.4v5.677h6.451V-8.457a.538.538,0,0,1,.155-.4.511.511,0,0,1,.376-.155h2.054a.5.5,0,0,1,.387.155.561.561,0,0,1,.144.4V5.925a.532.532,0,0,1-.144.376.5.5,0,0,1-.387.155H25.7a.528.528,0,0,1-.53-.53V.026H18.715v5.9a.511.511,0,0,1-.155.376.538.538,0,0,1-.4.155Zm14.647,0a.453.453,0,0,1-.464-.464l.044-.2,5.3-14.249a.8.8,0,0,1,.8-.552h2.43a.8.8,0,0,1,.8.552l5.3,14.249.044.2a.432.432,0,0,1-.144.331.461.461,0,0,1-.32.133H42.6a.64.64,0,0,1-.641-.42L40.939,3.362H34.4L33.384,6.035a.64.64,0,0,1-.641.42ZM35.173.8h4.993L37.67-6ZM47.589,6.455a.528.528,0,0,1-.53-.53V-8.457a.561.561,0,0,1,.144-.4.5.5,0,0,1,.387-.155H54a5.677,5.677,0,0,1,3.866,1.138,3.939,3.939,0,0,1,1.281,3.1,3.328,3.328,0,0,1-.563,1.955,3.364,3.364,0,0,1-1.314,1.16,3.756,3.756,0,0,1,1.568,1.37,3.782,3.782,0,0,1,.641,2.165A4.255,4.255,0,0,1,58.082,5.2a5.588,5.588,0,0,1-3.888,1.259ZM53.6-2.669a2.489,2.489,0,0,0,1.734-.552,1.9,1.9,0,0,0,.608-1.48,1.783,1.783,0,0,0-.6-1.436A2.625,2.625,0,0,0,53.6-6.645H50.173v3.976Zm.221,6.76a2.444,2.444,0,0,0,1.789-.63,2.15,2.15,0,0,0,.641-1.6A2.131,2.131,0,0,0,55.6.258a2.452,2.452,0,0,0-1.778-.63H50.173V4.091ZM65.947,6.455a.528.528,0,0,1-.53-.53V-6.248H61.33a.511.511,0,0,1-.376-.155.538.538,0,0,1-.155-.4V-8.457a.561.561,0,0,1,.144-.4.5.5,0,0,1,.387-.155H72.618a.538.538,0,0,1,.4.155.538.538,0,0,1,.155.4V-6.8a.538.538,0,0,1-.155.4.538.538,0,0,1-.4.155H68.553V5.925a.532.532,0,0,1-.144.376.5.5,0,0,1-.387.155Zm9.985,0a.528.528,0,0,1-.53-.53V-8.457a.561.561,0,0,1,.144-.4.5.5,0,0,1,.387-.155h9.742a.538.538,0,0,1,.4.155.538.538,0,0,1,.155.4v1.48a.5.5,0,0,1-.155.387.561.561,0,0,1-.4.144H78.428v3.866h6.76a.538.538,0,0,1,.4.155.538.538,0,0,1,.155.4V-.636a.5.5,0,0,1-.155.387.561.561,0,0,1-.4.144h-6.76v4h7.423a.561.561,0,0,1,.4.144.5.5,0,0,1,.155.387v1.5a.5.5,0,0,1-.155.387.561.561,0,0,1-.4.144ZM95,6.676A6.65,6.65,0,0,1,90.28,5.118,6.1,6.1,0,0,1,88.5.689q-.022-.6-.022-1.944,0-1.37.022-1.988A6.1,6.1,0,0,1,90.291-7.65,6.6,6.6,0,0,1,95-9.23a8.094,8.094,0,0,1,3.424.674,5.446,5.446,0,0,1,2.264,1.845,4.793,4.793,0,0,1,.851,2.629v.044a.376.376,0,0,1-.144.3.484.484,0,0,1-.32.122H98.929a.571.571,0,0,1-.4-.122.932.932,0,0,1-.221-.431A3.123,3.123,0,0,0,97.162-6.1,3.747,3.747,0,0,0,95-6.667q-3.159,0-3.292,3.535-.022.6-.022,1.834T91.705.579Q91.838,4.113,95,4.113a3.758,3.758,0,0,0,2.154-.563,3.1,3.1,0,0,0,1.16-1.933.932.932,0,0,1,.221-.431.571.571,0,0,1,.4-.122h2.143a.488.488,0,0,1,.342.133.371.371,0,0,1,.121.331,4.793,4.793,0,0,1-.851,2.629A5.446,5.446,0,0,1,98.421,6,8.094,8.094,0,0,1,95,6.676Zm9.7-.221a.528.528,0,0,1-.53-.53V-8.457a.561.561,0,0,1,.144-.4.5.5,0,0,1,.387-.155h2.032a.538.538,0,0,1,.4.155.538.538,0,0,1,.155.4v5.677h6.451V-8.457a.538.538,0,0,1,.155-.4.511.511,0,0,1,.376-.155h2.054a.5.5,0,0,1,.387.155.561.561,0,0,1,.144.4V5.925a.532.532,0,0,1-.144.376.5.5,0,0,1-.387.155H114.26a.528.528,0,0,1-.53-.53V.026H107.28v5.9a.511.511,0,0,1-.155.376.538.538,0,0,1-.4.155Z" transform="translate(-0.468 9.23)"/><path class="a" d="M3.4,0H5.1A3.492,3.492,0,0,1,8.5,3.578,3.492,3.492,0,0,1,5.1,7.156H3.4A3.492,3.492,0,0,1,0,3.578,3.492,3.492,0,0,1,3.4,0Z" transform="translate(48.485 1.731)"/><path class="a" d="M3.4,0H5.1A3.474,3.474,0,0,1,8.5,3.544,3.474,3.474,0,0,1,5.1,7.089H3.4A3.474,3.474,0,0,1,0,3.544,3.474,3.474,0,0,1,3.4,0Z" transform="translate(48.485 7.188)"/></g></g></svg>