<svg xmlns="http://www.w3.org/2000/svg" width="105.933" height="31.324" viewBox="0 0 105.933 31.324"><defs><style>.a{fill:#fff;}</style></defs><g transform="translate(-142.019 -37)"><g transform="translate(212 3746.555)"><path class="a" d="M-2254.5-3150.654a22.013,22.013,0,0,0,3.85,4.573c2.051,1.68.974,1.011,2.479,1.75a19.379,19.379,0,0,0,3.537,1.211,29.173,29.173,0,0,1,4.091,1.73c1.715.943,1.8.722,2.768,2.045a4.58,4.58,0,0,1,1.082,3.249c.121,1.594-.119,1.924-1.082,3.128a6.012,6.012,0,0,1-2.768,1.684h8.422a6.323,6.323,0,0,0,2.768-1.684c1.022-1.2.872-1.534,1.323-3.128a14.56,14.56,0,0,0,.481-3.249l.016-.392-.5-2.616-2.045-4.211a40.231,40.231,0,0,0-3.61-2.045,32.6,32.6,0,0,0-4.572-2.045,36.412,36.412,0,0,0-3.65-.938,5.165,5.165,0,0,1-1.993-.854c-.889-.553-1.085-.553-1.566-1.354a1.746,1.746,0,0,1-.356-1.851,5.725,5.725,0,0,1,1.188-2.563,8.693,8.693,0,0,1,1.873-2.207,16.877,16.877,0,0,1,2.218-1.78l-6.845-.356a7.991,7.991,0,0,0-2.634.711,7.244,7.244,0,0,0-2.492,1.78,11.107,11.107,0,0,0-1.985,2.706l-.435,2.35a26.6,26.6,0,0,0,0,3.061C-2254.825-3150.859-2254.5-3150.654-2254.5-3150.654Z" transform="translate(2185 -547)"/><path class="a" d="M-2176.155-3149.22a5.929,5.929,0,0,1-.569-2.776,3.874,3.874,0,0,1,1.139-2.136,7.782,7.782,0,0,1,2.42-1.922,5.248,5.248,0,0,1,2.777-.355,15.546,15.546,0,0,1,2.99.355,6.833,6.833,0,0,1,2.065.855,3.546,3.546,0,0,1,1.138,1.423v10.893s-2.563-1.282-4.912-2.491a15.523,15.523,0,0,0-3.062-1.354l-2.349-1S-2175.87-3148.188-2176.155-3149.22Z" transform="translate(2118.395 -552.219)"/><path class="a" d="M-2246.99-3060.506l8.258,5.481s2.67,1.175,4.343,2.136,1.6.766,2.349,1.709a3.149,3.149,0,0,1,.641,2.064,5.585,5.585,0,0,1-.641,2.492,4.369,4.369,0,0,1-1.567,1.566,3.959,3.959,0,0,1-1.423.712l-11.534-.285Z" transform="translate(2178.196 -633.885)"/></g><g transform="translate(1 -2.77)"><path class="a" d="M4.186.13a5.14,5.14,0,0,1-2-.351A2.974,2.974,0,0,1,.923-1.144,2.181,2.181,0,0,1,.468-2.392a.271.271,0,0,1,.078-.188.254.254,0,0,1,.195-.085H1.924a.393.393,0,0,1,.234.065.69.69,0,0,1,.169.182,1.331,1.331,0,0,0,.592.741,2.314,2.314,0,0,0,1.268.3,2.5,2.5,0,0,0,1.371-.306.955.955,0,0,0,.462-.839.794.794,0,0,0-.234-.585,1.957,1.957,0,0,0-.709-.409q-.474-.176-1.41-.423A5.537,5.537,0,0,1,1.417-4.9,2.111,2.111,0,0,1,.7-6.617a2.282,2.282,0,0,1,.416-1.345,2.762,2.762,0,0,1,1.19-.93,4.464,4.464,0,0,1,1.8-.338,4.277,4.277,0,0,1,1.865.377,3.077,3.077,0,0,1,1.2.943,2.084,2.084,0,0,1,.436,1.124.271.271,0,0,1-.078.188.254.254,0,0,1-.2.085H6.1a.388.388,0,0,1-.39-.234,1.006,1.006,0,0,0-.507-.7,2,2,0,0,0-1.092-.28,2.008,2.008,0,0,0-1.125.273.894.894,0,0,0-.41.793.848.848,0,0,0,.208.585,1.7,1.7,0,0,0,.65.409,11.809,11.809,0,0,0,1.287.4,8.968,8.968,0,0,1,1.84.585,2.4,2.4,0,0,1,1.007.819A2.252,2.252,0,0,1,7.891-2.6,2.374,2.374,0,0,1,7.43-1.138a2.867,2.867,0,0,1-1.3.943A5.357,5.357,0,0,1,4.186.13ZM9.685,0a.3.3,0,0,1-.221-.091.3.3,0,0,1-.091-.221V-8.775a.33.33,0,0,1,.085-.234A.3.3,0,0,1,9.685-9.1h1.2a.317.317,0,0,1,.234.091.317.317,0,0,1,.091.234v3.341H15V-8.775a.317.317,0,0,1,.091-.234.3.3,0,0,1,.221-.091h1.209a.3.3,0,0,1,.227.091.33.33,0,0,1,.084.234V-.312a.313.313,0,0,1-.084.221A.3.3,0,0,1,16.523,0H15.314a.3.3,0,0,1-.221-.091A.3.3,0,0,1,15-.312V-3.783h-3.8V-.312a.3.3,0,0,1-.091.221A.317.317,0,0,1,10.881,0ZM18.3,0a.265.265,0,0,1-.195-.078.265.265,0,0,1-.078-.2l.026-.117,3.12-8.385a.469.469,0,0,1,.468-.325h1.43a.469.469,0,0,1,.468.325L26.663-.39l.026.117a.254.254,0,0,1-.084.2A.271.271,0,0,1,26.416,0H25.259a.377.377,0,0,1-.377-.247l-.6-1.573H20.436l-.6,1.573A.377.377,0,0,1,19.461,0Zm2.587-3.328h2.938l-1.469-4ZM28.2,0a.3.3,0,0,1-.221-.091.3.3,0,0,1-.091-.221V-8.775a.33.33,0,0,1,.084-.234A.3.3,0,0,1,28.2-9.1h3.77a3.341,3.341,0,0,1,2.275.67A2.318,2.318,0,0,1,35-6.6a1.958,1.958,0,0,1-.332,1.15,1.98,1.98,0,0,1-.773.682,2.21,2.21,0,0,1,.923.806,2.225,2.225,0,0,1,.377,1.274,2.5,2.5,0,0,1-.819,1.95A3.288,3.288,0,0,1,32.084,0Zm3.536-5.369a1.465,1.465,0,0,0,1.021-.325,1.119,1.119,0,0,0,.358-.871,1.049,1.049,0,0,0-.351-.845,1.545,1.545,0,0,0-1.027-.3H29.718v2.34Zm.13,3.978a1.438,1.438,0,0,0,1.053-.37,1.265,1.265,0,0,0,.377-.942,1.254,1.254,0,0,0-.383-.943,1.443,1.443,0,0,0-1.047-.37H29.718v2.626ZM39,0a.3.3,0,0,1-.221-.091.3.3,0,0,1-.091-.221V-7.475h-2.4a.3.3,0,0,1-.221-.091.317.317,0,0,1-.091-.234v-.975a.33.33,0,0,1,.084-.234.3.3,0,0,1,.228-.091h6.643a.317.317,0,0,1,.234.091.317.317,0,0,1,.091.234V-7.8a.317.317,0,0,1-.091.234.317.317,0,0,1-.234.091H40.534V-.312a.313.313,0,0,1-.084.221A.3.3,0,0,1,40.222,0Zm5.876,0a.3.3,0,0,1-.221-.091.3.3,0,0,1-.091-.221V-8.775a.33.33,0,0,1,.084-.234.3.3,0,0,1,.228-.091h5.733a.317.317,0,0,1,.234.091.317.317,0,0,1,.091.234V-7.9a.3.3,0,0,1-.091.227.33.33,0,0,1-.234.085H46.345v2.275h3.978a.317.317,0,0,1,.234.091.317.317,0,0,1,.091.234v.819a.3.3,0,0,1-.091.227.33.33,0,0,1-.234.085H46.345v2.353h4.368a.33.33,0,0,1,.234.084.3.3,0,0,1,.091.227v.884a.3.3,0,0,1-.091.228A.33.33,0,0,1,50.713,0ZM56.095.13a3.913,3.913,0,0,1-2.775-.917,3.592,3.592,0,0,1-1.047-2.607q-.013-.351-.013-1.144t.013-1.17A3.592,3.592,0,0,1,53.326-8.3a3.884,3.884,0,0,1,2.769-.929,4.763,4.763,0,0,1,2.015.4,3.2,3.2,0,0,1,1.333,1.086,2.821,2.821,0,0,1,.5,1.547v.026A.221.221,0,0,1,59.858-6a.285.285,0,0,1-.189.071H58.409A.336.336,0,0,1,58.175-6a.549.549,0,0,1-.13-.253,1.838,1.838,0,0,0-.676-1.138,2.205,2.205,0,0,0-1.274-.332q-1.859,0-1.937,2.08-.013.351-.013,1.079t.013,1.105q.078,2.08,1.937,2.08a2.212,2.212,0,0,0,1.268-.332,1.824,1.824,0,0,0,.682-1.138.549.549,0,0,1,.13-.253.336.336,0,0,1,.234-.072H59.67a.287.287,0,0,1,.2.078.219.219,0,0,1,.071.195,2.821,2.821,0,0,1-.5,1.547A3.2,3.2,0,0,1,58.11-.266,4.763,4.763,0,0,1,56.095.13ZM61.8,0a.3.3,0,0,1-.221-.091.3.3,0,0,1-.091-.221V-8.775a.33.33,0,0,1,.084-.234A.3.3,0,0,1,61.8-9.1H63a.317.317,0,0,1,.234.091.317.317,0,0,1,.091.234v3.341h3.8V-8.775a.317.317,0,0,1,.091-.234.3.3,0,0,1,.221-.091H68.64a.3.3,0,0,1,.228.091.33.33,0,0,1,.085.234V-.312a.313.313,0,0,1-.085.221A.3.3,0,0,1,68.64,0H67.431a.3.3,0,0,1-.221-.091.3.3,0,0,1-.091-.221V-3.783h-3.8V-.312a.3.3,0,0,1-.091.221A.317.317,0,0,1,63,0Z" transform="translate(178 60)"/><path class="a" d="M2,0H3A2.055,2.055,0,0,1,5,2.106,2.055,2.055,0,0,1,3,4.211H2A2.055,2.055,0,0,1,0,2.106,2.055,2.055,0,0,1,2,0Z" transform="translate(207 51.789)"/><path class="a" d="M2,0H3A2.044,2.044,0,0,1,5,2.086,2.044,2.044,0,0,1,3,4.172H2A2.044,2.044,0,0,1,0,2.086,2.044,2.044,0,0,1,2,0Z" transform="translate(207 55)"/></g></g></svg>