<svg xmlns="http://www.w3.org/2000/svg" width="17.467" height="19.962" viewBox="0 0 17.467 19.962"><path d="M12.227,11.852c-1.119,0-1.657.624-3.493.624s-2.37-.624-3.493-.624A5.241,5.241,0,0,0,0,17.092v1a1.872,1.872,0,0,0,1.871,1.871H15.6a1.872,1.872,0,0,0,1.871-1.871v-1A5.241,5.241,0,0,0,12.227,11.852ZM15.6,18.09H1.871v-1A3.374,3.374,0,0,1,5.24,13.724a15.265,15.265,0,0,0,3.493.624,15.118,15.118,0,0,0,3.493-.624A3.374,3.374,0,0,1,15.6,17.092ZM8.733,11.229A5.614,5.614,0,1,0,3.119,5.614,5.616,5.616,0,0,0,8.733,11.229Zm0-9.357A3.743,3.743,0,1,1,4.99,5.614,3.749,3.749,0,0,1,8.733,1.871Z"/></svg>