<svg xmlns="http://www.w3.org/2000/svg" width="113.476" height="108.624" viewBox="0 0 113.476 108.624"><defs><style>.a{fill:#dfe3e3;}.b,.w{fill:#e6e6e6;}.c{fill:#e0e0e0;}.ae,.d,.j{fill:#f7f8fd;}.e,.p{opacity:0.15;}.af,.f,.r{fill:#fff;}.g,.r{opacity:0.4;}.h{opacity:0.2;}.i{opacity:0.3;}.j,.n{opacity:0.6;}.af,.k,.t,.u{opacity:0.5;}.ac,.l{fill:#37474f;}.ac,.ad,.ae,.m,.w{opacity:0.7;}.o{opacity:0.1;}.q{fill:#ebebeb;}.ag,.s{fill:#fafafa;}.t,.v{fill:#455a64;}.x{opacity:0.55;}.y{opacity:0.65;}.z{opacity:0.35;}.aa{opacity:0.45;}.ab{opacity:0.05;}.ad,.ah{fill:#263238;}.ag{opacity:0.95;}</style></defs><g transform="translate(-14.39 -34.981)"><g transform="translate(14.39 78.088)"><ellipse class="a" cx="56.738" cy="32.758" rx="56.738" ry="32.758" transform="translate(0)"/></g><g transform="translate(18.378 83.738)"><path class="b" d="M41.153,277.357l-9.787-5.649a.609.609,0,0,1,0-1.154l56.926-32.866a2.213,2.213,0,0,1,2,0l9.787,5.649a.609.609,0,0,1,0,1.154L43.152,277.357A2.2,2.2,0,0,1,41.153,277.357Z" transform="translate(-30.952 -237.45)"/><path class="b" d="M358.088,281.782l-17.707-10.114a1.154,1.154,0,0,0-1.043,0l-.183.106c-.289.166-.287.431,0,.595l6.037,3.379-6.172,3.562-5.965-3.436a1.154,1.154,0,0,0-1.043,0l-.183.106a.318.318,0,0,0,0,.6l18.006,10.393.2-.241.1.055,7.106-4.094.055.034.1-.125.152-.087-.053-.031Z" transform="translate(-259.211 -263.333)"/><path class="c" d="M200.347,366.584a7.976,7.976,0,0,1-3.964-.963,3.212,3.212,0,0,1-.359-.241l-.987-.677,5.78-.848.388-.809-1.279-.751-5.416.79.265-.751a3.5,3.5,0,0,1,1.671-1.806,8.019,8.019,0,0,1,3.9-.93,9.4,9.4,0,0,1,1.717.156L219.641,349.6a2.249,2.249,0,0,1-.1-1.4,3.356,3.356,0,0,1,1.731-2.013,8.645,8.645,0,0,1,7.87.036c.125.072.241.149.356.229l.987.7-5.78.845-.388.809,1.286.754,5.413-.79-.265.751a3.5,3.5,0,0,1-1.671,1.806,8.019,8.019,0,0,1-3.9.93,9.181,9.181,0,0,1-1.717-.159L205.891,362.25a2.256,2.256,0,0,1,.1,1.4,3.356,3.356,0,0,1-1.731,2.013A8.023,8.023,0,0,1,200.347,366.584Z" transform="translate(-155.123 -319.298)"/></g><g transform="translate(15.998 94.931)"><path class="d" d="M38.988,296.3v-5.452a10.192,10.192,0,0,0-2.432-5.411c-2.155-2.333-4.094-1.539-4.715-.431s.8,3.21,1.715,4.392c1.1,1.423,5.433,8.031,5.433,11Z" transform="translate(-29.13 -283.932)"/><g class="e" transform="translate(2.558)"><path d="M38.988,296.3v-5.452a10.192,10.192,0,0,0-2.432-5.411c-2.155-2.333-4.094-1.539-4.715-.431s.8,3.21,1.715,4.392c1.1,1.423,5.433,8.031,5.433,11Z" transform="translate(-31.688 -283.932)"/></g><path class="f" d="M43.962,298.921a.132.132,0,0,1-.13-.111,19.265,19.265,0,0,0-5.553-10.066.137.137,0,0,1,0-.19.13.13,0,0,1,.188,0,19.534,19.534,0,0,1,5.64,10.223.132.132,0,0,1-.108.152Z" transform="translate(-34.105 -287.41)"/><path class="d" d="M31.859,324.64s.188-.568-.65-.722-1.156-.84-1.235-2.008-.431-2.006-1.481-2.179-1.9.356-2.577-.169-2.444-1.787-3.9-1.209-.987,1.833-.224,2.649.985,1.086.4,2.408-.159,2.557,1.192,2.868,2.1.149,2.126,1.633.226,2.141.963,2.721,3.068.32,4.036.544a2.109,2.109,0,0,1,1.358,1.088Z" transform="translate(-21.067 -309.951)"/><path class="f" d="M39.868,336.939a.111.111,0,0,1-.108-.077,18.829,18.829,0,0,0-8.082-10.28.118.118,0,0,1-.048-.156.116.116,0,0,1,.157-.048,19.036,19.036,0,0,1,8.188,10.41.118.118,0,0,1-.072.147A.114.114,0,0,1,39.868,336.939Z" transform="translate(-29.077 -316.146)"/><path class="f" d="M37.5,342.4h-.024a17.792,17.792,0,0,0-4.2-.166.121.121,0,0,1-.017-.241,18.161,18.161,0,0,1,4.27.171.116.116,0,0,1,.087.14A.118.118,0,0,1,37.5,342.4Z" transform="translate(-30.236 -327.973)"/><path class="f" d="M51.408,357.531c-.734,0-1.512-.048-1.56-.051a.116.116,0,0,1-.108-.125.113.113,0,0,1,.123-.108,17.831,17.831,0,0,0,2.512,0,.118.118,0,0,1,.132.1.116.116,0,0,1-.1.132A7.318,7.318,0,0,1,51.408,357.531Z" transform="translate(-42.834 -339.59)"/><path class="f" d="M47.75,331.977h0a.116.116,0,0,1-.111-.12,8.852,8.852,0,0,1,.518-2.447.116.116,0,0,1,.149-.065.118.118,0,0,1,.067.149,8.708,8.708,0,0,0-.5,2.374A.118.118,0,0,1,47.75,331.977Z" transform="translate(-41.241 -318.403)"/></g><g transform="translate(25.646 34.981)"><path class="d" d="M173.558,283.585l8.414-4.864a2.209,2.209,0,0,0,1.3-1.813v-1.17l-8.725-4.922a1.854,1.854,0,0,1-.838-1.445v-8.98l-14.69,8.491v8.975a1.852,1.852,0,0,0,.836,1.445l7.427,4.279A6.913,6.913,0,0,0,173.558,283.585Z" transform="translate(-135.447 -206.108)"/><path class="g" d="M173.558,283.585l8.414-4.864a2.209,2.209,0,0,0,1.3-1.813v-1.17l-8.725-4.922a1.854,1.854,0,0,1-.838-1.445v-8.98l-14.69,8.491v8.975a1.852,1.852,0,0,0,.836,1.445l7.427,4.279A6.913,6.913,0,0,0,173.558,283.585Z" transform="translate(-135.447 -206.108)"/><path class="h" d="M162.52,301.366v1.166l-2.695-1.551a1.861,1.861,0,0,1-.836-1.445v-8.98l2.8-1.616c.058.71.12,1.445.178,2.167l-1.963,1.137v6.7a1.842,1.842,0,0,0,.836,1.445Z" transform="translate(-135.424 -227.783)"/><path class="d" d="M163.21,282.578a1.845,1.845,0,0,0,.836,1.445l6.413,3.694a6.938,6.938,0,0,0,6.28,0l8.428-4.864c1.734-1,1.734-2.622,0-3.612l-6.415-3.7a1.849,1.849,0,0,1-.838-1.445V267.38l-14.69,8.491Z" transform="translate(-138.628 -211.415)"/><path class="i" d="M163.21,282.578a1.845,1.845,0,0,0,.836,1.445l6.413,3.694a6.938,6.938,0,0,0,6.28,0l8.428-4.864c1.734-1,1.734-2.622,0-3.612l-6.415-3.7a1.849,1.849,0,0,1-.838-1.445V267.38l-14.69,8.491Z" transform="translate(-138.628 -211.415)"/><path class="j" d="M180.463,276.524h0l-1.7-.985a1.849,1.849,0,0,1-.838-1.445V267.38l-14.69,8.491v6.707a1.845,1.845,0,0,0,.836,1.445l1.686.963Z" transform="translate(-138.643 -211.415)"/><path class="i" d="M180.463,276.524h0l-1.7-.985a1.849,1.849,0,0,1-.838-1.445V267.38l-14.69,8.491v6.707a1.845,1.845,0,0,0,.836,1.445l1.686.963Z" transform="translate(-138.643 -211.415)"/><path class="d" d="M219.7,324.12V325.3a2.214,2.214,0,0,1-1.3,1.813l-8.414,4.857a6.3,6.3,0,0,1-2.986.744v-1.154a6.3,6.3,0,0,0,3-.744l8.414-4.867A2.248,2.248,0,0,0,219.7,324.12Z" transform="translate(-171.873 -254.491)"/><path class="h" d="M219.7,324.12V325.3a2.214,2.214,0,0,1-1.3,1.813l-8.414,4.857a6.3,6.3,0,0,1-2.986.744v-1.154a6.3,6.3,0,0,0,3-.744l8.414-4.867A2.248,2.248,0,0,0,219.7,324.12Z" transform="translate(-171.873 -254.491)"/><path class="d" d="M62.13,116.219a2.244,2.244,0,0,0,2.03-.039l56.832-32.811a2.314,2.314,0,0,0,1.045-1.813V36.979a1.965,1.965,0,0,0-3.01-1.736L62.2,68.054a2.309,2.309,0,0,0-1.048,1.811v44.589a2.247,2.247,0,0,0,.98,1.765Z" transform="translate(-61.145 -34.981)"/><path class="i" d="M62.13,116.219a2.244,2.244,0,0,0,2.03-.039l56.832-32.811a2.314,2.314,0,0,0,1.045-1.813V36.979a1.965,1.965,0,0,0-3.01-1.736L62.2,68.054a2.309,2.309,0,0,0-1.048,1.811v44.589a2.247,2.247,0,0,0,.98,1.765Z" transform="translate(-61.145 -34.981)"/><path class="d" d="M70.355,120.121l56.832-32.808a2.314,2.314,0,0,0,1.045-1.813V40.923c0-.667-.467-.939-1.045-.6L70.355,73.124a2.312,2.312,0,0,0-1.045,1.813v44.575C69.308,120.187,69.777,120.456,70.355,120.121Z" transform="translate(-67.34 -38.924)"/><path class="k" d="M70.355,120.121l56.832-32.808a2.314,2.314,0,0,0,1.045-1.813V40.923c0-.667-.467-.939-1.045-.6L70.355,73.124a2.312,2.312,0,0,0-1.045,1.813v44.575C69.308,120.187,69.777,120.456,70.355,120.121Z" transform="translate(-67.34 -38.924)"/><path class="d" d="M63.988,362.607a1.957,1.957,0,0,1-2.858-1.818V358l1.965,1.137v2.789C63.1,362.535,63.483,362.816,63.988,362.607Z" transform="translate(-61.13 -280.212)"/><path class="g" d="M63.988,362.607a1.957,1.957,0,0,1-2.858-1.818V358l1.965,1.137v2.789C63.1,362.535,63.483,362.816,63.988,362.607Z" transform="translate(-61.13 -280.212)"/><path class="d" d="M69.3,255.439v2.786c0,.667.482.939,1.048.6l56.832-32.811a2.314,2.314,0,0,0,1.048-1.818V221.41Z" transform="translate(-67.333 -176.515)"/><path class="i" d="M69.3,255.439v2.786c0,.667.482.939,1.048.6l56.832-32.811a2.314,2.314,0,0,0,1.048-1.818V221.41Z" transform="translate(-67.333 -176.515)"/><path class="d" d="M77.46,122.746v-37a1.387,1.387,0,0,1,.629-1.086L131.826,53.63c.349-.2.629-.039.629.361v37a1.387,1.387,0,0,1-.629,1.088L78.089,123.109C77.742,123.309,77.46,123.145,77.46,122.746Z" transform="translate(-73.528 -49.074)"/><path class="l" d="M77.46,122.746v-37a1.387,1.387,0,0,1,.629-1.086L131.826,53.63c.349-.2.629-.039.629.361v37a1.387,1.387,0,0,1-.629,1.088L78.089,123.109C77.742,123.309,77.46,123.145,77.46,122.746Z" transform="translate(-73.528 -49.074)"/><path class="d" d="M188.917,296.016a1.926,1.926,0,0,0-.867,1.5c0,.551.388.775.867.5a1.912,1.912,0,0,0,.865-1.5C189.781,295.963,189.394,295.739,188.917,296.016Z" transform="translate(-157.486 -233.065)"/><path class="d" d="M63.413,176.682a2.223,2.223,0,0,0-.308,1.033v42.908l-1.965-1.137v-42.9a2.167,2.167,0,0,1,.308-1.033Z" transform="translate(-61.138 -141.699)"/><path class="m" d="M63.413,176.682a2.223,2.223,0,0,0-.308,1.033v42.908l-1.965-1.137v-42.9a2.167,2.167,0,0,1,.308-1.033Z" transform="translate(-61.138 -141.699)"/></g><g transform="translate(90.594 59.986)"><path class="d" d="M372.471,157.451l-10.02,27.27h0a.351.351,0,0,1-.176.188,1,1,0,0,1-.913,0,.349.349,0,0,1-.188-.224.386.386,0,0,1,0-.075.68.68,0,0,1,.036-.188L371.26,157a.645.645,0,1,1,1.2.446Z" transform="translate(-353.866 -152.254)"/><path class="k" d="M372.471,157.451l-10.02,27.27h0a.351.351,0,0,1-.176.188,1,1,0,0,1-.913,0,.349.349,0,0,1-.188-.224.386.386,0,0,1,0-.075.68.68,0,0,1,.036-.188L371.26,157a.645.645,0,1,1,1.2.446Z" transform="translate(-353.866 -152.254)"/><rect class="d" width="1.445" height="11.602" transform="translate(4.85 24.102) rotate(-60)"/><g class="n" transform="translate(4.85 22.85)"><rect width="1.445" height="11.602" transform="translate(0 1.251) rotate(-60)"/></g><rect class="d" width="1.445" height="11.602" transform="translate(12.156 19.884) rotate(-60)"/><g class="n" transform="translate(12.156 18.633)"><rect width="1.445" height="11.602" transform="translate(0 1.251) rotate(-60)"/></g><path class="d" d="M374.14,142.143l5.358-3.094a1.414,1.414,0,0,1,2.167.963l8.9,41.617a.355.355,0,0,1,.012.087.369.369,0,0,1,0,.089.347.347,0,0,1-.188.222,1,1,0,0,1-.913,0,.4.4,0,0,1-.178-.193.214.214,0,0,1,0-.039l-8.9-41.514a.142.142,0,0,0-.253-.113l-5.361,3.094" transform="translate(-363.711 -138.819)"/><path class="g" d="M374.14,142.143l5.358-3.094a1.414,1.414,0,0,1,2.167.963l8.9,41.617a.355.355,0,0,1,.012.087.369.369,0,0,1,0,.089.347.347,0,0,1-.188.222,1,1,0,0,1-.913,0,.4.4,0,0,1-.178-.193.214.214,0,0,1,0-.039l-8.9-41.514a.142.142,0,0,0-.253-.113l-5.361,3.094" transform="translate(-363.711 -138.819)"/><path class="d" d="M399.548,295.1l-3.263-1.874a.429.429,0,0,1-.2-.337v-.077a.424.424,0,0,1,.2-.337l7.831-4.523a.429.429,0,0,1,.39,0l3.263,1.886a.424.424,0,0,1,.2.337v.077a.429.429,0,0,1-.2.337l-7.831,4.522A.443.443,0,0,1,399.548,295.1Z" transform="translate(-380.375 -252.003)"/><path class="o" d="M396.148,307.43a.388.388,0,0,0-.058.193v.077a.429.429,0,0,0,.2.337l3.263,1.886a.4.4,0,0,0,.2.046v-.462Z" transform="translate(-380.375 -266.826)"/><path class="p" d="M411.26,301.193v.47a.4.4,0,0,0,.2-.046l3.916-2.261,3.916-2.268a.429.429,0,0,0,.2-.337v-.077a.388.388,0,0,0-.058-.193Z" transform="translate(-391.892 -258.513)"/><path class="d" d="M393.655,267.579l-3.27-1.883a.431.431,0,0,1-.2-.337v-.079a.431.431,0,0,1,.2-.337l7.831-4.52a.429.429,0,0,1,.39,0l3.263,1.883a.431.431,0,0,1,.2.337v.079a.431.431,0,0,1-.2.337l-7.831,4.52A.424.424,0,0,1,393.655,267.579Z" transform="translate(-375.896 -231.103)"/><path class="o" d="M390.268,280a.387.387,0,0,0-.058.19v.079a.431.431,0,0,0,.2.337l3.265,1.883a.388.388,0,0,0,.193.048v-.462Z" transform="translate(-375.911 -246.002)"/><path class="p" d="M405.38,273.713v.462a.39.39,0,0,0,.2-.048l3.916-2.259,3.916-2.261a.431.431,0,0,0,.2-.337v-.079a.388.388,0,0,0-.058-.19Z" transform="translate(-387.428 -237.651)"/><path class="d" d="M387.791,240.114l-3.265-1.881a.431.431,0,0,1-.2-.337v-.077a.438.438,0,0,1,.2-.337l7.831-4.52a.429.429,0,0,1,.39,0l3.265,1.883a.436.436,0,0,1,.193.337v.077a.436.436,0,0,1-.193.34l-7.831,4.52A.429.429,0,0,1,387.791,240.114Z" transform="translate(-371.447 -210.256)"/><path class="o" d="M384.388,252.46a.4.4,0,0,0-.058.193v.077a.431.431,0,0,0,.2.337l1.633.944,1.633.942a.39.39,0,0,0,.2.046v-.46Z" transform="translate(-371.447 -225.094)"/><path class="p" d="M399.51,246.2v.46a.4.4,0,0,0,.2-.046l3.916-2.261,3.916-2.268a.436.436,0,0,0,.193-.34v-.077a.4.4,0,0,0-.055-.19Z" transform="translate(-382.972 -216.758)"/><path class="d" d="M381.918,212.611l-3.263-1.886a.429.429,0,0,1-.2-.337v-.077a.429.429,0,0,1,.2-.337l7.831-4.522a.424.424,0,0,1,.388,0l3.275,1.886a.433.433,0,0,1,.2.337v.077a.433.433,0,0,1-.2.337l-7.831,4.522A.429.429,0,0,1,381.918,212.611Z" transform="translate(-366.991 -189.37)"/><path class="p" d="M393.63,218.743v.462a.4.4,0,0,0,.2-.046l3.916-2.261,3.925-2.261a.429.429,0,0,0,.2-.337v-.077a.4.4,0,0,0-.058-.193Z" transform="translate(-378.508 -195.918)"/><path class="o" d="M378.515,225a.418.418,0,0,0-.055.193v.077a.429.429,0,0,0,.2.337l3.263,1.886a.4.4,0,0,0,.2.046v-.467Z" transform="translate(-366.991 -204.247)"/><path class="d" d="M369.228,181.212l-5.423-3.131a.424.424,0,0,1-.2-.337v-.077a.429.429,0,0,1,.2-.337l7.831-4.522a.443.443,0,0,1,.39,0l5.423,3.131a.424.424,0,0,1,.2.337v.077a.431.431,0,0,1-.2.337l-7.831,4.522A.443.443,0,0,1,369.228,181.212Z" transform="translate(-355.717 -164.588)"/><path class="p" d="M387.75,191.232v.453a.424.424,0,0,0,.2-.046l3.916-2.261,3.916-2.261a.431.431,0,0,0,.2-.337V186.7a.388.388,0,0,0-.058-.193Z" transform="translate(-374.043 -175.025)"/><path class="o" d="M363.668,192.32a.4.4,0,0,0-.058.193v.077a.429.429,0,0,0,.2.337l5.423,3.131a.431.431,0,0,0,.2.046v-.462Z" transform="translate(-355.717 -179.436)"/><path class="d" d="M342.131,174.922,332.12,202.156h0l-.024.06a.407.407,0,0,1-.161.159,1.021,1.021,0,0,1-.915,0,.347.347,0,0,1-.185-.226.362.362,0,0,1,0-.072.584.584,0,0,1,.039-.19l10.047-27.421a.645.645,0,1,1,1.2.443Z" transform="translate(-330.832 -165.509)"/><path class="k" d="M342.131,174.922,332.12,202.156h0l-.024.06a.407.407,0,0,1-.161.159,1.021,1.021,0,0,1-.915,0,.347.347,0,0,1-.185-.226.362.362,0,0,1,0-.072.584.584,0,0,1,.039-.19l10.047-27.421a.645.645,0,1,1,1.2.443Z" transform="translate(-330.832 -165.509)"/><path class="d" d="M371.379,153.763a1,1,0,0,0-.431.963l8.9,41.62a.366.366,0,0,1,.014.1.359.359,0,0,1,0,.072.351.351,0,0,1-.188.226,1,1,0,0,1-.913,0,.407.407,0,0,1-.178-.185h0l-.012-.053-8.886-41.5a2.3,2.3,0,0,1,1.05-2.358" transform="translate(-360.304 -149.319)"/><path class="g" d="M379.813,196.33l-8.91-41.617a1,1,0,0,1,.431-.963l-.645-1.12a2.3,2.3,0,0,0-1.05,2.358l8.886,41.5.012.053h0a.407.407,0,0,0,.178.185,1,1,0,0,0,.913,0,.352.352,0,0,0,.188-.226.362.362,0,0,0,0-.072.367.367,0,0,0,0-.1Z" transform="translate(-360.266 -149.304)"/></g><g transform="translate(37.867 44.342)"><path class="d" d="M343.85,76.71a.256.256,0,0,1,.036.07.256.256,0,0,0-.036-.07Z" transform="translate(-287.988 -76.022)"/><path class="d" d="M344.11,77.11a.479.479,0,0,1,.026.084A.479.479,0,0,0,344.11,77.11Z" transform="translate(-288.186 -76.326)"/><path class="q" d="M112.871,143.525V106.681a1.51,1.51,0,0,1,.684-1.185l53.62-30.976a.482.482,0,0,1,.482-.048c-.13-.077-.848-.482-.963-.563a.482.482,0,0,0-.5.036l-53.624,30.966a1.517,1.517,0,0,0-.684,1.185V142.94a.482.482,0,0,0,.2.443l.978.564h0A.46.46,0,0,1,112.871,143.525Z" transform="translate(-111.879 -73.854)"/><path class="d" d="M112.039,205.37a1.344,1.344,0,0,0-.149.571V211.5l.978.563h0v-5.539a1.344,1.344,0,0,1,.152-.58Z" transform="translate(-111.887 -173.699)"/><path class="p" d="M112.039,205.37a1.344,1.344,0,0,0-.149.571V211.5l.978.563h0v-5.539a1.344,1.344,0,0,1,.152-.58Z" transform="translate(-111.887 -173.699)"/><path class="d" d="M114.025,105.487,167.654,74.52a.482.482,0,0,1,.482-.048c-.13-.077-.848-.482-.963-.563a.482.482,0,0,0-.5.036l-53.624,30.966a1.445,1.445,0,0,0-.535.614l.983.566h0A1.426,1.426,0,0,1,114.025,105.487Z" transform="translate(-112.358 -73.854)"/><path class="r" d="M114.025,105.487,167.654,74.52a.482.482,0,0,1,.482-.048c-.13-.077-.848-.482-.963-.563a.482.482,0,0,0-.5.036l-53.624,30.966a1.445,1.445,0,0,0-.535.614l.983.566h0A1.426,1.426,0,0,1,114.025,105.487Z" transform="translate(-112.358 -73.854)"/><path class="s" d="M170.957,76.7v36.844a1.512,1.512,0,0,1-.684,1.185L116.644,145.7c-.38.2-.686.026-.684-.395V108.465a1.51,1.51,0,0,1,.684-1.185L170.273,76.3C170.651,76.085,170.957,76.263,170.957,76.7Z" transform="translate(-114.977 -75.643)"/><path class="d" d="M343.51,76.42h0a.26.26,0,0,1,.048.039A.351.351,0,0,0,343.51,76.42Z" transform="translate(-287.73 -75.802)"/><path class="d" d="M344.28,77.63a.732.732,0,0,1,.014.152A.732.732,0,0,0,344.28,77.63Z" transform="translate(-288.315 -76.721)"/><path class="s" d="M343.5,76.42Z" transform="translate(-287.723 -75.802)"/><path class="s" d="M344.22,77.46a.274.274,0,0,1,.014.041A.274.274,0,0,0,344.22,77.46Z" transform="translate(-288.269 -76.592)"/><path class="s" d="M344,77a.117.117,0,0,1,.024.036A.118.118,0,0,0,344,77Z" transform="translate(-288.102 -76.242)"/><path class="s" d="M343.7,76.58c.012,0,.026.019.036.031S343.712,76.592,343.7,76.58Z" transform="translate(-287.874 -75.924)"/><path class="d" d="M170.987,76.719v2.408L116,110.883v-2.408a1.51,1.51,0,0,1,.684-1.185L170.3,76.324C170.682,76.105,170.987,76.283,170.987,76.719Z" transform="translate(-115.008 -75.658)"/><path class="b" d="M170.985,88.26v3.131L116,123.151v-3.131l1.026-.595c.275-.159.366-.4.5-.862l.349-1.2a1.242,1.242,0,0,1,.5-.865l11.879-6.866a.437.437,0,0,1,.7.171l.426.775c.157.27.241.429.511.27Z" transform="translate(-115.008 -84.791)"/><path class="f" d="M334.622,83.4c.294-.171.532-.034.532.306a1.18,1.18,0,0,1-.532.922c-.294.169-.532.031-.532-.308A1.17,1.17,0,0,1,334.622,83.4Z" transform="translate(-280.579 -81.044)"/><path class="f" d="M326.672,87.983c.294-.169.532-.031.532.306a1.18,1.18,0,0,1-.532.922c-.294.169-.532.031-.532-.308A1.175,1.175,0,0,1,326.672,87.983Z" transform="translate(-274.543 -84.526)"/><path class="f" d="M318.722,92.563c.294-.169.532-.031.532.308a1.17,1.17,0,0,1-.532.92c-.294.171-.532.034-.532-.306A1.18,1.18,0,0,1,318.722,92.563Z" transform="translate(-268.508 -88.003)"/><path class="t" d="M122.3,220.254l-.783.458.3-.576a.137.137,0,0,0,0-.14c-.022-.026-.063,0-.089.043l-.424.816h0a.147.147,0,0,0,0,.029h0a.113.113,0,0,0,0,.041.08.08,0,0,0,0,.036h0a.031.031,0,0,0,0,.017h0l.424.328a.046.046,0,0,0,.043,0,.157.157,0,0,0,.041-.2l-.3-.229.783-.453a.166.166,0,0,0,.063-.132C122.363,220.262,122.334,220.23,122.3,220.254Z" transform="translate(-119.032 -184.796)"/><path class="t" d="M127.963,216.724l.783-.45-.3-.241c-.026-.019-.029-.079,0-.132s.063-.079.089-.06l.424.325h0a.1.1,0,0,1,0,.017h0a.147.147,0,0,1,0,.036.266.266,0,0,1,0,.041h0v.031h0l-.424.816a.12.12,0,0,1-.041.048.036.036,0,0,1-.048,0,.142.142,0,0,1,0-.142l.3-.573-.783.453c-.034.019-.063,0-.063-.06A.171.171,0,0,1,127.963,216.724Z" transform="translate(-124.042 -181.643)"/><path class="t" d="M136.072,210.072c0-.048-.046-.043-.067,0l-.106.262c-.183-.022-.4.157-.554.482a1.063,1.063,0,0,0,0,1.081.277.277,0,0,0,.352.022.963.963,0,0,0,.352-.426.137.137,0,0,0,0-.137c-.024-.024-.065,0-.089.051-.144.306-.38.443-.525.3a.793.793,0,0,1,0-.809c.1-.217.241-.347.38-.354l-.082.2c-.019.051,0,.1.031.077l.32-.207a.108.108,0,0,0,.036-.089Z" transform="translate(-129.584 -177.243)"/><path class="t" d="M172,180.584l.287-.6a.183.183,0,0,0,0-.188c-.034-.031-.089,0-.123.07l-.284.6-.287-.275c-.034-.031-.087,0-.12.07a.183.183,0,0,0,0,.188l.284.275-.284.6a.183.183,0,0,0,0,.188.048.048,0,0,0,.06,0,.178.178,0,0,0,.06-.075l.287-.6.284.275a.048.048,0,0,0,.06,0,.164.164,0,0,0,.063-.075.183.183,0,0,0,0-.188Z" transform="translate(-157.099 -154.271)"/><path class="s" d="M143.13,125.905V124.9a1.105,1.105,0,0,1,.5-.865L188.28,98.265c.275-.159.5-.031.5.287V99.56a1.1,1.1,0,0,1-.5.862l-44.652,25.767C143.354,126.351,143.13,126.223,143.13,125.905Z" transform="translate(-135.604 -92.334)"/><path class="b" d="M326.8,102.077a.1.1,0,0,1-.046,0,.137.137,0,0,1-.077-.154l.048-.407-.19-.137a.135.135,0,0,1-.053-.113.224.224,0,0,1,.082-.178l.294-.226v-.019l.13-.431a.185.185,0,0,1,.152-.142.118.118,0,0,1,.118.072l.108.241.241-.094a.12.12,0,0,1,.137.031.183.183,0,0,1,0,.2l-.212.4.043.383a.241.241,0,0,1-.063.183.149.149,0,0,1-.12.046l-.241-.029-.258.328A.154.154,0,0,1,326.8,102.077Zm-.135-.838.188.137a.142.142,0,0,1,.053.14l-.031.26.166-.21a.149.149,0,0,1,.135-.065l.241.029a.046.046,0,0,0,0-.022l-.051-.359a.241.241,0,0,1,.026-.132l.178-.332-.181.067a.12.12,0,0,1-.157-.063l-.082-.173-.116.371a.214.214,0,0,1-.072.113l-.294.224Z" transform="translate(-274.801 -93.908)"/><g class="u" transform="translate(53.643 4.727)"><path class="v" d="M334.822,94.589a.161.161,0,0,1-.087-.3l1.3-.78a.161.161,0,1,1,.166.277l-1.3.787A.14.14,0,0,1,334.822,94.589Z" transform="translate(-334.65 -93.484)"/><path class="v" d="M334.8,97.764a.161.161,0,0,1-.082-.3l1.317-.761a.159.159,0,0,1,.219.06.161.161,0,0,1-.058.222l-1.315.759A.173.173,0,0,1,334.8,97.764Z" transform="translate(-334.635 -95.91)"/><path class="v" d="M334.8,100.922a.164.164,0,0,1-.14-.082.161.161,0,0,1,.058-.222l1.317-.759a.159.159,0,0,1,.219.058.161.161,0,0,1-.058.222l-1.315.761A.173.173,0,0,1,334.8,100.922Z" transform="translate(-334.636 -98.308)"/></g><path class="b" d="M112.868,218.346l-.978-.566v3.138l.978.564Z" transform="translate(-111.887 -183.121)"/><path class="d" d="M173.756,115.518a.383.383,0,0,0-.347.048l-49.824,28.76a1.151,1.151,0,0,0-.52.9v2.184a.376.376,0,0,0,.142.332c-.089-.058-.877-.5-.963-.561a.371.371,0,0,1-.149-.335v-2.184a1.151,1.151,0,0,1,.523-.9L172.429,115a.376.376,0,0,1,.373-.036C172.882,115.017,173.571,115.4,173.756,115.518Z" transform="translate(-119.633 -105.039)"/><path class="d" d="M126.653,146.1l49.822-28.76c.289-.169.523-.034.523.3v2.184a1.151,1.151,0,0,1-.523.9l-49.822,28.765c-.289.166-.523.031-.523-.3v-2.184A1.151,1.151,0,0,1,126.653,146.1Z" transform="translate(-122.698 -106.814)"/><path class="p" d="M123.189,236.854l-.98-.564a1.072,1.072,0,0,0-.154.515v2.184a.371.371,0,0,0,.149.335c.1.058.884.5.963.561a.376.376,0,0,1-.142-.332v-2.184A1.079,1.079,0,0,1,123.189,236.854Z" transform="translate(-119.603 -197.173)"/><path class="r" d="M174.217,115.518c-.185-.113-.869-.5-.963-.554a.376.376,0,0,0-.373.036l-49.812,28.768a1.059,1.059,0,0,0-.368.388l.98.563a1.055,1.055,0,0,1,.366-.388l49.824-28.765A.383.383,0,0,1,174.217,115.518Z" transform="translate(-120.094 -105.039)"/><path class="s" d="M286.055,126.977a1.12,1.12,0,0,1-.52.867l-12.652,7.321c-.289.166-.523.048-.523-.265a1.117,1.117,0,0,1,.523-.865l12.652-7.3C285.821,126.558,286.055,126.676,286.055,126.977Z" transform="translate(-233.714 -113.938)"/><path class="v" d="M236.557,158.139l23.08-13.317c.219-.125.4-.036.4.2a.857.857,0,0,1-.4.66l-23.08,13.327c-.219.128-.4.039-.4-.2A.852.852,0,0,1,236.557,158.139Z" transform="translate(-206.231 -127.689)"/><path class="v" d="M236.557,165.251l23.08-13.329c.219-.125.4-.036.4.2a.852.852,0,0,1-.4.66l-23.08,13.322c-.219.128-.4.039-.4-.2A.853.853,0,0,1,236.557,165.251Z" transform="translate(-206.231 -133.079)"/><path class="v" d="M236.557,172.4l23.08-13.329c.219-.125.4-.036.4.2a.852.852,0,0,1-.4.66l-23.08,13.329c-.219.125-.4.036-.4-.2A.852.852,0,0,1,236.557,172.4Z" transform="translate(-206.231 -138.507)"/><g transform="translate(2.452 31.802)"><path class="w" d="M122.583,218.939l22.434-12.953c.287-.166.52-.031.52.3v20.262a1.156,1.156,0,0,1-.52.9l-22.434,12.956c-.289.166-.523.031-.523-.3V219.849a1.151,1.151,0,0,1,.523-.91Z" transform="translate(-122.06 -205.915)"/><path class="d" d="M151.4,271.7a1.3,1.3,0,0,0-.152-.241,1.177,1.177,0,0,0-.089-.1,1.006,1.006,0,0,0-.279-.2.938.938,0,0,0-.159-.07,1.326,1.326,0,0,0-.482-.063,1.469,1.469,0,0,0-.173.019l-.125.024-.123.031c-.046.014-.092.029-.14.048l-.123.048a1.312,1.312,0,0,1,0,.14v.183a5.161,5.161,0,0,1-2.331,4.038,2.672,2.672,0,0,1-.284.147h0a.964.964,0,0,0,.017.12.373.373,0,0,0,0,.051,1.265,1.265,0,0,0,.029.13.664.664,0,0,0,.034.118.968.968,0,0,0,.043.125.987.987,0,0,0,.046.1,1.263,1.263,0,0,0,.161.258,1.186,1.186,0,0,0,.181.183l.019.014.084.06h.017a.9.9,0,0,0,.106.058l.12.048a1.462,1.462,0,0,0,.9-.014,2.814,2.814,0,0,0,.267-.1c.092-.041.183-.089.277-.142a5.153,5.153,0,0,0,2.333-4.038A2.184,2.184,0,0,0,151.4,271.7Z" transform="translate(-140.949 -255.343)"/><path class="d" d="M137.051,253.205l-.241.482a.335.335,0,0,0,.019.3,2.746,2.746,0,0,1,.272.607.147.147,0,0,0,.2.1l1.228-.554a.13.13,0,0,1,.1,0Zm-1.52-2.589-.891-.515a.178.178,0,0,0-.063,0,.481.481,0,0,0-.058,0,.055.055,0,0,0-.034,0,.269.269,0,0,0-.058.046.034.034,0,0,0-.031.022l-.722,1.091-.917-.53h-.019l-.665-.383h0a.084.084,0,0,0-.034,0,.132.132,0,0,0-.07.019l-.949.549-.108.063h0l-.3.171h-.019a.3.3,0,0,0-.053.043.438.438,0,0,0-.087.13h0a.265.265,0,0,0-.024.082l-.14,1.536a.087.087,0,0,1,0,.024.257.257,0,0,1-.022.082.508.508,0,0,1-.116.181,8.2,8.2,0,0,0-.768.812.282.282,0,0,1-.272.077l-.884-.311a.2.2,0,0,0-.065,0h-.089l-.036.019a.082.082,0,0,0-.029.022.123.123,0,0,0-.031.039l-.417.722-.441.763-.157.272a.2.2,0,0,0-.024.135h0a.2.2,0,0,0,.065.123l.722.614a.257.257,0,0,1,.034.039.272.272,0,0,1,.048.142.291.291,0,0,1-.014.091,8.188,8.188,0,0,0-.318,1.069.482.482,0,0,1-.084.171.462.462,0,0,1-.094.1l-1.259.886a.258.258,0,0,0-.046.043.652.652,0,0,0-.041.06h0a.349.349,0,0,0-.055.169v1.594a.113.113,0,0,0,.048.1l1.6.925-.583,1.175a.183.183,0,0,0,.072.241l2.167,1.259h.029l-.026-.014-.145-.084a.188.188,0,0,1-.075-.241l.821-1.652a.186.186,0,0,0,.019-.065.356.356,0,0,0-.039-.241,2.819,2.819,0,0,1-.275-.609.147.147,0,0,0-.2-.1l-.619.279-.609.275a.108.108,0,0,1-.108,0h0a.111.111,0,0,1-.046-.1v-1.594a.33.33,0,0,1,.053-.169.3.3,0,0,1,.087-.1l1.262-.889a.441.441,0,0,0,.092-.1.481.481,0,0,0,.084-.171,8.081,8.081,0,0,1,.32-1.069.277.277,0,0,0,.014-.089h0a.258.258,0,0,0-.084-.183l-.71-.612a.229.229,0,0,1-.046-.262l.289-.5.359-.621.368-.636a.2.2,0,0,1,.157-.1h0a.159.159,0,0,1,.089,0l.886.308a.256.256,0,0,0,.272-.075,8.476,8.476,0,0,1,.766-.812.5.5,0,0,0,.116-.178.4.4,0,0,0,.029-.108l.137-1.536a.212.212,0,0,1,.024-.082.347.347,0,0,1,.142-.176l.26-.149.556-.323.542-.289a.118.118,0,0,1,.1-.012h0a.108.108,0,0,1,.055.094l.07.7.065.638a.147.147,0,0,0,.183.13,2.585,2.585,0,0,1,.665-.067.34.34,0,0,0,.193-.063.306.306,0,0,0,.075-.072l1.021-1.534a.154.154,0,0,1,.031-.036.185.185,0,0,1,.161-.041.106.106,0,0,1,.039.014Zm-3.058,14.148a.084.084,0,0,1-.019-.031.142.142,0,0,1-.012-.046l-.132-1.339a.144.144,0,0,0-.185-.13,2.807,2.807,0,0,1-.665.067.342.342,0,0,0-.267.132l-.294.441,1.577.91S132.476,264.764,132.473,264.764Z" transform="translate(-124.974 -239.458)"/><path class="x" d="M136.583,251.233a.106.106,0,0,0-.039-.014.185.185,0,0,0-.161.041.154.154,0,0,0-.031.036l-1.021,1.534a.306.306,0,0,1-.075.072.34.34,0,0,1-.193.063,2.586,2.586,0,0,0-.665.067.147.147,0,0,1-.183-.13l-.065-.638-.07-.7a.108.108,0,0,0-.046-.087h0a.118.118,0,0,0-.1.012l-.564.325-.556.323-.26.149a.347.347,0,0,0-.142.176.212.212,0,0,0-.024.082l-.137,1.536a.4.4,0,0,1-.029.108.5.5,0,0,1-.116.178,8.48,8.48,0,0,0-.766.812.256.256,0,0,1-.272.075l-.886-.308a.159.159,0,0,0-.089,0h0a.2.2,0,0,0-.157.1l-.368.636-.378.616-.289.5a.229.229,0,0,0,.046.263l.71.612a.258.258,0,0,1,.084.183h0a.277.277,0,0,1-.014.089,8.081,8.081,0,0,0-.32,1.069.481.481,0,0,1-.084.171.44.44,0,0,1-.092.1l-1.262.889a.3.3,0,0,0-.087.1.33.33,0,0,0-.053.169v1.594a.111.111,0,0,0,.046.1h0a.108.108,0,0,0,.108,0l.609-.275.619-.279a.147.147,0,0,1,.2.1,2.82,2.82,0,0,0,.275.609.357.357,0,0,1,.039.241.185.185,0,0,1-.019.065l-.821,1.652a.188.188,0,0,0,.075.241l.144.084.026.014H129.1l-2.167-1.259a.183.183,0,0,1-.072-.241l.583-1.175-1.6-.951a.113.113,0,0,1-.048-.1v-1.594a.349.349,0,0,1,.055-.169h0a.645.645,0,0,1,.041-.06.257.257,0,0,1,.046-.043l1.259-.886a.462.462,0,0,0,.094-.1.482.482,0,0,0,.084-.171,8.193,8.193,0,0,1,.318-1.069.291.291,0,0,0,.014-.092.272.272,0,0,0-.048-.142.258.258,0,0,0-.034-.039l-.722-.614a.2.2,0,0,1-.065-.123h0a.2.2,0,0,1,.024-.135l.157-.272.441-.763.12-.21.306-.53a.185.185,0,0,1,.224-.082h.014l.812.287h0l.07.024a.282.282,0,0,0,.272-.077,8.2,8.2,0,0,1,.768-.812.508.508,0,0,0,.116-.181.257.257,0,0,0,.022-.082.086.086,0,0,0,0-.024l.14-1.536a.265.265,0,0,1,.024-.082h0a.438.438,0,0,1,.087-.13.321.321,0,0,1,.072-.055l.3-.171h0l.108-.063.949-.549a.133.133,0,0,1,.07-.019.084.084,0,0,1,.034,0h0l.665.383h.019l.917.53.722-1.091c0-.012.022-.012.031-.022a.269.269,0,0,1,.058-.046.055.055,0,0,1,.034,0,.481.481,0,0,1,.058,0,.178.178,0,0,1,.063,0l.891.515Z" transform="translate(-124.898 -239.413)"/><path class="x" d="M148.216,306.116a.143.143,0,0,1-.012-.046l-.132-1.339a.144.144,0,0,0-.185-.13,2.807,2.807,0,0,1-.665.067.342.342,0,0,0-.267.132l-.294.441,1.577.91h0A.084.084,0,0,1,148.216,306.116Z" transform="translate(-140.736 -280.832)"/><path class="x" d="M171.368,263l-.241.482a.335.335,0,0,0,.019.3,2.746,2.746,0,0,1,.272.607.147.147,0,0,0,.2.1l1.228-.554a.13.13,0,0,1,.1,0Z" transform="translate(-159.291 -249.253)"/><path class="p" d="M146.211,256.348a.212.212,0,0,0-.024.082l-.137,1.536a.405.405,0,0,1-.029.108L144,256.912h0a.616.616,0,0,0,.026-.079.086.086,0,0,0,0-.024l.14-1.536a.269.269,0,0,1,.027-.082Z" transform="translate(-138.717 -243.324)"/><path class="p" d="M133.05,275.855l-2.03-1.173h0a.284.284,0,0,0-.039-.137.256.256,0,0,0-.034-.039l-.722-.614a.2.2,0,0,1-.065-.123l2.03,1.173a.2.2,0,0,0,.065.123l.71.612A.258.258,0,0,1,133.05,275.855Z" transform="translate(-128.209 -257.43)"/><path class="p" d="M132.2,301.414a.188.188,0,0,0,.075.241l.144.084h0l-2.167-1.259a.183.183,0,0,1-.072-.241l.583-1.175.429.241h0a.108.108,0,0,0,.108,0l.609-.275,1.137.657a.185.185,0,0,1-.019.065Z" transform="translate(-128.209 -276.607)"/><path class="p" d="M148.227,306.092h0l-1.577-.91.294-.441a.342.342,0,0,1,.267-.132,2.807,2.807,0,0,0,.665-.067.144.144,0,0,1,.185.13l.132,1.339a.142.142,0,0,0,.012.046A.084.084,0,0,0,148.227,306.092Z" transform="translate(-140.728 -280.786)"/><path class="y" d="M151.706,272.786a5.153,5.153,0,0,1-2.333,4.038c-.094.053-.185.1-.277.142a2.815,2.815,0,0,1-.267.1,1.462,1.462,0,0,1-.9.014l-.12-.048a.9.9,0,0,1-.106-.058h-.017l-.084-.06-.019-.014a1.181,1.181,0,0,1-.181-.183,1.261,1.261,0,0,1-.161-.258.984.984,0,0,1-.046-.1.965.965,0,0,1-.043-.125.664.664,0,0,1-.034-.118,1.255,1.255,0,0,1-.029-.13.373.373,0,0,1,0-.051.965.965,0,0,1-.017-.12h0a2.67,2.67,0,0,0,.284-.147,5.161,5.161,0,0,0,2.331-4.038v-.183a1.317,1.317,0,0,0-.012-.14h0l.123-.048c.048-.019.094-.034.14-.048l.123-.031.125-.024a1.469,1.469,0,0,1,.173-.019,1.326,1.326,0,0,1,.482.063.938.938,0,0,1,.159.07,1.007,1.007,0,0,1,.279.2,1.18,1.18,0,0,1,.089.1,1.3,1.3,0,0,1,.152.241A2.184,2.184,0,0,1,151.706,272.786Z" transform="translate(-141.047 -255.426)"/><path class="p" d="M172.97,263.91a.13.13,0,0,0-.1,0l-1.228.554a.147.147,0,0,1-.2-.1,2.745,2.745,0,0,0-.272-.607.335.335,0,0,1-.019-.3l.241-.482Z" transform="translate(-159.306 -249.238)"/><path class="p" d="M161.219,251.333a.106.106,0,0,0-.039-.014.185.185,0,0,0-.161.041.224.224,0,0,0-.031.036l-1.021,1.534a.306.306,0,0,1-.075.072l-.571-.33-.535-.308-.07-.7a.108.108,0,0,0-.046-.087h0l-.421-.241.722-1.091a.164.164,0,0,1,.089-.067.056.056,0,0,1,.034,0,.161.161,0,0,1,.12.017l.891.515Z" transform="translate(-149.535 -239.512)"/><path class="p" d="M129.473,284.272a.442.442,0,0,1-.092.1l-1.262.889a.3.3,0,0,0-.087.1L126,284.178l.041-.06a.258.258,0,0,1,.046-.043l1.259-.886a.462.462,0,0,0,.094-.1Z" transform="translate(-125.051 -264.505)"/><path class="d" d="M160,256Z" transform="translate(-150.864 -243.939)"/><path class="z" d="M160,256Z" transform="translate(-150.864 -243.939)"/><path class="d" d="M145.08,259.479v-1.594a.1.1,0,0,0-.157-.1l-1.228.554a.147.147,0,0,1-.2-.094,2.769,2.769,0,0,0-.275-.609.342.342,0,0,1-.019-.3l.819-1.652a.183.183,0,0,0-.072-.241l-.889-.518a.183.183,0,0,0-.241.055l-1.021,1.536a.342.342,0,0,1-.267.132,2.805,2.805,0,0,0-.665.067.147.147,0,0,1-.185-.13l-.135-1.341a.1.1,0,0,0-.166-.084l-1.38.8a.361.361,0,0,0-.164.258l-.14,1.534a.482.482,0,0,1-.142.287,8.25,8.25,0,0,0-.768.814.262.262,0,0,1-.27.075l-.886-.308a.219.219,0,0,0-.241.091l-1.014,1.758a.217.217,0,0,0,.043.262l.722.612a.265.265,0,0,1,.067.275,8.447,8.447,0,0,0-.318,1.069.5.5,0,0,1-.178.267l-1.259.889a.368.368,0,0,0-.142.272V265.7a.1.1,0,0,0,.157.1l1.231-.554a.145.145,0,0,1,.2.094,2.649,2.649,0,0,0,.272.609.335.335,0,0,1,.019.3l-.819,1.65a.185.185,0,0,0,.072.241l.889.513a.188.188,0,0,0,.241-.058l1.021-1.534a.335.335,0,0,1,.267-.132,2.8,2.8,0,0,0,.662-.067.147.147,0,0,1,.185.13l.135,1.341a.1.1,0,0,0,.166.084l1.38-.8a.383.383,0,0,0,.166-.258l.137-1.536a.527.527,0,0,1,.144-.287,8.183,8.183,0,0,0,.766-.812.267.267,0,0,1,.272-.077l.886.311a.214.214,0,0,0,.241-.094l1.014-1.758a.212.212,0,0,0-.043-.26l-.71-.614a.26.26,0,0,1-.07-.272,8.58,8.58,0,0,0,.32-1.069.5.5,0,0,1,.176-.267l1.262-.889A.373.373,0,0,0,145.08,259.479Zm-5.4,5.014c-1.288.742-2.333.14-2.333-1.349a5.153,5.153,0,0,1,2.333-4.038c1.288-.744,2.331-.14,2.331,1.346A5.152,5.152,0,0,1,139.684,264.493Z" transform="translate(-131.356 -243.105)"/><path class="aa" d="M145.08,259.479v-1.594a.1.1,0,0,0-.157-.1l-1.228.554a.147.147,0,0,1-.2-.094,2.769,2.769,0,0,0-.275-.609.342.342,0,0,1-.019-.3l.819-1.652a.183.183,0,0,0-.072-.241l-.889-.518a.183.183,0,0,0-.241.055l-1.021,1.536a.342.342,0,0,1-.267.132,2.805,2.805,0,0,0-.665.067.147.147,0,0,1-.185-.13l-.135-1.341a.1.1,0,0,0-.166-.084l-1.38.8a.361.361,0,0,0-.164.258l-.14,1.534a.482.482,0,0,1-.142.287,8.25,8.25,0,0,0-.768.814.262.262,0,0,1-.27.075l-.886-.308a.219.219,0,0,0-.241.091l-1.014,1.758a.217.217,0,0,0,.043.262l.722.612a.265.265,0,0,1,.067.275,8.447,8.447,0,0,0-.318,1.069.5.5,0,0,1-.178.267l-1.259.889a.368.368,0,0,0-.142.272V265.7a.1.1,0,0,0,.157.1l1.231-.554a.145.145,0,0,1,.2.094,2.649,2.649,0,0,0,.272.609.335.335,0,0,1,.019.3l-.819,1.65a.185.185,0,0,0,.072.241l.889.513a.188.188,0,0,0,.241-.058l1.021-1.534a.335.335,0,0,1,.267-.132,2.8,2.8,0,0,0,.662-.067.147.147,0,0,1,.185.13l.135,1.341a.1.1,0,0,0,.166.084l1.38-.8a.383.383,0,0,0,.166-.258l.137-1.536a.527.527,0,0,1,.144-.287,8.183,8.183,0,0,0,.766-.812.267.267,0,0,1,.272-.077l.886.311a.214.214,0,0,0,.241-.094l1.014-1.758a.212.212,0,0,0-.043-.26l-.71-.614a.26.26,0,0,1-.07-.272,8.58,8.58,0,0,0,.32-1.069.5.5,0,0,1,.176-.267l1.262-.889A.373.373,0,0,0,145.08,259.479Zm-5.4,5.014c-1.288.742-2.333.14-2.333-1.349a5.153,5.153,0,0,1,2.333-4.038c1.288-.744,2.331-.14,2.331,1.346A5.152,5.152,0,0,1,139.684,264.493Z" transform="translate(-131.356 -243.105)"/><path class="d" d="M131.789,265.709l-.482-.279a.193.193,0,0,0-.149.092l-.3.53h0l-.123.21-.441.763-.157.272a.2.2,0,0,0-.024.135h0l2.03,1.173a.2.2,0,0,1,.019-.14l.289-.5.359-.621.368-.636a.2.2,0,0,1,.157-.1Z" transform="translate(-128.17 -251.098)"/><path class="z" d="M131.789,265.709l-.482-.279a.193.193,0,0,0-.149.092l-.3.53h0l-.123.21-.441.763-.157.272a.2.2,0,0,0-.024.135h0l2.03,1.173a.2.2,0,0,1,.019-.14l.289-.5.359-.621.368-.636a.2.2,0,0,1,.157-.1Z" transform="translate(-128.17 -251.098)"/><path class="p" d="M136.259,265.77a.241.241,0,0,1-.157,0l-.067-.024h0l-.814-.287H135.2a.2.2,0,0,0-.075,0l.026.017h0l.448.262.154.087h0l1.4.816h0a.159.159,0,0,1,.089,0l.886.308a.241.241,0,0,0,.159,0Z" transform="translate(-131.983 -251.117)"/><path class="d" d="M148.413,252.335a.118.118,0,0,0-.1.012l-.564.325-.556.323-.26.149a.347.347,0,0,0-.142.176l-2.028-1.17h0a.438.438,0,0,1,.087-.13.3.3,0,0,1,.053-.043h.019l.3-.171h0l.108-.063.949-.549a.132.132,0,0,1,.07-.019.084.084,0,0,1,.034,0h0l.665.383h.019l.918.53Z" transform="translate(-139.294 -240.274)"/><path class="z" d="M148.413,252.335a.118.118,0,0,0-.1.012l-.564.325-.556.323-.26.149a.347.347,0,0,0-.142.176l-2.028-1.17h0a.438.438,0,0,1,.087-.13.3.3,0,0,1,.053-.043h.019l.3-.171h0l.108-.063.949-.549a.132.132,0,0,1,.07-.019.084.084,0,0,1,.034,0h0l.665.383h.019l.918.53Z" transform="translate(-139.294 -240.274)"/><path class="d" d="M194.164,276.64a.756.756,0,0,0-.592-.482h-.089a1.152,1.152,0,0,0-.535.113v.2a3.34,3.34,0,0,1-1.51,2.63,1.818,1.818,0,0,1-.178.094,1.2,1.2,0,0,0,.1.395.759.759,0,0,0,.722.482h.149l.067-.012h.07a2.143,2.143,0,0,0,.983-.636A2.961,2.961,0,0,0,194.164,276.64Z" transform="translate(-174.596 -259.242)"/><path class="y" d="M193.315,279.324a2.143,2.143,0,0,1-.983.636h-.07l-.067.012h-.149a.759.759,0,0,1-.722-.482,1.2,1.2,0,0,1-.1-.395A1.826,1.826,0,0,0,191.4,279a3.34,3.34,0,0,0,1.515-2.625v-.2a1.152,1.152,0,0,1,.535-.113h.089a.756.756,0,0,1,.592.482A2.891,2.891,0,0,1,193.315,279.324Z" transform="translate(-174.565 -259.166)"/><path class="d" d="M198.345,296.556l-.388-.59c-.027-.041-.1-.039-.161,0s-.152.1-.226.144l.783.453Z" transform="translate(-179.386 -274.258)"/><path class="d" d="M208.214,278.17q0,.147-.014.3a.106.106,0,0,0,.108.106l.648.036a.1.1,0,0,1,.048.012Z" transform="translate(-187.456 -260.77)"/><path class="d" d="M186.333,297.137a1.3,1.3,0,0,1-.33-.193.135.135,0,0,0-.169.029l-.771.706a.14.14,0,0,1-.084.039l.756.436.467.272a.07.07,0,0,1-.031-.075l.241-1.079A.12.12,0,0,0,186.333,297.137Z" transform="translate(-169.828 -275.01)"/><path class="d" d="M178.676,270.889h.014l.046.026h.012a.06.06,0,0,1-.017-.022l-.344-.759a.147.147,0,0,1,0-.091.24.24,0,0,1,.043-.089l.722-.874a.34.34,0,0,0,.065-.132.178.178,0,0,0,0-.06,3.614,3.614,0,0,1,0-.624.1.1,0,0,0-.108-.1l-.648-.039a.084.084,0,0,1-.089-.108l.356-1.2a.241.241,0,0,1,.161-.135l.708-.171a.306.306,0,0,0,.181-.132,6.718,6.718,0,0,1,.38-.662.272.272,0,0,0,.026-.053.14.14,0,0,0,0-.034v-.034a.153.153,0,0,0,0-.067l-.241-.78a.149.149,0,0,1,0-.089.172.172,0,0,1,.022-.048.319.319,0,0,1,.034-.046l.828-.874a.1.1,0,0,1,.111-.039h0a.048.048,0,0,1,.022.017l.385.59c.026.041.1.039.161,0a3.471,3.471,0,0,1,.467-.27.368.368,0,0,0,.166-.159l.407-1.1a.09.09,0,0,1,.017-.029.221.221,0,0,1,.1-.075h.046l.754-.077h.046a.051.051,0,0,1,.026,0,.06.06,0,0,1,.031.075l-.241,1.081a.123.123,0,0,0,.077.135,1.225,1.225,0,0,1,.33.19.135.135,0,0,0,.169-.029l.771-.7c.041-.036.082-.048.111-.034l-1.52-.881h-.029l-.275-.159h0l-.3-.173-.12-.07-.272-.159-.043-.026-.212-.12a.116.116,0,0,0-.075-.014l-.754.075a.084.084,0,0,0-.034,0l-.034.012-.034.019-.024.022a.137.137,0,0,0-.039.055l-.409,1.1a.072.072,0,0,1-.014.026.2.2,0,0,1-.029.039l-.039.039h0l-.034.024-.043.026c-.079.036-.157.079-.241.125l-.792-.458h-.012a.072.072,0,0,0-.065,0,.111.111,0,0,0-.046.031h0l-.588.619-.241.255a.241.241,0,0,0-.036.048.384.384,0,0,0-.024.055.147.147,0,0,0,0,.063v.014l.241.78a.218.218,0,0,1,0,.07.106.106,0,0,1,0,.024h0v.012a.262.262,0,0,1-.034.075,6.68,6.68,0,0,0-.38.66.294.294,0,0,1-.178.135l-.722.171a.226.226,0,0,0-.159.132l-.359,1.2a.079.079,0,0,0,.029.087l.547.318.255.147a2.361,2.361,0,0,0,.014.323h0a.179.179,0,0,1,0,.048.242.242,0,0,1-.017.055.594.594,0,0,1-.046.077l-.722.877a.241.241,0,0,0-.043.089.182.182,0,0,0,0,.048.114.114,0,0,0,0,.041l.344.759a.058.058,0,0,0,.022.027h0l.217.125c.031.017.067.036.1.06l.922.532.1.058.055.034" transform="translate(-163.63 -248.232)"/><path class="x" d="M178.676,270.889h.014l.046.026h.012a.06.06,0,0,1-.017-.022l-.344-.759a.147.147,0,0,1,0-.091.24.24,0,0,1,.043-.089l.722-.874a.34.34,0,0,0,.065-.132.178.178,0,0,0,0-.06,3.614,3.614,0,0,1,0-.624.1.1,0,0,0-.108-.1l-.648-.039a.084.084,0,0,1-.089-.108l.356-1.2a.241.241,0,0,1,.161-.135l.708-.171a.306.306,0,0,0,.181-.132,6.718,6.718,0,0,1,.38-.662.272.272,0,0,0,.026-.053.14.14,0,0,0,0-.034v-.034a.153.153,0,0,0,0-.067l-.241-.78a.149.149,0,0,1,0-.089.172.172,0,0,1,.022-.048.319.319,0,0,1,.034-.046l.828-.874a.1.1,0,0,1,.111-.039h0a.048.048,0,0,1,.022.017l.385.59c.026.041.1.039.161,0a3.471,3.471,0,0,1,.467-.27.368.368,0,0,0,.166-.159l.407-1.1a.09.09,0,0,1,.017-.029.221.221,0,0,1,.1-.075h.046l.754-.077h.046a.051.051,0,0,1,.026,0,.06.06,0,0,1,.031.075l-.241,1.081a.123.123,0,0,0,.077.135,1.225,1.225,0,0,1,.33.19.135.135,0,0,0,.169-.029l.771-.7c.041-.036.082-.048.111-.034l-1.52-.881h-.029l-.275-.159h0l-.3-.173-.12-.07-.272-.159-.043-.026-.212-.12a.116.116,0,0,0-.075-.014l-.754.075a.084.084,0,0,0-.034,0l-.034.012-.034.019-.024.022a.137.137,0,0,0-.039.055l-.409,1.1a.072.072,0,0,1-.014.026.2.2,0,0,1-.029.039l-.039.039h0l-.034.024-.043.026c-.079.036-.157.079-.241.125l-.792-.458h-.012a.072.072,0,0,0-.065,0,.111.111,0,0,0-.046.031h0l-.588.619-.241.255a.241.241,0,0,0-.036.048.384.384,0,0,0-.024.055.147.147,0,0,0,0,.063v.014l.241.78a.218.218,0,0,1,0,.07.106.106,0,0,1,0,.024h0v.012a.262.262,0,0,1-.034.075,6.68,6.68,0,0,0-.38.66.294.294,0,0,1-.178.135l-.722.171a.226.226,0,0,0-.159.132l-.359,1.2a.079.079,0,0,0,.029.087l.547.318.255.147a2.361,2.361,0,0,0,.014.323h0a.179.179,0,0,1,0,.048.242.242,0,0,1-.017.055.594.594,0,0,1-.046.077l-.722.877a.241.241,0,0,0-.043.089.182.182,0,0,0,0,.048.114.114,0,0,0,0,.041l.344.759a.058.058,0,0,0,.022.027h0l.217.125c.031.017.067.036.1.06l.922.532.1.058.055.034" transform="translate(-163.63 -248.232)"/><path class="y" d="M198.345,296.556l-.388-.59c-.027-.041-.1-.039-.161,0s-.152.1-.226.144l.783.453Z" transform="translate(-179.386 -274.258)"/><path class="x" d="M208.214,278.17q0,.147-.014.3a.106.106,0,0,0,.108.106l.648.036a.1.1,0,0,1,.048.012Z" transform="translate(-187.456 -260.77)"/><path class="y" d="M186.333,297.137a1.3,1.3,0,0,1-.33-.193.135.135,0,0,0-.169.029l-.771.706a.14.14,0,0,1-.084.039l.756.436.467.272a.07.07,0,0,1-.031-.075l.241-1.079A.12.12,0,0,0,186.333,297.137Z" transform="translate(-169.828 -275.01)"/><path class="h" d="M179.341,289.439a.35.35,0,0,1-.048.082l-.722.874a.241.241,0,0,0-.043.089L177,289.6a.241.241,0,0,1,.043-.089l.722-.877a.594.594,0,0,0,.046-.077Z" transform="translate(-163.77 -268.658)"/><path class="ab" d="M181.936,287.992a.221.221,0,0,1-.022.111l-1.524-.879a.241.241,0,0,0,.017-.055.18.18,0,0,0,0-.048h0c0-.1-.014-.21-.014-.32l.722.412a.113.113,0,0,0,.067.024l.648.039a.1.1,0,0,1,.108.1A3.613,3.613,0,0,0,181.936,287.992Z" transform="translate(-166.343 -267.322)"/><path class="o" d="M181.041,278.909a.253.253,0,0,1-.1.046l-.708.171a.255.255,0,0,0-.13.084l-1.527-.879a.241.241,0,0,1,.079-.067l.053-.019.722-.171a.289.289,0,0,0,.092-.043h0Z" transform="translate(-164.969 -260.664)"/><path class="z" d="M178.485,281.439a.082.082,0,0,0,.022.084l-.722-.412h0l-.785-.455h-.012a.077.077,0,0,1-.029-.087l.359-1.2a.14.14,0,0,1,.024-.046l1.529.879a.145.145,0,0,0-.031.051Z" transform="translate(-163.735 -261.643)"/><path class="o" d="M183.63,270.56l1.524.874a.137.137,0,0,0,0,.087l.241.78a.21.21,0,0,1,0,.1l-1.524-.881h0V271.5a.219.219,0,0,0,0-.07l-.241-.78a.123.123,0,0,1,0-.077" transform="translate(-168.799 -254.993)"/><path class="o" d="M194.524,263.161a.144.144,0,0,0-.041.055l-.407,1.1a.258.258,0,0,1-.082.1l-1.524-.881a.282.282,0,0,0,.067-.077.072.072,0,0,0,.014-.026l.409-1.1a.138.138,0,0,1,.039-.055Z" transform="translate(-175.514 -248.706)"/><path class="d" d="M178.485,281.439a.082.082,0,0,0,.022.084l-.722-.412h0l-.785-.455h-.012a.077.077,0,0,1-.029-.087l.359-1.2a.14.14,0,0,1,.024-.046l1.529.879a.145.145,0,0,0-.031.051Z" transform="translate(-163.735 -261.643)"/><path class="z" d="M178.485,281.439a.082.082,0,0,0,.022.084l-.722-.412h0l-.785-.455h-.012a.077.077,0,0,1-.029-.087l.359-1.2a.14.14,0,0,1,.024-.046l1.529.879a.145.145,0,0,0-.031.051Z" transform="translate(-163.735 -261.643)"/><path class="z" d="M178.58,279.28Z" transform="translate(-164.969 -261.613)"/><path class="d" d="M186.189,267.2h0a.1.1,0,0,0-.118.036l-.828.874a.3.3,0,0,0-.058.1l-1.524-.874a.262.262,0,0,1,.022-.055.24.24,0,0,1,.036-.048l.828-.874a.186.186,0,0,1,.046-.034.072.072,0,0,1,.065,0h.012l.792.458Z" transform="translate(-168.826 -251.772)"/><path class="z" d="M186.189,267.2h0a.1.1,0,0,0-.118.036l-.828.874a.3.3,0,0,0-.058.1l-1.524-.874a.262.262,0,0,1,.022-.055.24.24,0,0,1,.036-.048l.828-.874a.186.186,0,0,1,.046-.034.072.072,0,0,1,.065,0h.012l.792.458Z" transform="translate(-168.826 -251.772)"/><path class="d" d="M197.141,262.632a.121.121,0,0,0-.067-.012l-.754.077a.209.209,0,0,0-.125.058l-1.524-.881.024-.022.034-.019.034-.012a.142.142,0,0,1,.034,0l.754-.075a.116.116,0,0,1,.075.014Z" transform="translate(-177.185 -248.3)"/><path class="z" d="M197.141,262.632a.121.121,0,0,0-.067-.012l-.754.077a.209.209,0,0,0-.125.058l-1.524-.881.024-.022.034-.019.034-.012a.142.142,0,0,1,.034,0l.754-.075a.116.116,0,0,1,.075.014Z" transform="translate(-177.185 -248.3)"/><path class="z" d="M180.25,286.65l.043.024h0Z" transform="translate(-166.237 -267.208)"/><path class="d" d="M190.2,268.922a.1.1,0,0,0-.048-.012l-.648-.036a.106.106,0,0,1-.108-.106q.014-.157.014-.3a2.817,2.817,0,0,0,0-.32.3.3,0,0,1,.07-.19l.722-.877a.188.188,0,0,0,.043-.178l-.342-.759a.043.043,0,0,0-.022-.024h0c-.029-.014-.07,0-.111.034l-.771.7a.135.135,0,0,1-.169.029,1.225,1.225,0,0,0-.33-.19.123.123,0,0,1-.077-.135l.241-1.081a.06.06,0,0,0-.031-.075.116.116,0,0,0-.072-.014l-.754.077a.207.207,0,0,0-.166.113l-.407,1.1a.368.368,0,0,1-.166.159,3.466,3.466,0,0,0-.467.27c-.063.043-.135.046-.161,0l-.385-.59c-.029-.041-.092-.034-.14.019l-.828.874a.219.219,0,0,0-.065.183l.241.78a.255.255,0,0,1-.043.188,6.72,6.72,0,0,0-.38.662.306.306,0,0,1-.181.132l-.708.171a.241.241,0,0,0-.161.135l-.356,1.2a.084.084,0,0,0,.089.108l.648.039a.1.1,0,0,1,.108.1,3.614,3.614,0,0,0,0,.624.294.294,0,0,1-.07.193l-.722.874a.2.2,0,0,0-.043.181l.337.754a.034.034,0,0,0,.014.017h.029a.128.128,0,0,0,.084-.039l.771-.706a.135.135,0,0,1,.169-.029,1.3,1.3,0,0,0,.33.193.12.12,0,0,1,.077.135l-.241,1.079a.07.07,0,0,0,.031.075h0a.134.134,0,0,0,.072,0l.754-.075a.217.217,0,0,0,.166-.116l.409-1.1a.344.344,0,0,1,.164-.161c.079-.036.161-.079.241-.125s.152-.092.226-.144.135-.046.161,0l.388.59a.045.045,0,0,0,.017.019.1.1,0,0,0,.12-.039l.831-.874a.222.222,0,0,0,.063-.181l-.241-.78a.272.272,0,0,1,.043-.19,6.488,6.488,0,0,0,.38-.66.3.3,0,0,1,.181-.135l.708-.171a.241.241,0,0,0,.161-.132l.356-1.2a.079.079,0,0,0-.039-.094Zm-2.8,2.3a2.143,2.143,0,0,1-.983.636h-.07l-.067.012h-.149a.759.759,0,0,1-.722-.482,1.2,1.2,0,0,1-.1-.395,1.309,1.309,0,0,1-.012-.219,3.4,3.4,0,0,1,.946-2.11,2.57,2.57,0,0,1,.573-.462,1.413,1.413,0,0,1,.19-.1,1.151,1.151,0,0,1,.535-.113h.089a.756.756,0,0,1,.592.482A2.865,2.865,0,0,1,187.4,271.222Z" transform="translate(-168.647 -251.065)"/><path class="aa" d="M190.2,268.922a.1.1,0,0,0-.048-.012l-.648-.036a.106.106,0,0,1-.108-.106q.014-.157.014-.3a2.817,2.817,0,0,0,0-.32.3.3,0,0,1,.07-.19l.722-.877a.188.188,0,0,0,.043-.178l-.342-.759a.043.043,0,0,0-.022-.024h0c-.029-.014-.07,0-.111.034l-.771.7a.135.135,0,0,1-.169.029,1.225,1.225,0,0,0-.33-.19.123.123,0,0,1-.077-.135l.241-1.081a.06.06,0,0,0-.031-.075.116.116,0,0,0-.072-.014l-.754.077a.207.207,0,0,0-.166.113l-.407,1.1a.368.368,0,0,1-.166.159,3.466,3.466,0,0,0-.467.27c-.063.043-.135.046-.161,0l-.385-.59c-.029-.041-.092-.034-.14.019l-.828.874a.219.219,0,0,0-.065.183l.241.78a.255.255,0,0,1-.043.188,6.72,6.72,0,0,0-.38.662.306.306,0,0,1-.181.132l-.708.171a.241.241,0,0,0-.161.135l-.356,1.2a.084.084,0,0,0,.089.108l.648.039a.1.1,0,0,1,.108.1,3.614,3.614,0,0,0,0,.624.294.294,0,0,1-.07.193l-.722.874a.2.2,0,0,0-.043.181l.337.754a.034.034,0,0,0,.014.017h.029a.128.128,0,0,0,.084-.039l.771-.706a.135.135,0,0,1,.169-.029,1.3,1.3,0,0,0,.33.193.12.12,0,0,1,.077.135l-.241,1.079a.07.07,0,0,0,.031.075h0a.134.134,0,0,0,.072,0l.754-.075a.217.217,0,0,0,.166-.116l.409-1.1a.344.344,0,0,1,.164-.161c.079-.036.161-.079.241-.125s.152-.092.226-.144.135-.046.161,0l.388.59a.045.045,0,0,0,.017.019.1.1,0,0,0,.12-.039l.831-.874a.222.222,0,0,0,.063-.181l-.241-.78a.272.272,0,0,1,.043-.19,6.488,6.488,0,0,0,.38-.66.3.3,0,0,1,.181-.135l.708-.171a.241.241,0,0,0,.161-.132l.356-1.2a.079.079,0,0,0-.039-.094Zm-2.8,2.3a2.143,2.143,0,0,1-.983.636h-.07l-.067.012h-.149a.759.759,0,0,1-.722-.482,1.2,1.2,0,0,1-.1-.395,1.309,1.309,0,0,1-.012-.219,3.4,3.4,0,0,1,.946-2.11,2.57,2.57,0,0,1,.573-.462,1.413,1.413,0,0,1,.19-.1,1.151,1.151,0,0,1,.535-.113h.089a.756.756,0,0,1,.592.482A2.865,2.865,0,0,1,187.4,271.222Z" transform="translate(-168.647 -251.065)"/></g><g transform="translate(35.704 21.362)"><path class="ac" d="M264.74,177.939l22.434-12.953c.289-.166.523-.031.523.3v20.255a1.151,1.151,0,0,1-.523.9L264.74,199.4c-.287.166-.52.031-.52-.3V178.84A1.156,1.156,0,0,1,264.74,177.939Z" transform="translate(-263.238 -164.348)"/><path class="ad" d="M261.279,218.826l-.98-.566a1.079,1.079,0,0,0-.154.515V239.03a.371.371,0,0,0,.149.335c.1.058.884.5.963.561a.376.376,0,0,1-.142-.332V219.339A1.072,1.072,0,0,1,261.279,218.826Z" transform="translate(-260.143 -204.847)"/><path class="t" d="M284.9,163.149c-.185-.113-.869-.5-.963-.551a.368.368,0,0,0-.373.034l-22.434,12.956a1.04,1.04,0,0,0-.368.388l.98.566a1.081,1.081,0,0,1,.366-.39L284.543,163.2A.383.383,0,0,1,284.9,163.149Z" transform="translate(-260.611 -162.562)"/><path class="s" d="M279.59,233.921a1,1,0,0,1,.07-.4,2.749,2.749,0,0,1,.2-.376l3.564-5.78a.418.418,0,0,1,.063-.072.241.241,0,0,1,.041-.034.116.116,0,0,1,.145,0,.258.258,0,0,1,.055.185v2.006a1,1,0,0,1-.1.455c-.07.137-.137.258-.2.364l-1.686,2.692,1.686.761a1.189,1.189,0,0,1,.2.132.422.422,0,0,1,.1.335V236.2a.622.622,0,0,1-.055.253.375.375,0,0,1-.145.169.122.122,0,0,1-.041.017.137.137,0,0,1-.063,0l-3.564-1.659a.527.527,0,0,1-.2-.137.506.506,0,0,1-.07-.318Z" transform="translate(-274.905 -211.661)"/><path class="s" d="M306.317,206a2.012,2.012,0,0,1,.142-.383.674.674,0,0,1,.275-.3l1.18-.679a.113.113,0,0,1,.147,0,.255.255,0,0,1,.063.19.7.7,0,0,1-.019.142l-3.2,13.7a1.735,1.735,0,0,1-.135.368.689.689,0,0,1-.284.313l-1.146.665a.116.116,0,0,1-.149,0,.255.255,0,0,1-.06-.19.566.566,0,0,1,.019-.142Z" transform="translate(-292.774 -194.482)"/><path class="s" d="M333.254,210.451a1.043,1.043,0,0,1-.07.4,2.732,2.732,0,0,1-.2.373L329.415,217a.556.556,0,0,1-.063.072.213.213,0,0,1-.043.031.108.108,0,0,1-.142,0,.241.241,0,0,1-.058-.185v-2.006a.99.99,0,0,1,.106-.455c.07-.137.135-.258.2-.364l1.671-2.692-1.671-.761a1.006,1.006,0,0,1-.2-.135.417.417,0,0,1-.106-.335v-2a.587.587,0,0,1,.058-.241.373.373,0,0,1,.142-.169.14.14,0,0,1,.043-.019.19.19,0,0,1,.063,0l3.564,1.659a.385.385,0,0,1,.275.455Z" transform="translate(-312.499 -196.86)"/></g><g transform="translate(9.971 36.276)"><path class="ae" d="M177.6,225.079a.383.383,0,0,0-.347.048l-22.437,12.953a1.156,1.156,0,0,0-.52.9v20.255a.376.376,0,0,0,.142.332c-.089-.058-.877-.5-.963-.561a.371.371,0,0,1-.149-.335V238.42a1.151,1.151,0,0,1,.523-.9l22.434-12.956a.369.369,0,0,1,.373-.034C176.729,224.578,177.413,224.966,177.6,225.079Z" transform="translate(-153.313 -224.492)"/><path class="ae" d="M157.88,239.859l22.434-12.953c.289-.166.523-.031.523.3v20.255a1.151,1.151,0,0,1-.523.9L157.88,261.311c-.287.166-.52.031-.52-.3V240.762A1.156,1.156,0,0,1,157.88,239.859Z" transform="translate(-156.378 -226.27)"/><path class="p" d="M154.419,280.756l-.98-.566a1.079,1.079,0,0,0-.154.515V300.96a.371.371,0,0,0,.149.335c.1.058.884.5.963.561a.376.376,0,0,1-.142-.332V281.269A1.072,1.072,0,0,1,154.419,280.756Z" transform="translate(-153.283 -266.777)"/><path class="af" d="M178.029,225.079c-.185-.113-.869-.5-.963-.551a.368.368,0,0,0-.373.034l-22.434,12.956a1.06,1.06,0,0,0-.368.388l.98.566a1.081,1.081,0,0,1,.366-.39l22.437-12.953a.383.383,0,0,1,.356-.048Z" transform="translate(-153.744 -224.492)"/><path class="ag" d="M172.045,289.5l1.772,2.492-8.012-7.292L157.36,299v4.937c0,.332.241.467.52.3l22.434-12.956a1.151,1.151,0,0,0,.523-.9v-2.712l-5.984-4.3Z" transform="translate(-156.378 -269.191)"/><path class="ag" d="M216.383,258.184c1.048-.6,1.9-.113,1.9,1.093a4.185,4.185,0,0,1-1.9,3.282c-1.045.6-1.893.113-1.893-1.093a4.19,4.19,0,0,1,1.893-3.282Z" transform="translate(-199.75 -249.874)"/><path class="d" d="M180.525,227.071c.046,0,.048.118.048.132v20.255a.917.917,0,0,1-.4.7l-22.439,12.953a.222.222,0,0,1-.111.039c-.048,0-.048-.118-.048-.13V240.759a.918.918,0,0,1,.4-.694l22.439-12.953a.241.241,0,0,1,.113-.039m0-.241a.482.482,0,0,0-.241.072L157.85,239.858a1.156,1.156,0,0,0-.52.9v20.257c0,.241.118.371.289.371a.462.462,0,0,0,.241-.07l22.434-12.956a1.151,1.151,0,0,0,.523-.9V227.2c0-.241-.118-.373-.289-.373Z" transform="translate(-156.355 -226.267)"/></g></g><g transform="translate(58.49 108.821)"><path class="ah" d="M198.965,361.164c-.419.241-1.2.229-1.445.515v1.033l4.792-.7,1.813,1.062-.689,1.445-4.838-.328v1.031q.152.108.325.21a8.155,8.155,0,0,0,7.386.031,2.6,2.6,0,0,0,1.556-2.143h0v-1.028l-.284.046-.034-.058,18.138-10.471a8.2,8.2,0,0,0,5.459-.684,2.976,2.976,0,0,0,1.445-1.546v-1.033l-4.792,1.731-1.813-1.062.689-1.445,4.84-.708v-1.033s-5.657-.376-7.706.792a3.354,3.354,0,0,0-1.281,1.185l-.275-.1v1.026h0a1.907,1.907,0,0,0,.313,1.076l-18.136,10.471A8.237,8.237,0,0,0,198.965,361.164Z" transform="translate(-197.52 -344.92)"/><path class="l" d="M257.248,366.953V365.92l-18.136,10.471,0,1.033Z" transform="translate(-229.095 -360.065)"/><path class="v" d="M222.562,345.666l-18.138,10.471a8.2,8.2,0,0,0-5.459.681,2.98,2.98,0,0,0-1.445,1.548l4.792-.7,1.813,1.062-.689,1.445-4.838.706c.1.07.21.14.325.207a8.155,8.155,0,0,0,7.386.034c1.507-.857,1.927-2.11,1.24-3.186l18.136-10.471a8.2,8.2,0,0,0,5.459-.682,2.979,2.979,0,0,0,1.445-1.548l-4.792.7-1.813-1.062.689-1.445,4.84-.71c-.1-.07-.21-.14-.325-.207a8.155,8.155,0,0,0-7.386-.034C222.292,343.338,221.881,344.592,222.562,345.666Z" transform="translate(-197.52 -341.608)"/><path class="l" d="M316.1,348.6l-.385-.226.689-1.438,4.84-.71v1.033l-4.84.708Z" transform="translate(-287.248 -345.117)"/></g></g></svg>